<svg xmlns="http://www.w3.org/2000/svg" width="610px" height="697px" viewBox="0 0 210 297">
  <defs>
    <clipPath id="a" clipPathUnits="userSpaceOnUse">
      <path d="M99 475h316V-29H99z"/>
    </clipPath>
    <clipPath id="c" clipPathUnits="userSpaceOnUse">
      <path d="M0 500h500V0H0z"/>
    </clipPath>
    <clipPath id="b" clipPathUnits="userSpaceOnUse">
      <path d="M107.901 63.47h284.197v402.631H107.901z"/>
    </clipPath>
  </defs>
  <g>
    <g clip-path="url(#b)" transform="matrix(.6151 0 0 -.65867 -66.578606 340.12263)">
      <path d="M327.4785 180.9072l-113.557-36.853c-7.637-2.479-15.838 1.704-18.317 9.341l-7.92 24.406c-2.478 7.637 1.704 15.838 9.341 18.317l113.557 36.852c7.637 2.479 15.838-1.703 18.317-9.34l7.92-24.407c2.478-7.637-1.703-15.837-9.341-18.316" fill="#f1cb50"/>
      <path d="M313.1963 229.3926l-116.185-37.706c-6.912-2.243-10.696-9.664-8.454-16.576l7.474-23.03c2.244-6.912 9.665-10.696 16.577-8.453l116.185 37.706c6.912 2.243 10.696 9.664 8.453 16.576l-7.474 23.03c-2.243 6.911-9.665 10.696-16.576 8.453" fill="#e64337"/>
      <path d="M187.3184 178.9297s-34.391-7.317-8.99-55.493l7.243 12.409s-8.453 18.383-2.222 24.416c6.231 6.033 8.296 5.336 8.296 5.336z" fill="#e64337"/>
      <path d="M354.0479 146.1377l26.854-117.764-121.734-35.357-31.732 77.581-23.947 77.401 125.614 43.929z" fill="#fff"/>
      <path d="M328.5332 224.7588s32.134 14.271 39.863-39.64l-13.149 5.792s-3.953 19.843-12.54 21.068c-8.586 1.224-9.848-.552-9.848-.552z" fill="#ccc"/>
      <path d="M199.8882 189.5205c-3.73 11.495-4.187 23.798-.899 34.762 4.237 14.127 14.561 30.789 39.196 38.782 21.9 7.107 39.212-.399 50.691-9.09 9.192-6.961 16.129-17.242 19.888-28.827l.842-2.593c3.9-12.016 4.189-24.885.469-36.208-4.355-13.258-14.069-28.343-35.534-35.308-21.595-7.008-39.293-.674-51.497 7.28-10.707 6.978-18.933 18.19-23.145 31.169z" fill="#fff"/>
      <path d="M273.3057 150.6592c2.415 3.18 4.147 6.269 4.873 8.973.98 3.647.988 9.262-1.97 11.347-4.06 2.863-10.007-3.537-19.103-5.514-14.917-3.243-31.863 6.805-40.96 18.56-9.904 12.8-10.01 26.988-10.048 32.018-.124 16.525 7.127 28.535 6 29.006-1.017.423-6.663-9.458-11.085-20.724-1.73-4.407-3.071-8.522-4.128-12.231-.429-7.48.608-15.192 3.004-22.574l.01-.033c4.212-12.978 12.439-24.19 23.146-31.169 11.97-7.801 29.228-14.036 50.261-7.659" fill="#6db6c9"/>
      <path d="M211.1128 196.6357c-2.407 7.417-2.364 15.466.413 22.753 3.578 9.391 11.744 20.63 30.245 26.634 16.447 5.336 29.042.955 37.277-4.385 6.595-4.276 11.415-10.799 13.841-18.274l.543-1.674c2.516-7.754 2.331-16.178-.777-23.714-3.638-8.823-11.303-19.012-27.423-24.243-16.219-5.263-29.135-1.661-37.93 3.173-7.717 4.241-13.464 11.334-16.182 19.709z" fill="#072433"/>
      <path d="M327.2012 193.8437s-7.579 7.296-11.496 15.553l4.291-18.437z" fill="#fff"/>
      <path d="M308.4131 210.9316c.782-2.209 1.138-4.55 1.261-6.896.124-2.351-.069-4.722-.523-7.054-.482-2.327-1.336-4.589-2.517-6.655-1.172-2.081-2.846-3.845-4.709-5.231 1.353 1.916 2.605 3.783 3.49 5.857.131.248.234.508.322.776l.302.783c.209.519.409 1.038.544 1.584.148.54.346 1.063.479 1.607l.371 1.638c.459 2.195.719 4.437.875 6.703.133 2.269.169 4.557.105 6.888" fill="#6db6c9"/>
      <path d="M209.4585 178.8184c1.317-1.926 2.689-3.757 4.13-5.514 1.457-1.743 2.983-3.406 4.645-4.912l1.262-1.109c.427-.361.894-.668 1.331-1.019.429-.363.897-.665 1.37-.962l.705-.457c.228-.165.465-.315.716-.438 1.934-1.16 4.043-1.936 6.265-2.692-2.323.028-4.714.473-6.884 1.468-2.169.979-4.188 2.309-5.946 3.909-1.736 1.622-3.285 3.427-4.565 5.404-1.278 1.97-2.365 4.075-3.029 6.322" fill="#072433"/>
      <path d="M330.252 130.9941s50.18 19.772 38.851 71.099c0 0-45.609 8.859-56.339 2.853 0 0-15.798-56.364 17.488-73.952" fill="#fff"/>
      <path d="M369.1025 202.0928s9.765 58.454 1.562 67.799l-44.788 1.266s-14.283-51.916-13.113-66.211c0 0 18.407 5.264 56.339-2.854" fill="#fff"/>
      <path d="M366.9092 202.5625c.545-.117 1.178-.252 1.907-.408-.387.082-1.123.24-1.907.408m-.938.2c.042-.009.088-.018.133-.028-.045.01-.089.018-.133.028m-1.091.234c.143-.031.308-.066.491-.105-.175.037-.338.072-.491.105m-.807.172c.106-.022.287-.061.545-.116-.24.051-.429.092-.545.116m4.757-1.017c.059-.014.113-.025.175-.038-.045.01-.101.021-.175.038m1.834 67.741l-25.564.722c-6.37-3.073-12.146-7.837-16.034-13.491-6.012-8.744-10.118-23.386-4.093-31.012 4.21-5.328 11.708-5.133 11.749-8.061.063-4.422-17.018-6.688-16.837-10.031.206-3.803 22.563-5.428 22.469-7.321-.082-1.655-17.039 1.459-25.057-7.219-6.083-6.583-4.188-16.884-3.748-22.224 3.387-41.151-55.993-75.172-47.825-89.046 5.44-9.237 32.252 5.038 44.168-8.043 11.184-12.275-5.232-32.75 3.348-45.494 4.445-6.602 15.222-10.564 28.766-11.595l38.896 11.297-26.854 117.763-.452.829c11.265 11.343 21.227 29.21 15.506 55.126 0 0 9.765 58.454 1.562 67.8" fill="#6db6c9"/>
      <path d="M207.2578 156.0957s49.549-32.14 26.222-84.757c0 0-50.875.417-61.084 9.196 0 0-4.688 63.929 34.862 75.561" fill="#fff"/>
      <path d="M316.8594 116.9629c-18.371-9.682-38.267-16.139-58.821-19.09l-10.389 32.013 6.677 3.187c14.89 7.109 30.682 12.153 46.937 14.993l5.206.91z" fill="#072433"/>
      <path d="M184.2959-.2275s-17.838 54.966-7.168 78.156l53.382-7.103s7.732-48.899 4.06-64.169c0 0-7.864-4.486-50.274-6.884M241.771 246.0225c-35.509-11.523-32.947-42.335-32.947-42.335l.961-2.961s-2.562 30.812 32.947 42.334c31.212 10.129 48.549-14.744 48.549-14.744l-.961 2.961s-17.337 24.873-48.549 14.745" fill="#fff"/>
      <path d="M208.8242 203.6875c-.293 9.408 2.792 18.975 8.565 26.587 2.869 3.828 6.438 7.102 10.369 9.821 3.942 2.712 8.295 4.77 12.773 6.38 4.472 1.642 9.225 2.645 14.02 2.828 4.793.15 9.628-.534 14.139-2.136 4.524-1.571 8.71-3.961 12.476-6.834 3.741-2.912 7.126-6.242 10.094-9.893-3.267 3.381-6.748 6.558-10.608 9.187-3.826 2.664-7.994 4.823-12.398 6.229-4.405 1.393-9.036 2.016-13.636 1.774-4.602-.211-9.154-1.202-13.502-2.806-4.373-1.534-8.588-3.533-12.436-6.096-1.918-1.288-3.76-2.69-5.47-4.245-1.686-1.576-3.32-3.221-4.751-5.041-2.877-3.619-5.212-7.694-6.826-12.067-1.649-4.354-2.641-8.991-2.809-13.688M297.2158 212.0879c.745-9.299-2.308-18.919-8.235-26.309-1.486-1.84-3.094-3.598-4.898-5.136-.432-.407-.89-.782-1.357-1.147-.465-.366-.92-.747-1.393-1.102-.973-.672-1.908-1.408-2.927-2.011-4.002-2.53-8.339-4.488-12.809-5.978-4.485-1.471-9.174-2.417-13.913-2.592-4.735-.167-9.509.397-14.033 1.783-4.534 1.357-8.804 3.495-12.651 6.186-3.826 2.723-7.28 5.938-10.22 9.553 6.397-6.744 14.375-12.032 23.246-14.43 8.861-2.444 18.353-1.774 27.02 1.166 4.366 1.432 8.581 3.316 12.474 5.724 3.919 2.365 7.431 5.377 10.397 8.856 2.967 3.482 5.278 7.524 6.863 11.844 1.602 4.316 2.485 8.938 2.436 13.593" fill="#072433"/>
      <path d="M280.1221 230.3203c-1.318-6.191-9.495-9.696-18.263-7.829-8.768 1.867-14.808 8.399-13.49 14.59 1.318 6.19 9.494 9.695 18.263 7.828 8.768-1.866 14.808-8.399 13.49-14.589" fill="#fff"/>
      <path d="M212.9829 241.6758c-.628.399-.299 2.04.735 3.665 1.035 1.624 2.382 2.617 3.01 2.218.628-.4.298-2.041-.736-3.665-1.034-1.625-2.381-2.617-3.009-2.218M231.0708 257.9229c3.345 2.177 7.079 3.737 10.915 4.9 3.846 1.156 7.848 1.831 11.881 1.999 2.017.05 4.039.015 6.049-.193 2.002-.249 4.007-.534 5.95-1.081 3.906-.997 7.626-2.659 10.946-4.854-3.668 1.55-7.407 2.795-11.248 3.518-3.836.728-7.739 1.014-11.631.856-3.895-.129-7.774-.706-11.598-1.565-3.818-.893-7.591-2.053-11.264-3.58M306.7686 220.6934c.456-.366.735-.788.975-1.221.228-.436.391-.891.496-1.359.104-.468.149-.949.126-1.441-.034-.494-.112-.994-.372-1.518-.465.398-.746.821-.984 1.251-.227.432-.387.873-.486 1.329-.1.455-.142.923-.117 1.41.035.49.111.992.362 1.549M283.3154 254.9209c2.681-1.43 5.101-3.317 7.341-5.371 2.248-2.054 4.302-4.323 6.141-6.756.472-.599.902-1.229 1.331-1.859.42-.636.886-1.242 1.27-1.902.771-1.316 1.587-2.603 2.229-3.988 1.407-2.7 2.451-5.579 3.241-8.497-1.474 2.655-2.837 5.309-4.439 7.828-1.545 2.546-3.237 4.993-5.032 7.357-1.763 2.391-3.704 4.645-5.706 6.851-2.019 2.195-4.122 4.317-6.376 6.337M194.252 72.7158c-.475-.268-.918-.354-1.354-.398-.434-.035-.854 0-1.262.091-.408.091-.803.243-1.179.46-.374.228-.736.498-1.048.947.495.264.941.351 1.374.396.43.034.843.002 1.242-.09.4-.092.786-.241 1.159-.458.372-.227.735-.497 1.068-.948M235.1001 72.1973c-2.858-.836-5.796-1.343-8.742-1.706-2.948-.375-5.918-.551-8.889-.599-1.486-.022-2.973.022-4.458.057-1.483.103-2.969.14-4.446.327-2.959.272-5.897.789-8.778 1.518 2.979-.003 5.914-.136 8.855-.149 2.938-.037 5.871-.052 8.804.003 2.933.013 5.866.112 8.804.204z" fill="#6db6c9"/>
      <path d="M328.918 202.3779c-.475-.268-.918-.354-1.354-.398-.433-.035-.854 0-1.262.091-.408.091-.803.243-1.179.46-.374.228-.736.498-1.048.947.495.264.941.351 1.374.396.431.034.844.002 1.242-.09.4-.092.786-.241 1.16-.458.371-.228.735-.498 1.067-.948M369.7666 201.8594c-2.858-.836-5.796-1.343-8.742-1.706-2.948-.375-5.918-.551-8.89-.599-1.485-.022-2.972.022-4.457.057-1.483.103-2.97.14-4.446.327-2.959.272-5.898.789-8.778 1.518 2.979-.003 5.914-.136 8.855-.15 2.937-.036 5.871-.052 8.804.004 2.933.013 5.866.112 8.804.204zM335.5859 94.0215c-.342-.425-.721-.669-1.109-.873-.39-.191-.794-.316-1.206-.383-.414-.066-.835-.073-1.266-.011-.432.073-.868.19-1.324.491.362.429.743.675 1.129.878.386.191.782.315 1.186.377.405.063.819.068 1.246.005.43-.074.867-.189 1.344-.484M357.5195 101.6387c-2.703-1.141-5.432-2.214-8.174-3.271-2.735-1.079-5.511-2.044-8.277-3.148 2.944.394 5.865 1.003 8.714 1.849 1.441.374 2.834.892 4.25 1.346 1.391.519 2.789 1.03 4.16 1.602 1.953.818 3.88 1.699 5.766 2.657l-.352 1.548c-2.023-.882-4.046-1.756-6.087-2.583" fill="#072433"/>
      <path d="M268.5234 103.7783c-.354-.414-.74-.648-1.134-.84-.395-.181-.803-.294-1.218-.348-.414-.055-.836-.049-1.264.025-.43.086-.863.215-1.31.528.374.419.762.655 1.154.845.392.181.791.293 1.197.344.407.051.82.044 1.246-.032.427-.085.861-.213 1.329-.522M307.0537 117.3516c-2.396-1.769-4.979-3.256-7.621-4.61-2.639-1.368-5.366-2.554-8.14-3.622-1.386-.534-2.798-1.003-4.204-1.482-1.429-.413-2.836-.89-4.287-1.224-2.872-.763-5.809-1.288-8.764-1.595 2.797 1.022 5.599 1.907 8.366 2.908 2.77.977 5.529 1.971 8.263 3.033 2.75 1.022 5.47 2.124 8.197 3.223zM297.7197 143.2158c.396.448.833.718 1.279.946.45.217.912.367 1.387.459.475.093.96.124 1.457.088.499-.046 1.005-.136 1.539-.408-.41-.453-.848-.724-1.292-.951-.447-.217-.905-.365-1.374-.454-.47-.089-.95-.12-1.445-.083-.497.047-1.004.135-1.551.403M251.5576 127.7441c3.043 1.802 6.223 3.345 9.447 4.773 3.222 1.441 6.512 2.719 9.834 3.907 1.664.586 3.344 1.128 5.022 1.673 1.696.487 3.374 1.034 5.09 1.455 3.404.924 6.865 1.655 10.358 2.182-3.314-1.236-6.647-2.329-9.959-3.494-3.313-1.15-6.627-2.287-9.926-3.473-6.619-2.309-13.187-4.735-19.866-7.023M207.2578 156.0957s10.873 7.336 21.137 3.148l1.592-4.905-16.386-7.071z" fill="#6db6c9"/>
      <path d="M215.5483 156.0625c4.013-1.597 8.304-2.183 12.551-2.505 2.127-.174 4.264-.217 6.397-.203l3.198.061 3.196.195c1.065.045 2.127.175 3.188.286 1.061.119 2.125.19 3.184.328l3.172.445c1.058.139 2.114.297 3.162.506 2.1.401 4.216.694 6.299 1.188 2.086.462 4.197.85 6.235 1.45 2.053.55 4.137 1.007 6.135 1.732l3.028.997c1.009.33 1.97.785 2.965 1.154 3.995 1.465 7.742 3.478 11.436 5.565 3.628 2.202 7.078 4.711 10.224 7.585 3.136 2.873 6.035 6.078 8.231 9.797-1.681-4-4.369-7.521-7.321-10.717-3.006-3.164-6.388-5.981-10.035-8.404-7.325-4.817-15.569-8.111-24.017-10.263-8.453-2.055-17.067-3.497-25.789-3.695-4.351-.163-8.722.107-13.032.714-2.154.315-4.289.771-6.384 1.35-2.083.613-4.155 1.335-6.023 2.434" fill="#072433"/>
      <path d="M220.7661 191.7217s1.778-3.367 6.991-5.184M223.876 192.0127s1.778-3.366 6.991-5.183M229.3291 191.5693s1.201-2.273 4.725-3.499M287.46 209.1514s3.028 2.308 3.962 7.749M286.6611 212.1709s3.028 2.308 3.962 7.749M286.2012 217.623s2.045 1.559 2.673 5.235" fill="#fff"/>
      <path d="M208.2324 199.7549c-1.487 6.939-1.053 20.62 9.323 33.624 6.023 7.549 10.352 11.453 28.323 18.439.254.099-24.421-5.058-35.79-22.974-10.742-16.929-1.735-29.652-1.856-29.089" fill="#6db6c9"/>
      <path d="M272.5137 251.4155c.692.152 1.332.116 1.956.028.619-.098 1.215-.273 1.783-.512.569-.24 1.109-.545 1.611-.922.497-.385.967-.82 1.34-1.423-.706-.052-1.324.044-1.924.171-.597.136-1.164.323-1.711.556-.548.233-1.077.511-1.589.844-.509.343-1.01.717-1.466 1.258M210.9253 230.0273c2.804 4.438 6.424 8.395 10.571 11.691 4.14 3.313 8.793 5.972 13.669 8.045 4.874 2.047 9.983 3.695 15.28 4.319 5.273.677 10.679.366 15.755-1.01-5.228.548-10.444.377-15.533-.502-1.274-.204-2.536-.479-3.791-.779-1.258-.287-2.504-.626-3.741-.995-2.463-.768-4.918-1.626-7.311-2.607-4.779-1.982-9.379-4.418-13.578-7.461-4.216-3.014-8.041-6.603-11.321-10.701M233.2788 165.7881c-.692-.153-1.332-.116-1.956-.029-.62.098-1.215.273-1.783.512-.568.24-1.108.546-1.61.922-.497.386-.968.82-1.341 1.423.706.053 1.324-.044 1.925-.171.596-.136 1.163-.322 1.711-.555.548-.234 1.076-.511 1.589-.844.508-.344 1.008-.718 1.465-1.258M294.8672 187.1758c-2.804-4.438-6.424-8.395-10.57-11.691-4.141-3.313-8.793-5.973-13.67-8.045-4.874-2.047-9.983-3.695-15.28-4.319-5.273-.676-10.679-.366-15.754 1.01 5.227-.549 10.443-.377 15.532.502 1.274.203 2.537.479 3.791.778 1.258.288 2.504.626 3.741.996 2.464.768 4.918 1.626 7.312 2.607 4.779 1.982 9.378 4.418 13.577 7.461 4.216 3.013 8.041 6.603 11.321 10.701" fill="#072433"/>
      <path d="M247.5303 228.2754c.693-.777 1.41-1.523 2.195-2.194.375-.353.782-.671 1.169-1.006l1.23-.926c1.676-1.177 3.474-2.167 5.38-2.874 1.891-.735 3.892-1.203 5.928-1.351 2.04-.234 4.092-.003 6.167.213-.501-.136-1.006-.267-1.515-.386-.51-.115-1.015-.28-1.538-.318-1.043-.107-2.093-.248-3.15-.184-1.063-.043-2.105.169-3.156.313-.522.095-1.026.263-1.541.392-.519.12-1.015.305-1.509.501-1.978.758-3.846 1.816-5.473 3.159-1.626 1.337-3.091 2.882-4.187 4.661M198.687 208.0186c.131-1.262.274-2.517.467-3.766.175-1.25.371-2.496.602-3.735.458-2.478.978-4.943 1.623-7.375.613-2.44 1.351-4.848 2.175-7.227.209-.593.403-1.194.625-1.784l.695-1.759c.419-1.194.991-2.321 1.446-3.509-1.295 2.178-2.468 4.446-3.399 6.814-.523 1.163-.891 2.383-1.33 3.578-.366 1.219-.758 2.432-1.062 3.668-.631 2.466-1.134 4.966-1.438 7.491-.315 2.522-.508 5.066-.404 7.604" fill="#fff"/>
      <path d="M250.3682 33.8428c-.857 3.546 37.26 16.128 36.814 17.428-.455 1.332-40.619-11.491-42.5-6.944-.699 1.689 4.664 3.877 4.599 8.343-.088 6.127-11.452 6.694-12.934 14.527-1.549 8.178 6.134 12.859 5.121 22.212-1.173 10.835-15.077 21.725-21.277 19.125-1.292-.542-2.432-1.753-3.41-3.498l10.655-34.438 23.566-57.616c21.353-.382 45.439 20.391 43.766 24.766-2.01 5.256-43.638-7.056-44.4-3.905M219.1807 136.9766c1.047.807.489 4.105-3.809 12.606-4.657 4.269-8.114 6.513-8.114 6.513-39.55-11.632-34.862-75.56-34.862-75.56 1.124-.967 2.743-1.832 4.732-2.607-10.67-23.19 7.168-78.156 7.168-78.156 8.472.478 15.545 1.042 21.472 1.635 1.382 4.346 1.584 8.612-.344 11.912-5.05 8.643-22.266 6.511-22.448 10.069-.169 3.306 14.68 5.6 14.494 8.814-.207 3.564-18.688 4.369-18.763 7.154-.088 3.28 25.479 4.788 25.906 10.234.335 4.274-15.307 4.674-22.94 17.216-2.065 3.392-2.93 8.455-4.66 18.581-2.18 12.754-3.209 19.186-.239 21.843 5.5 4.922 19.859-3.499 20.593-1.537 1.176 3.148-17.231 12.076-15.816 14.961 1.401 2.858 16.203-1.261 16.483-.131.228.921-10.003 1.951-12.029 7.514-2.051 5.628 4.415 15.584 12.225 17.21 9.943 2.071 18.598-10.083 20.951-8.271" fill="#6db6c9"/>
      <path d="M212.792 152.377s-3.333 1.842-8.688.503M210.3506 150.4287s-3.333 1.841-8.688.502M205.5464 147.8105s-2.25 1.243-5.869.336M367.502 262.2017s-3.333 1.841-8.688.502M365.0605 260.2529s-3.333 1.841-8.688.502M360.2559 257.6353s-2.25 1.243-5.869.335" fill="#fff"/>
      <path d="M187.9712 104.6182s-3.639 1.121-8.607-1.285M185.98 102.2109s-3.639 1.121-8.607-1.284M181.8125 98.666s-2.457.757-5.813-.871" fill="#6db6c9"/>
      <path d="M322.3018 347.457l-13.389 26.905s-2.57 5.319-6.772 3.164c-4.201-2.154-2.235-7.444-2.235-7.444l13.479-33.994s-2.721-4.317-1.807-6.776c.913-2.458 10.65-15.882 14.816-16.369 4.166-.487 18.523-5.581 32.584 2.442l-2.076 5.588s6.704 11.393 5.936 16.195c-.766 4.803-6.311 16.987-6.311 16.987l-1.275 21.91s.607 6.584-4.694 7.159c-5.301.573-4.986-6.432-4.986-6.432l.167-18.252z" fill="#e64337"/>
      <path d="M323.79 324.5127c1.048-.412 4.754 3.883 6.216 4.471 1.778.716 2.077 2.349 3.768 4.22 2.071 2.291 3.137 1.519 5.85 3.611 4.322 3.334 5.627 8.389 5.948 9.637.629 2.436.648 4.537.563 5.92 0 0 2.369 1.143 4.638 1.505 2.27.362 2.104.64 2.104.64s-4.3.981-9.551-.434l-16.665-17.079z" fill="#072433"/>
      <path d="M333.873 357.6035s-10.182 3.611-12.128-2.314c-1.945-5.926.501-19.146 3.458-19.573 2.957-.428 7.676.563 6.743 5.812-.933 5.249-.861 9.199-.861 9.199s1.337-.088 2.077-.875" fill="#e64337"/>
      <path d="M333.873 357.6035c-2.179.608-4.443 1.012-6.677.87-1.108-.073-2.218-.295-3.16-.823-.955-.51-1.632-1.397-1.958-2.407-.626-2.102-.689-4.386-.611-6.616.101-2.239.402-4.477.911-6.657.263-1.086.556-2.166.954-3.195.2-.513.426-1.015.697-1.474.268-.452.602-.887.972-1.092.092-.049.177-.075.268-.093l.403-.049c.269-.027.54-.04.811-.041.542-.002 1.085.047 1.613.154 1.049.209 2.061.667 2.733 1.451.691.769.963 1.851.92 2.929-.017.538-.12 1.083-.202 1.655-.082.564-.159 1.129-.224 1.695-.271 2.263-.375 4.542-.319 6.818l.003.09.083-.011c.769-.103 1.548-.381 2.072-.955-.56.535-1.347.733-2.083.794l.086.079c.057-2.262.334-4.515.655-6.749.083-.559.178-1.115.279-1.671.096-.547.226-1.117.266-1.714.091-1.169-.166-2.467-.976-3.433-.802-.971-1.981-1.492-3.135-1.739-.584-.125-1.176-.185-1.769-.189-.296-.002-.591.008-.887.035l-.443.048c-.187.029-.376.091-.534.175-.631.353-.987.878-1.307 1.383-.312.514-.557 1.049-.776 1.589-.432 1.084-.756 2.193-1.003 3.317-.497 2.245-.777 4.527-.856 6.821-.052 2.286.012 4.622.781 6.857.401 1.133 1.24 2.143 2.32 2.669 1.068.544 2.248.744 3.399.761 2.308.006 4.567-.494 6.694-1.282" fill="#072433"/>
      <path d="M352.8311 354.5146s-2.161 1.025-9.505-.432c0 0-.069-4.605.863-9.854.934-5.249-3.786-6.239-6.742-5.812-2.957.428-5.403 13.647-3.458 19.573 1.946 5.925 11.734 2.426 11.734 2.426" fill="#e64337"/>
      <path d="M352.8311 354.5146c-.764.243-1.573.256-2.366.266-.796-.002-1.591-.053-2.383-.139-1.585-.164-3.149-.474-4.709-.794l.192.231c.033-2.261.221-4.535.518-6.78.144-1.134.358-2.217.523-3.376.172-1.169.071-2.468-.582-3.561-.655-1.088-1.797-1.789-2.946-2.117-1.163-.34-2.371-.41-3.559-.267-.128.002-.354.067-.528.126-.158.085-.336.164-.458.277-.281.207-.482.455-.671.703-.372.499-.635 1.037-.878 1.576-.46 1.084-.799 2.197-1.069 3.321-.537 2.249-.846 4.539-.959 6.841-.101 2.297-.011 4.635.638 6.893.305 1.136 1.015 2.236 2.033 2.886 1.015.656 2.2.928 3.354.99 2.322.097 4.602-.395 6.742-1.175-2.186.62-4.473 1.017-6.712.804-1.109-.122-2.209-.418-3.103-1.033-.894-.621-1.475-1.572-1.734-2.639-.557-2.154-.557-4.444-.455-6.687.133-2.251.459-4.498 1.004-6.68.271-1.089.614-2.161 1.053-3.172.228-.5.487-.983.788-1.404.318-.412.644-.763 1.065-.777 1.072-.141 2.186-.085 3.218.207 1.026.284 1.966.869 2.505 1.74 1.147 1.812.179 4.174.052 6.443-.232 2.284-.353 4.569-.317 6.868l.003.197.189.035c1.58.29 3.177.498 4.781.593.802.048 1.607.06 2.41.022.798-.052 1.612-.126 2.361-.418" fill="#072433"/>
      <path d="M313.3848 336.0884s14.388 19.503 20.042 13.508c5.654-5.994.035-9.354-5.08-12.018 0 0-1.72-8.377-4.557-13.066" fill="#e64337"/>
      <path d="M313.3848 336.0884c2.038 2.903 4.272 5.677 6.738 8.247 1.232 1.286 2.527 2.518 3.919 3.649 1.403 1.113 2.914 2.139 4.659 2.773.867.315 1.839.483 2.814.322.979-.141 1.879-.766 2.466-1.471.609-.677 1.184-1.409 1.593-2.258.451-.825.654-1.809.614-2.781-.07-.99-.524-1.885-1.074-2.64-.554-.769-1.273-1.351-1.98-1.923-1.46-1.083-3.042-1.933-4.633-2.724l.173.229c-.534-2.273-1.175-4.503-1.938-6.7-.8-2.178-1.683-4.348-2.946-6.299 1.091 2.046 1.882 4.222 2.542 6.432.672 2.205 1.241 4.45 1.688 6.702l.029.15.144.079c1.546.853 3.089 1.704 4.469 2.749 1.341 1.046 2.572 2.393 2.691 4.008.078 1.61-.886 3.136-2.013 4.404-.542.649-1.182 1.09-1.97 1.227-.774.137-1.616.019-2.412-.262-1.6-.559-3.082-1.531-4.463-2.596-1.395-1.058-2.716-2.229-3.978-3.461-2.516-2.475-4.891-5.108-7.132-7.856" fill="#072433"/>
      <path d="M321.1992 270.4331l52.121-.934-14.343 45.886-32.584-2.442s4.833-15.864-5.194-42.51" fill="#e64337"/>
      <path d="M352.7529 147.8184c-1.927.26-3.877.26-5.811.518-1.927.268-3.836.655-5.713 1.185-1.873.544-3.688 1.274-5.431 2.198l-.096-.147c1.608-1.172 3.393-2.097 5.239-2.882 1.872-.714 3.797-1.286 5.753-1.738 1.956-.417 3.932-.881 5.943-.887.473-.003.948.005 1.422.024l-.011.048-.451.829c.215.217.429.442.644.664-.497.064-.992.126-1.488.188M312.3174 361.917c.727.422 1.408.921 2.065 1.453l-.275.554c-.585-.665-1.191-1.318-1.843-1.937zM310.7373 363.3496l.036-.081c1.044.326 2.111.562 3.152 1.021l-.312.627c-.896-.565-1.92-1.006-2.876-1.567" fill="#072433"/>
      <path d="M300.6113 369.251c-.815 2.392-.039 5.511 1.769 6.054 1.572.473 3.189-1.227 3.407-1.463 2.019-2.18 2.808-6.499 1.378-7.944-1.497-1.514-5.446.103-6.554 3.353M302.0937 365.522s.892-1.166 2.297-1.01M305.3467 375.7158c.447-.205.845-.5 1.214-.826.371-.325.693-.707.97-1.123.261-.426.473-.89.577-1.384.101-.494.086-1.007-.049-1.478-.047.491-.119.951-.276 1.388-.17.432-.372.846-.623 1.237-.504.783-1.135 1.485-1.813 2.186M346.8164 377.3491c.102 2.207 1.729 4.497 3.374 4.361 1.431-.118 2.203-2.018 2.306-2.279.946-2.42.208-6.186-1.418-6.905-1.702-.753-4.399 1.824-4.262 4.823M346.8301 373.8408s.354-1.234 1.547-1.556M352.7354 381.0967c.309-.304.543-.669.744-1.052.203-.383.345-.798.438-1.227.077-.432.1-.881.022-1.318-.081-.436-.264-.85-.534-1.184.108.419.19.815.197 1.219-.005.403-.037.802-.116 1.198-.159.795-.441 1.565-.751 2.364M312.8428 329.5068c.697-2.113 2.783-4.395 5.094-4.328 4.171.12 8.694 7.872 6.887 13.439-.289.892-1.017 3.137-2.751 3.487-3.603.729-11.141-6.806-9.23-12.598M325.0723 350.9253c-1.065-.149-2.092.571-2.212 1.64-.16 1.417.131 2.684.947 3.435.638.586 1.586.682 3.484.874 1.926.194 3.385.342 3.912-.444.516-.771-.135-2.039-.277-2.316-1.11-2.162-3.931-2.92-5.854-3.189M314.916 356.9575c.283-.861-.54-2.209-1.887-2.958-1.785-.994-3.42-1.496-4.444-1.217-.801.217-1.006 1.006-1.417 2.585-.417 1.601-.733 2.815.217 3.757.932.923 2.6 1.104 2.965 1.144 2.843.307 4.054-1.756 4.566-3.311M318.3604 346.146c.325-.831-.274-2.02-1.386-2.6-1.474-.77-2.86-1.093-3.781-.741-.721.275-.971 1.032-1.472 2.546-.508 1.536-.894 2.7-.146 3.496.734.781 2.178.801 2.492.806 2.462.034 3.706-2.006 4.293-3.507M354.5293 361.1143c-.056-.905-1.32-1.853-2.849-2.049-2.026-.262-3.73-.122-4.579.516-.663.498-.561 1.307-.358 2.926.206 1.642.361 2.886 1.593 3.409 1.209.512 2.825.062 3.177-.036 2.756-.767 3.117-3.132 3.016-4.766M337.2295 353.938c-1.046-.143-2.045.597-2.163 1.646-.159 1.417.131 2.685.947 3.436.638.585 1.587.682 3.485.873 1.924.195 3.384.342 3.911-.443.516-.771-.134-2.039-.276-2.316-1.12-2.181-3.98-2.933-5.904-3.196M337.7285 318.2725c-3.728 3.368 2.382 21.75 13.446 24.001.485.099 5.845 1.126 7.818-1.573 3.044-4.165-2.977-15.841-12.252-20.645-2-1.035-6.984-3.616-9.012-1.783" fill="#f1cb50"/>
      <path d="M323.4023 261.8135s14.372 6.85 29.562 8.051l-27.307.489z" fill="#6db6c9"/>
      <path d="M320.3916 351.4653l.373-.777.331-5.781-1.32-1.321s-.524 5.052.616 7.879" fill="#072433"/>
      <path d="M323.9785 319.9111c-.497.278-.457 1.007.071 1.222.802.326 1.704.771 2.633 1.384 2.574 1.698 3.079 3.179 4.146 3.058 1.9-.216 3.864-5.329 2.313-7.127-1.238-1.435-4.869-.94-9.163 1.463M321.1982 270.4331l5.156-.092c.668 14.993 6.381 29.853 6.63 41.55l-6.171-.802c.916-4.895 2.418-19.311-5.615-40.656M187.8301 177.3535l-.512 1.576s-34.391-7.317-8.99-55.493l.702 1.203c-20.131 40.228 2.711 50.709 8.8 52.714" fill="#f1cb50"/>
      <path d="M184.9375 162.6279c-1.087 1.614-2.116 3.283-3.542 4.871.027-1.08.295-2.093.636-3.075.352-.978.817-1.914 1.394-2.79.174-.266.362-.524.557-.777.466.437.912.842 1.329 1.204-.124.188-.249.377-.374.567M175.6128 152.0732c.94-.534 1.946-.825 2.964-1.037.862-.171 1.742-.236 2.626-.233-.065.599-.106 1.191-.126 1.775-1.77-.083-3.56-.138-5.464-.505M182.5342 144.2578c-.051-.031-.102-.062-.152-.093-1.649-1.036-3.349-2.011-4.982-3.386 1.081-.007 2.102.228 3.094.539.895.29 1.753.687 2.572 1.165-.181.572-.36 1.165-.532 1.775M354.7646 369.4551c-1.055-.187-2.124-.331-3.209-.407l-.005-.088c1.08-.177 2.185-.239 3.285-.204.066.002.132.002.198.003-.86-.497-1.74-.966-2.657-1.383l.027-.083c1.074.21 2.131.537 3.15.953.05.02.1.039.149.058l-.077 1.342c-.287-.064-.571-.14-.861-.191M354.7715 354.3281l.007-.087c.579-.019 1.16 0 1.74.045l-.026.455c-.568-.153-1.14-.294-1.721-.413M318.3428 355.4077c-.517-.576-1.048-1.142-1.615-1.682l.053-.07c.633.369 1.232.798 1.814 1.251l-.541 1.087c-.796-.59-1.7-1.047-2.677-1.379l.019-.086c.564.067 1.13.172 1.687.338.434.14.852.33 1.26.541M356.9053 320.9629c-3.984-2.896-10.431-6.825-16.816-7.491 0 0 10.705-.994 18.881 1.931zM328.5488 312.6973c-.77.078-1.527.275-2.294.274.046-.008.095-.023.139-.028 0 0 .185-.616.408-1.793.576.015 1.154.103 1.726.142.896.058 1.789.155 2.676.284.887.146 1.77.283 2.643.504l-.018.175c-.887.06-1.771.109-2.652.199zM364.833 96.667c-1.831-.622-3.557-1.517-5.361-2.235-1.803-.72-3.623-1.404-5.463-2.038-1.829-.671-3.686-1.262-5.54-1.882l.042-.17c1.926.347 3.84.762 5.749 1.21 1.902.469 3.794.992 5.677 1.553 1.874.582 3.8 1.063 5.572 1.94.056.028.113.06.17.088l-.386 1.692c-.153-.053-.308-.104-.46-.158M365.8789 279.6953c.217-.312.343-.603.448-.888.1-.285.165-.561.202-.828.037-.267.043-.525.016-.771-.033-.244-.088-.481-.234-.684-.219.326-.346.618-.451.901-.099.283-.165.553-.2.815-.034.261-.041.514-.012.758.033.242.087.48.231.697M358.1934 306.4624c.941-1.875 1.746-3.802 2.486-5.733.745-1.934 1.403-3.88 2.002-5.828.299-.973.567-1.947.839-2.92.239-.973.511-1.946.711-2.914.448-1.938.778-3.862 1.001-5.747-.577 1.952-1.085 3.875-1.649 5.802-.553 1.925-1.116 3.847-1.71 5.769-.576 1.923-1.191 3.845-1.804 5.771z" fill="#072433"/>
    </g>
    <g clip-path="url(#c)" transform="matrix(.35278 0 0 -.35278 18.258084 217.04566)">
      <path d="M314.5586 454.1587l-8.484-48.875 17.16 5.041 4.065-31.782 10.246 47.263-18.076-4.452z" fill="#f1cb50"/>
    </g>
  </g>
</svg>
