<svg xmlns="http://www.w3.org/2000/svg" width="700.6806" height="452.22021" viewBox="0 0 185.3884 119.64993">
  <defs>
    <clipPath id="o" clipPathUnits="userSpaceOnUse">
      <path d="M0 1218.898h870.236V0H0z"/>
    </clipPath>
    <clipPath id="p" clipPathUnits="userSpaceOnUse">
      <path d="M0 500h750V0H0z"/>
    </clipPath>
    <clipPath id="q" clipPathUnits="userSpaceOnUse">
      <path d="M429.212 293.229h9.824v-93.803h-9.824z"/>
    </clipPath>
    <clipPath id="r" clipPathUnits="userSpaceOnUse">
      <path d="M422.069 293.229h7.144v-94.547h-7.144z"/>
    </clipPath>
    <clipPath id="s" clipPathUnits="userSpaceOnUse">
      <path d="M419.884 293.229h19.152v-94.708h-19.152z"/>
    </clipPath>
    <clipPath id="t" clipPathUnits="userSpaceOnUse">
      <path d="M421.266 198.521c-2.922 45.522-.356 77.476 0 79.632.619 3.747 5.134 15.076 7.943 15.076 2.809 0 7.324-11.329 7.943-15.076.356-2.156 2.248-29.672 1.821-78.331z"/>
    </clipPath>
    <clipPath id="w" clipPathUnits="userSpaceOnUse">
      <path d="M484.514 293.229h9.824v-93.803h-9.824z"/>
    </clipPath>
    <clipPath id="x" clipPathUnits="userSpaceOnUse">
      <path d="M494.337 293.229h7.144v-94.547h-7.144z"/>
    </clipPath>
    <clipPath id="y" clipPathUnits="userSpaceOnUse">
      <path d="M484.514 293.229h19.151v-94.708h-19.151z"/>
    </clipPath>
    <clipPath id="z" clipPathUnits="userSpaceOnUse">
      <path d="M502.284 198.521c2.922 45.522.356 77.476 0 79.632-.619 3.747-5.134 15.076-7.943 15.076-2.809 0-7.324-11.329-7.943-15.076-.356-2.156-2.248-29.672-1.822-78.331z"/>
    </clipPath>
    <clipPath id="D" clipPathUnits="userSpaceOnUse">
      <path d="M0 500h750V0H0z"/>
    </clipPath>
    <clipPath id="E" clipPathUnits="userSpaceOnUse">
      <path d="M448.32 172.03h28.363v-30.21H448.32z"/>
    </clipPath>
    <clipPath id="F" clipPathUnits="userSpaceOnUse">
      <path d="M461.775 172.03h11.242v-30.21h-11.242z"/>
    </clipPath>
    <clipPath id="G" clipPathUnits="userSpaceOnUse">
      <path d="M473.017 143.409c-2.63-.878-6.288-1.589-11.242-1.589v30.21h7.759z"/>
    </clipPath>
    <clipPath id="J" clipPathUnits="userSpaceOnUse">
      <path d="M461.775 340.53h21.66V235.66h-21.66z"/>
    </clipPath>
    <clipPath id="K" clipPathUnits="userSpaceOnUse">
      <path d="M444.47 339.228h14.426V216.172H444.47z"/>
    </clipPath>
    <clipPath id="L" clipPathUnits="userSpaceOnUse">
      <path d="M439.884 340.53h43.551V235.522h-43.551z"/>
    </clipPath>
    <clipPath id="M" clipPathUnits="userSpaceOnUse">
      <path d="M482.024 308.486c-3.196 12.349-14.859 32.044-20.249 32.044-5.39 0-17.053-19.695-20.249-32.044-1.992-7.695-2.377-43.206 0-72.964l20.249.405 19.782-.267c2.377 29.758 2.459 65.131.467 72.826"/>
    </clipPath>
    <clipPath id="P" clipPathUnits="userSpaceOnUse">
      <path d="M442.308 173.094h12.057v-21.48h-12.057z"/>
    </clipPath>
    <clipPath id="Q" clipPathUnits="userSpaceOnUse">
      <path d="M448.687 172.25h10.209v-20.638h-10.209z"/>
    </clipPath>
    <clipPath id="R" clipPathUnits="userSpaceOnUse">
      <path d="M466.106 172.098h14.98v-20.484h-14.98z"/>
    </clipPath>
    <clipPath id="S" clipPathUnits="userSpaceOnUse">
      <path d="M470.709 173.498h11.624v-20.885h-11.624z"/>
    </clipPath>
    <clipPath id="T" clipPathUnits="userSpaceOnUse">
      <path d="M396.294 233.023h46.014v-60.119h-46.014z"/>
    </clipPath>
    <clipPath id="U" clipPathUnits="userSpaceOnUse">
      <path d="M400.659 219.122h45.392v-45.624h-45.392z"/>
    </clipPath>
    <clipPath id="V" clipPathUnits="userSpaceOnUse">
      <path d="M396.272 233.023h49.779v-60.119h-49.779z"/>
    </clipPath>
    <clipPath id="W" clipPathUnits="userSpaceOnUse">
      <path d="M441.658 233.023c.305-5.029-.915-15.836-5.769-22.479-4.456-6.097-13.219-11.41-24.877-16.801-10.42-4.819-15.108-11.332-14.718-20.839l49.757 6.76z"/>
    </clipPath>
    <clipPath id="Z" clipPathUnits="userSpaceOnUse">
      <path d="M425.284 178.459h11.897v-7.522h-11.897z"/>
    </clipPath>
    <clipPath id="aa" clipPathUnits="userSpaceOnUse">
      <path d="M403.905 178.459h33.276v-9.737h-33.276z"/>
    </clipPath>
    <clipPath id="ab" clipPathUnits="userSpaceOnUse">
      <path d="M409.444 168.762l23.582 3.204c1.943.264 3.476 1.785 3.756 3.726l.399 2.767-33.276-4.521.805-2.284c.693-1.965 2.67-3.172 4.734-2.892"/>
    </clipPath>
    <clipPath id="ae" clipPathUnits="userSpaceOnUse">
      <path d="M409.763 175.324h5.427v-6.189h-5.427z"/>
    </clipPath>
    <clipPath id="af" clipPathUnits="userSpaceOnUse">
      <path d="M413.065 169.584h15.319v-5.463h-15.319z"/>
    </clipPath>
    <clipPath id="ag" clipPathUnits="userSpaceOnUse">
      <path d="M427.026 171.725h4.22v-5.974h-4.22z"/>
    </clipPath>
    <clipPath id="ah" clipPathUnits="userSpaceOnUse">
      <path d="M430.552 167.999c-.202-1.083-1.076-1.915-2.168-2.063l-1.358-.185.39 5.453 3.83.521z"/>
    </clipPath>
    <clipPath id="ak" clipPathUnits="userSpaceOnUse">
      <path d="M480.768 233.023h46.014v-60.119h-46.014z"/>
    </clipPath>
    <clipPath id="al" clipPathUnits="userSpaceOnUse">
      <path d="M477.025 219.122h45.392v-45.624h-45.392z"/>
    </clipPath>
    <clipPath id="am" clipPathUnits="userSpaceOnUse">
      <path d="M477.025 233.023h49.779v-60.119h-49.779z"/>
    </clipPath>
    <clipPath id="an" clipPathUnits="userSpaceOnUse">
      <path d="M481.418 233.023c-.305-5.029.915-15.836 5.769-22.479 4.456-6.097 13.219-11.41 24.877-16.801 10.42-4.819 15.108-11.332 14.718-20.839l-49.757 6.76z"/>
    </clipPath>
    <clipPath id="aq" clipPathUnits="userSpaceOnUse">
      <path d="M494.692 169.584h15.32v-5.463h-15.32z"/>
    </clipPath>
    <clipPath id="ar" clipPathUnits="userSpaceOnUse">
      <path d="M491.83 171.725h4.22v-5.974h-4.22z"/>
    </clipPath>
    <clipPath id="as" clipPathUnits="userSpaceOnUse">
      <path d="M492.525 167.999c.202-1.083 1.075-1.915 2.167-2.063l1.358-.185-.39 5.453-3.83.521z"/>
    </clipPath>
    <clipPath id="av" clipPathUnits="userSpaceOnUse">
      <path d="M485.895 178.459h11.897v-7.522h-11.897z"/>
    </clipPath>
    <clipPath id="aw" clipPathUnits="userSpaceOnUse">
      <path d="M485.895 178.459h33.276v-9.737h-33.276z"/>
    </clipPath>
    <clipPath id="ax" clipPathUnits="userSpaceOnUse">
      <path d="M513.632 168.762l-23.582 3.204c-1.943.264-3.476 1.785-3.756 3.726l-.399 2.767 33.276-4.521-.805-2.284c-.693-1.965-2.67-3.172-4.734-2.892"/>
    </clipPath>
    <clipPath id="aA" clipPathUnits="userSpaceOnUse">
      <path d="M507.887 175.324h5.426v-6.189h-5.426z"/>
    </clipPath>
    <clipPath id="aC" clipPathUnits="userSpaceOnUse">
      <path d="M0 500h750V0H0z"/>
    </clipPath>
    <clipPath id="aE" clipPathUnits="userSpaceOnUse">
      <path d="M0 500h750V0H0z"/>
    </clipPath>
    <clipPath id="aF" clipPathUnits="userSpaceOnUse">
      <path d="M461.538 282.434h20.279V171.698h-20.279z"/>
    </clipPath>
    <clipPath id="aG" clipPathUnits="userSpaceOnUse">
      <path d="M446.297 282.434h15.241V171.483h-15.241z"/>
    </clipPath>
    <clipPath id="aH" clipPathUnits="userSpaceOnUse">
      <path d="M460.921 260.699h8.565v-4.674h-8.565z"/>
    </clipPath>
    <clipPath id="aI" clipPathUnits="userSpaceOnUse">
      <path d="M453.532 260.948h8.629v-5.44h-8.629z"/>
    </clipPath>
    <clipPath id="aJ" clipPathUnits="userSpaceOnUse">
      <path d="M461.775 198.521h10.942v-27.16h-10.942z"/>
    </clipPath>
    <clipPath id="aK" clipPathUnits="userSpaceOnUse">
      <path d="M454.764 198.521h7.011v-27.255h-7.011z"/>
    </clipPath>
    <clipPath id="aL" clipPathUnits="userSpaceOnUse">
      <path d="M0 500h750V0H0z"/>
    </clipPath>
    <clipPath id="aM" clipPathUnits="userSpaceOnUse">
      <path d="M108.994 306.966h525.229V72.7115H108.994z"/>
    </clipPath>
    <clipPath id="aN" clipPathUnits="userSpaceOnUse">
      <path d="M631.434 253.046c-11.741 0-21.269-9.527-21.269-21.268 0-3.759.982-7.29 2.693-10.354-.107.012-.215.024-.311.024-5.099 0-9.24-4.033-9.455-9.084-2.25 1.927-5.171 3.088-8.354 3.088-7.146 0-12.939-5.793-12.939-12.938 0-.132.012-.252.024-.383-1.292.239-2.633.383-3.997.383-11.742 0-21.269-9.528-21.269-21.269 0-10.377 7.421-18.995 17.247-20.886-.503-1.915-.79-3.913-.79-5.972 0-11.119 7.624-20.431 17.929-23.04-2.417-1.999-3.949-5.015-3.949-8.39 0-.347.024-.683.06-1.018-.383.024-.766.048-1.149.048-3.364 0-6.416-1.292-8.714-3.399-3.638 10.054-13.261 17.235-24.56 17.235-14.41 0-26.104-11.681-26.104-26.104 0-2.729.431-5.362 1.209-7.839-2.047-.419-3.902-1.329-5.47-2.586-4.548 6.775-12.268 11.239-21.029 11.239-13.98 0-25.302-11.334-25.302-25.302 0-.982.072-1.951.179-2.897-2.286 2.047-5.302 3.316-8.617 3.316-5.398 0-10.018-3.304-11.957-7.995-1.939 4.691-6.559 7.995-11.945 7.995-2.645 0-5.099-.802-7.145-2.167 0 .156.012.312.012.455 0 16.338-13.25 29.587-29.587 29.587-5.602 0-10.844-1.556-15.309-4.273-2.166 9.025-10.269 15.739-19.952 15.739-5.876 0-11.155-2.477-14.901-6.415-2.25 2.071-5.23 3.351-8.522 3.411 1.329 3.316 2.059 6.93 2.059 10.724 0 16.003-12.962 28.977-28.965 28.977-6.223 0-11.992-1.975-16.72-5.314-2.502 3.327-5.973 5.888-10.018 7.205 4.907 5.326 7.911 12.436 7.911 20.239 0 16.493-13.369 29.851-29.85 29.851-1.472 0-2.908-.108-4.321-.312.635 2.454.97 5.039.97 7.696 0 16.96-13.74 30.701-30.7 30.701-9.563 0-18.097-4.369-23.723-11.227-3.758 4.979-9.694 8.198-16.397 8.198-3.471 0-6.726-.861-9.599-2.381.012.371.036.742.036 1.113 0 19.281-15.631 34.913-34.925 34.913-5.745 0-11.167-1.401-15.943-3.854 1.006 2.429 1.58 5.099 1.58 7.899 0 11.347-9.204 20.551-20.55 20.551-3.651 0-7.074-.946-10.042-2.633V72.712H634.223v180.131c-.922.119-1.843.203-2.789.203"/>
    </clipPath>
    <clipPath id="aQ" clipPathUnits="userSpaceOnUse">
      <path d="M351.483 183.893h10.869v-10.869h-10.869z"/>
    </clipPath>
    <linearGradient id="a" spreadMethod="pad" gradientTransform="scale(95.13783 -95.13783) rotate(88.922463 3.82316008 .7506051)" gradientUnits="userSpaceOnUse" y2="0" x2="1" y1="0" x1="0">
      <stop offset="0" stop-opacity="0" stop-color="#fff"/>
      <stop offset="1" stop-color="#fff"/>
    </linearGradient>
    <linearGradient id="v" spreadMethod="pad" gradientTransform="scale(95.13783 -95.13783) rotate(88.922463 3.82316008 .7506051)" gradientUnits="userSpaceOnUse" y2="0" x2="1" y1="0" x1="0">
      <stop offset="0" stop-color="#71a6ea"/>
      <stop offset="1" stop-color="#364971"/>
    </linearGradient>
    <linearGradient id="b" spreadMethod="pad" gradientTransform="matrix(-1.78911 -95.12101 95.12101 -1.78911 495.26428 293.59482)" gradientUnits="userSpaceOnUse" y2="0" x2="1" y1="0" x1="0">
      <stop offset="0" stop-opacity="0" stop-color="#fff"/>
      <stop offset="1" stop-color="#fff"/>
    </linearGradient>
    <linearGradient id="B" spreadMethod="pad" gradientTransform="matrix(-1.78911 -95.12101 95.12101 -1.78911 495.26428 293.59482)" gradientUnits="userSpaceOnUse" y2="0" x2="1" y1="0" x1="0">
      <stop offset="0" stop-color="#71a6ea"/>
      <stop offset="1" stop-color="#364971"/>
    </linearGradient>
    <linearGradient id="C" spreadMethod="pad" gradientTransform="matrix(0 78.13035 78.13035 0 461.77481 72.711502)" gradientUnits="userSpaceOnUse" y2="0" x2="1" y1="0" x1="0">
      <stop offset="0" stop-color="#ee7249"/>
      <stop offset=".26303468" stop-color="#f8b272"/>
      <stop offset="1" stop-color="#f8b272"/>
    </linearGradient>
    <linearGradient id="c" spreadMethod="pad" gradientTransform="matrix(-.12889 29.1288 29.1288 .12889 467.39871 141.99875)" gradientUnits="userSpaceOnUse" y2="0" x2="1" y1="0" x1="0">
      <stop offset="0" stop-opacity="0" stop-color="#fff"/>
      <stop offset="1" stop-color="#fff"/>
    </linearGradient>
    <linearGradient id="I" spreadMethod="pad" gradientTransform="matrix(-.12889 29.1288 29.1288 .12889 467.39871 141.99875)" gradientUnits="userSpaceOnUse" y2="0" x2="1" y1="0" x1="0">
      <stop offset="0" stop-color="#71a6ea"/>
      <stop offset="1" stop-color="#364971"/>
    </linearGradient>
    <linearGradient id="d" spreadMethod="pad" gradientTransform="matrix(0 -104.14366 -104.14366 0 461.65979 340.26932)" gradientUnits="userSpaceOnUse" y2="0" x2="1" y1="0" x1="0">
      <stop offset="0" stop-opacity="0" stop-color="#fff"/>
      <stop offset=".27957" stop-opacity="0" stop-color="#fff"/>
      <stop offset="1" stop-color="#fff"/>
    </linearGradient>
    <linearGradient id="O" spreadMethod="pad" gradientTransform="matrix(0 -104.14366 -104.14366 0 461.65979 340.26932)" gradientUnits="userSpaceOnUse" y2="0" x2="1" y1="0" x1="0">
      <stop offset="0" stop-color="#fdd095"/>
      <stop offset=".27957" stop-color="#e67686"/>
      <stop offset="1" stop-color="#a53563"/>
    </linearGradient>
    <linearGradient id="e" spreadMethod="pad" gradientTransform="matrix(36.81993 -18.16318 18.16318 36.81993 413.1243 205.84973)" gradientUnits="userSpaceOnUse" y2="0" x2="1" y1="0" x1="0">
      <stop offset="0" stop-opacity="0" stop-color="#fff"/>
      <stop offset="1" stop-color="#fff"/>
    </linearGradient>
    <linearGradient id="Y" spreadMethod="pad" gradientTransform="matrix(36.81993 -18.16318 18.16318 36.81993 413.1243 205.84973)" gradientUnits="userSpaceOnUse" y2="0" x2="1" y1="0" x1="0">
      <stop offset="0" stop-color="#71a6ea"/>
      <stop offset="1" stop-color="#364971"/>
    </linearGradient>
    <linearGradient id="f" spreadMethod="pad" gradientTransform="rotate(98.392926 137.78733987 266.54071082) scale(10.02613)" gradientUnits="userSpaceOnUse" y2="0" x2="1" y1="0" x1="0">
      <stop offset="0" stop-opacity="0" stop-color="#fff"/>
      <stop offset="1" stop-color="#fff"/>
    </linearGradient>
    <linearGradient id="ad" spreadMethod="pad" gradientTransform="rotate(98.392926 137.78733987 266.54071082) scale(10.02613)" gradientUnits="userSpaceOnUse" y2="0" x2="1" y1="0" x1="0">
      <stop offset="0" stop-color="#71a6ea"/>
      <stop offset="1" stop-color="#364971"/>
    </linearGradient>
    <linearGradient id="g" spreadMethod="pad" gradientTransform="rotate(80.134189 115.5359106 337.6245756) scale(5.55752)" gradientUnits="userSpaceOnUse" y2="0" x2="1" y1="0" x1="0">
      <stop offset="0" stop-opacity="0" stop-color="#fff"/>
      <stop offset="1" stop-color="#fff"/>
    </linearGradient>
    <linearGradient id="aj" spreadMethod="pad" gradientTransform="rotate(80.134189 115.5359106 337.6245756) scale(5.55752)" gradientUnits="userSpaceOnUse" y2="0" x2="1" y1="0" x1="0">
      <stop offset="0" stop-color="#71a6ea"/>
      <stop offset="1" stop-color="#364971"/>
    </linearGradient>
    <linearGradient id="h" spreadMethod="pad" gradientTransform="scale(-41.05616 41.05616) rotate(-26.257012 4.5382387 29.13458576)" gradientUnits="userSpaceOnUse" y2="0" x2="1" y1="0" x1="0">
      <stop offset="0" stop-opacity="0" stop-color="#fff"/>
      <stop offset="1" stop-color="#fff"/>
    </linearGradient>
    <linearGradient id="ap" spreadMethod="pad" gradientTransform="scale(-41.05616 41.05616) rotate(-26.257012 4.5382387 29.13458576)" gradientUnits="userSpaceOnUse" y2="0" x2="1" y1="0" x1="0">
      <stop offset="0" stop-color="#71a6ea"/>
      <stop offset="1" stop-color="#364971"/>
    </linearGradient>
    <linearGradient id="i" spreadMethod="pad" gradientTransform="matrix(-.95223 5.47534 5.47534 .95223 494.70444 165.94818)" gradientUnits="userSpaceOnUse" y2="0" x2="1" y1="0" x1="0">
      <stop offset="0" stop-opacity="0" stop-color="#fff"/>
      <stop offset="1" stop-color="#fff"/>
    </linearGradient>
    <linearGradient id="au" spreadMethod="pad" gradientTransform="matrix(-.95223 5.47534 5.47534 .95223 494.70444 165.94818)" gradientUnits="userSpaceOnUse" y2="0" x2="1" y1="0" x1="0">
      <stop offset="0" stop-color="#71a6ea"/>
      <stop offset="1" stop-color="#364971"/>
    </linearGradient>
    <linearGradient id="j" spreadMethod="pad" gradientTransform="matrix(1.46342 9.91875 9.91875 -1.46342 501.491 169.13353)" gradientUnits="userSpaceOnUse" y2="0" x2="1" y1="0" x1="0">
      <stop offset="0" stop-opacity="0" stop-color="#fff"/>
      <stop offset="1" stop-color="#fff"/>
    </linearGradient>
    <linearGradient id="az" spreadMethod="pad" gradientTransform="matrix(1.46342 9.91875 9.91875 -1.46342 501.491 169.13353)" gradientUnits="userSpaceOnUse" y2="0" x2="1" y1="0" x1="0">
      <stop offset="0" stop-color="#71a6ea"/>
      <stop offset="1" stop-color="#364971"/>
    </linearGradient>
    <linearGradient id="aB" spreadMethod="pad" gradientTransform="matrix(0 93.22439 93.22439 0 422.12637 72.711502)" gradientUnits="userSpaceOnUse" y2="0" x2="1" y1="0" x1="0">
      <stop offset="0" stop-color="#ee7249"/>
      <stop offset=".26303468" stop-color="#f8b272"/>
      <stop offset="1" stop-color="#f8b272"/>
    </linearGradient>
    <linearGradient id="aD" spreadMethod="pad" gradientTransform="matrix(0 93.22439 93.22439 0 500.94971 72.711502)" gradientUnits="userSpaceOnUse" y2="0" x2="1" y1="0" x1="0">
      <stop offset="0" stop-color="#ee7249"/>
      <stop offset=".26303468" stop-color="#f8b272"/>
      <stop offset="1" stop-color="#f8b272"/>
    </linearGradient>
    <mask id="u" height="1" width="1" y="0" x="0" maskUnits="userSpaceOnUse">
      <path d="M-32768 32767h65535v-65535h-65535z" fill="url(#a)"/>
    </mask>
    <mask id="A" height="1" width="1" y="0" x="0" maskUnits="userSpaceOnUse">
      <path d="M-32768 32767h65535v-65535h-65535z" fill="url(#b)"/>
    </mask>
    <mask id="H" height="1" width="1" y="0" x="0" maskUnits="userSpaceOnUse">
      <path d="M-32768 32767h65535v-65535h-65535z" fill="url(#c)"/>
    </mask>
    <mask id="N" height="1" width="1" y="0" x="0" maskUnits="userSpaceOnUse">
      <path d="M-32768 32767h65535v-65535h-65535z" fill="url(#d)"/>
    </mask>
    <mask id="X" height="1" width="1" y="0" x="0" maskUnits="userSpaceOnUse">
      <path d="M-32768 32767h65535v-65535h-65535z" fill="url(#e)"/>
    </mask>
    <mask id="ac" height="1" width="1" y="0" x="0" maskUnits="userSpaceOnUse">
      <path d="M-32768 32767h65535v-65535h-65535z" fill="url(#f)"/>
    </mask>
    <mask id="ai" height="1" width="1" y="0" x="0" maskUnits="userSpaceOnUse">
      <path d="M-32768 32767h65535v-65535h-65535z" fill="url(#g)"/>
    </mask>
    <mask id="ao" height="1" width="1" y="0" x="0" maskUnits="userSpaceOnUse">
      <path d="M-32768 32767h65535v-65535h-65535z" fill="url(#h)"/>
    </mask>
    <mask id="at" height="1" width="1" y="0" x="0" maskUnits="userSpaceOnUse">
      <path d="M-32768 32767h65535v-65535h-65535z" fill="url(#i)"/>
    </mask>
    <mask id="ay" height="1" width="1" y="0" x="0" maskUnits="userSpaceOnUse">
      <path d="M-32768 32767h65535v-65535h-65535z" fill="url(#j)"/>
    </mask>
    <mask id="aO" height="1" width="1" y="0" x="0" maskUnits="userSpaceOnUse">
      <path d="M-32768 32767h65535v-65535h-65535z" fill="url(#m)"/>
    </mask>
    <radialGradient id="k" spreadMethod="pad" gradientTransform="matrix(21.89142 198.17497 198.17497 -21.89142 459.96622 119.77365)" gradientUnits="userSpaceOnUse" r="1" cy="0" cx="0" fy="0" fx="0">
      <stop offset="0" stop-color="#fff"/>
      <stop offset=".00493853" stop-color="#fff"/>
      <stop offset=".994624" stop-opacity="0" stop-color="#fff"/>
      <stop offset="1" stop-opacity="0" stop-color="#fff"/>
    </radialGradient>
    <radialGradient id="n" spreadMethod="pad" gradientTransform="scale(211.2127 -211.2127) rotate(45 2.25206415 2.1849096)" gradientUnits="userSpaceOnUse" r="1" cy="0" cx="0" fy="0" fx="0">
      <stop offset="0" stop-color="#803e67"/>
      <stop offset=".44086" stop-color="#3e3063"/>
      <stop offset=".44358286" stop-color="#3e3063"/>
      <stop offset=".989247" stop-color="#181743"/>
      <stop offset="1" stop-color="#181743"/>
    </radialGradient>
    <radialGradient id="l" spreadMethod="pad" gradientTransform="matrix(21.89142 198.17497 198.17497 -21.89142 459.96622 119.77365)" gradientUnits="userSpaceOnUse" r="1" cy="0" cx="0" fy="0" fx="0">
      <stop offset="0" stop-color="#fff"/>
      <stop offset=".00493853" stop-color="#fff"/>
      <stop offset=".994624" stop-opacity="0" stop-color="#fff"/>
      <stop offset="1" stop-opacity="0" stop-color="#fff"/>
    </radialGradient>
    <radialGradient id="m" spreadMethod="pad" gradientTransform="matrix(21.89142 198.17497 198.17497 -21.89142 459.96622 119.77365)" gradientUnits="userSpaceOnUse" r="1" cy="0" cx="0" fy="0" fx="0">
      <stop offset="0" stop-color="#fff"/>
      <stop offset=".00493853" stop-color="#fff"/>
      <stop offset=".994624" stop-opacity="0" stop-color="#fff"/>
      <stop offset="1" stop-opacity="0" stop-color="#fff"/>
    </radialGradient>
    <radialGradient id="aP" spreadMethod="pad" gradientTransform="matrix(21.89142 198.17497 198.17497 -21.89142 459.96622 119.77365)" gradientUnits="userSpaceOnUse" r="1" cy="0" cx="0" fy="0" fx="0">
      <stop offset="0" stop-color="#d37575"/>
      <stop offset=".00493853" stop-color="#d37575"/>
      <stop offset=".994624" stop-color="#58448b"/>
      <stop offset="1" stop-color="#58448b"/>
    </radialGradient>
  </defs>
  <g clip-path="url(#aL)" transform="matrix(.35278 0 0 -.35278 -38.29150975 146.17730355)">
    <path d="M631.4341 253.0461c-11.741 0-21.269-9.527-21.269-21.269 0-3.758.982-7.289 2.693-10.353-.107.012-.215.024-.311.024-5.099 0-9.24-4.033-9.455-9.084-2.25 1.927-5.171 3.088-8.355 3.088-7.145 0-12.938-5.793-12.938-12.938 0-.132.012-.252.024-.383-1.293.239-2.633.383-3.998.383-11.741 0-21.268-9.528-21.268-21.269 0-10.377 7.421-18.995 17.247-20.886-.503-1.915-.79-3.914-.79-5.972 0-11.119 7.624-20.431 17.929-23.04-2.417-1.999-3.949-5.015-3.949-8.39 0-.347.024-.683.06-1.018-.384.024-.767.048-1.15.048-3.363 0-6.415-1.292-8.713-3.399-3.638 10.054-13.261 17.235-24.56 17.235-14.41 0-26.104-11.681-26.104-26.104 0-2.729.431-5.362 1.209-7.84-2.047-.418-3.902-1.328-5.47-2.585-4.548 6.775-12.268 11.239-21.029 11.239-13.98 0-25.302-11.335-25.302-25.302 0-.982.072-1.951.179-2.897-2.286 2.047-5.302 3.316-8.617 3.316-5.398 0-10.018-3.304-11.957-7.995-1.939 4.691-6.559 7.995-11.945 7.995-2.645 0-5.099-.802-7.146-2.167 0 .156.012.312.012.455 0 16.338-13.249 29.587-29.587 29.587-5.601 0-10.843-1.556-15.308-4.273-2.166 9.025-10.269 15.739-19.952 15.739-5.876 0-11.155-2.477-14.901-6.415-2.25 2.071-5.23 3.351-8.522 3.411 1.329 3.316 2.059 6.93 2.059 10.724 0 16.003-12.962 28.977-28.965 28.977-6.224 0-11.993-1.975-16.72-5.314-2.502 3.327-5.973 5.888-10.018 7.205 4.907 5.326 7.911 12.436 7.911 20.239 0 16.493-13.369 29.851-29.85 29.851-1.472 0-2.909-.108-4.321-.312.635 2.454.97 5.039.97 7.696 0 16.96-13.741 30.7-30.7 30.7-9.564 0-18.097-4.368-23.723-11.226-3.758 4.979-9.694 8.198-16.397 8.198-3.471 0-6.727-.861-9.599-2.382.012.372.036.743.036 1.114 0 19.281-15.631 34.913-34.925 34.913-5.745 0-11.167-1.401-15.943-3.854 1.006 2.429 1.58 5.098 1.58 7.899 0 11.347-9.204 20.551-20.55 20.551-3.651 0-7.074-.946-10.042-2.633V72.7111H634.2231v180.132c-.922.119-1.844.203-2.789.203" fill="#58448b"/>
    <path d="M516.5092 72.7115h-27.385c0 7.564 6.128 13.692 13.693 13.692 7.564 0 13.692-6.128 13.692-13.692M347.8203 72.7115h-35.021c0 9.671 7.84 17.51 17.511 17.51 9.67 0 17.51-7.839 17.51-17.51M424.9355 72.7115h-50.951c-1.485 2.011-2.37 4.488-2.37 7.181 0 6.655 5.386 12.053 12.052 12.053 6.559 0 11.874-5.242 12.041-11.765 3.172 3.195 7.552 5.17 12.412 5.17 7.983 0 14.709-5.338 16.816-12.639M634.2228 116.9723v-44.261h-96.421c4.859 8.953 14.339 15.021 25.242 15.021 4.967 0 9.647-1.269 13.728-3.495 1.808 5.219 6.751 8.989 12.592 8.989 1.28 0 2.501-.192 3.674-.527.814 15.129 13.333 27.134 28.666 27.134 4.488 0 8.737-1.03 12.519-2.861M634.2228 192.4598v-60.395c-.586-.06-1.185-.084-1.783-.084-10.665 0-19.318 8.654-19.318 19.318 0 7.469 4.249 13.932 10.461 17.152-2.957 2.513-4.836 6.247-4.836 10.436 0 7.565 6.128 13.693 13.693 13.693.61 0 1.197-.036 1.783-.12M280.0048 99.4858c-3.435 0-6.679-.85-9.539-2.322.526 1.472.826 3.04.826 4.692 0 7.672-6.212 13.884-13.884 13.884-4.5 0-8.498-2.155-11.036-5.482-.107 7.863-6.511 14.207-14.398 14.207-3.004 0-5.793-.922-8.091-2.501.239 1.34.383 2.704.383 4.105 0 12.304-9.97 22.274-22.274 22.274-8.175 0-15.296-4.417-19.174-10.964.012.156.024.3.024.467 0 7.624-5.937 13.848-13.429 14.351 6.954 2.322 11.993 8.869 11.993 16.613 0 9.67-7.852 17.51-17.523 17.51-2.765 0-5.362-.658-7.684-1.795 1.101 2.764 1.736 5.769 1.736 8.928 0 13.238-10.736 23.974-23.974 23.974-4.704 0-9.084-1.376-12.783-3.71-2.094 2.669-5.134 4.56-8.629 5.146 3.243 3.172 5.266 7.601 5.266 12.496 0 6.511-3.555 12.184-8.821 15.2V72.7118h191.071v.012c.562 1.855.85 3.83.85 5.864 0 11.538-9.36 20.898-20.91 20.898" fill="#48376d"/>
    <path d="M238.9277 72.7115h-43.914c2.753 9.539 11.538 16.505 21.963 16.505 10.413 0 19.198-6.966 21.951-16.505M182.7699 83.4117c0-3.77-.694-7.373-1.951-10.7h-71.825v95.092c14.913-3.159 26.104-16.421 26.104-32.28 0-3.973-.694-7.779-1.987-11.31.024 0 .036.012.06.012 6.559 0 11.969-4.931 12.759-11.275 2.118.467 4.321.718 6.583.718 16.708 0 30.257-13.548 30.257-30.257M634.2228 103.4592c-.487.042-.976.074-1.473.074-9.461 0-17.13-7.669-17.13-17.129 0-.103.014-.203.015-.305-.808.192-1.646.305-2.513.305-5.983 0-10.832-4.85-10.832-10.833 0-.966.138-1.898.376-2.789l31.557-.071z" fill="#3e3063"/>
    <path d="M245.1767 191.6994c0 5.205 4.219 9.424 9.424 9.424 5.205 0 9.425-4.219 9.425-9.424 0-5.205-4.22-9.424-9.425-9.424-5.205 0-9.424 4.219-9.424 9.424M595.3171 188.4584c0 3.851 3.122 6.972 6.972 6.972 3.851 0 6.973-3.121 6.973-6.972 0-3.851-3.122-6.972-6.973-6.972-3.85 0-6.972 3.121-6.972 6.972M236.9342 143.3988c0 3.642 2.953 6.595 6.595 6.595 3.643 0 6.595-2.953 6.595-6.595s-2.952-6.595-6.595-6.595c-3.642 0-6.595 2.953-6.595 6.595M281.6016 115.9021c0 2.434 1.973 4.407 4.407 4.407s4.408-1.973 4.408-4.407-1.974-4.407-4.408-4.407-4.407 1.973-4.407 4.407M360.4529 89.2149c0 2.434 1.973 4.407 4.407 4.407s4.408-1.973 4.408-4.407-1.974-4.407-4.408-4.407-4.407 1.973-4.407 4.407M527.8439 82.3285c0 2.434 1.973 4.407 4.407 4.407s4.408-1.973 4.408-4.407-1.974-4.407-4.408-4.407-4.407 1.973-4.407 4.407M182.1378 155.2279c0 2.434 1.973 4.407 4.407 4.407s4.408-1.973 4.408-4.407-1.974-4.407-4.408-4.407-4.407 1.973-4.407 4.407M272.6 185.1849c0 2.486 2.015 4.501 4.501 4.501s4.501-2.015 4.501-4.501-2.015-4.501-4.501-4.501-4.501 2.015-4.501 4.501" fill="#48376d"/>
    <path d="M586.0123 229.3975c0 3.459 2.804 6.263 6.263 6.263s6.263-2.804 6.263-6.263-2.804-6.263-6.263-6.263-6.263 2.804-6.263 6.263M523.5887 137.38c0 2.35 1.905 4.255 4.255 4.255 2.35 0 4.255-1.905 4.255-4.255 0-2.35-1.905-4.255-4.255-4.255-2.35 0-4.255 1.905-4.255 4.255M362.1839 137.38c0 2.35 1.905 4.255 4.255 4.255 2.35 0 4.255-1.905 4.255-4.255 0-2.35-1.905-4.255-4.255-4.255-2.35 0-4.255 1.905-4.255 4.255M308.7111 182.9408c0 4.08 3.307 7.387 7.387 7.387s7.387-3.307 7.387-7.387-3.307-7.387-7.387-7.387-7.387 3.307-7.387 7.387" fill="#58448b"/>
    <path d="M145.8819 131.324c0 5.235 4.243 9.478 9.478 9.478 5.235 0 9.478-4.243 9.478-9.478 0-5.235-4.243-9.478-9.478-9.478-5.235 0-9.478 4.243-9.478 9.478M191.8217 95.6272c0 2.055 1.666 3.722 3.722 3.722 2.055 0 3.721-1.667 3.721-3.722 0-2.055-1.666-3.722-3.721-3.722-2.056 0-3.722 1.667-3.722 3.722M139.7001 149.5131c0 2.055 1.666 3.722 3.722 3.722 2.055 0 3.721-1.667 3.721-3.722 0-2.055-1.666-3.722-3.721-3.722-2.056 0-3.722 1.667-3.722 3.722M242.8137 91.9055c0 4.038 3.273 7.311 7.311 7.311 4.037 0 7.31-3.273 7.31-7.311s-3.273-7.311-7.31-7.311c-4.038 0-7.311 3.273-7.311 7.311M116.2138 190.328c0 4.038 3.273 7.311 7.311 7.311 4.037 0 7.31-3.273 7.31-7.311s-3.273-7.311-7.31-7.311c-4.038 0-7.311 3.273-7.311 7.311M614.116 110.2312c0 1.65 1.338 2.988 2.988 2.988s2.988-1.338 2.988-2.988-1.338-2.988-2.988-2.988-2.988 1.338-2.988 2.988M600.9759 97.4607c0 3.354 2.719 6.073 6.073 6.073 3.354 0 6.073-2.719 6.073-6.073 0-3.354-2.719-6.073-6.073-6.073-3.354 0-6.073 2.719-6.073 6.073" fill="#3e3063"/>
    <path d="M586.9555 207.3696c1.413 3.891 4.631 6.907 8.65 8.034-.289.019-.578.044-.873.044-5.38 0-9.99-3.287-11.938-7.961.483.033.964.074 1.456.074.918 0 1.817-.078 2.705-.191M603.6042 215.0726c-1.404.523-2.917.822-4.504.822-1.212 0-2.381-.179-3.494-.491 2.848-.191 5.443-1.295 7.491-3.035.038.944.212 1.851.507 2.704M476.7092 81.776c1.139 12.917 11.971 23.05 25.184 23.05 7.156 0 13.605-2.983 18.207-7.76.631.824 1.353 1.574 2.162 2.224-4.539 6.775-12.261 11.238-21.028 11.238-13.972 0-25.298-11.326-25.298-25.298 0-.982.069-1.947.178-2.9.202-.181.405-.361.595-.554" fill="#ad6475"/>
    <path d="M476.7092 81.776c-.19.193-.393.373-.595.554.108-.941.275-1.863.483-2.77.001.748.048 1.485.112 2.216M520.1 97.0663c3.127-3.246 5.387-7.32 6.43-11.867 0 .011.001.021.001.031 0 5.204-1.575 10.038-4.269 14.06-.809-.651-1.53-1.4-2.162-2.224M535.5218 101.068c-.47 1.961-.726 4.005-.726 6.11 0 14.415 11.685 26.1 26.1 26.1 1.174 0 2.326-.085 3.458-.235-3.525 1.776-7.505 2.782-11.722 2.782-14.415 0-26.101-11.685-26.101-26.1 0-2.735.423-5.37 1.202-7.846.848.175 1.726.268 2.626.268 1.836 0 3.581-.389 5.163-1.079M542.7584 85.5622c2.024-.828 4.175-1.406 6.416-1.703-2.174 1.094-4.174 2.48-5.947 4.112-.079-.829-.241-1.633-.469-2.409" fill="#ad6475"/>
    <path d="M535.5218 101.068c-1.582.69-3.327 1.079-5.163 1.079-.9 0-1.778-.093-2.626-.268 2.335-7.415 7.89-13.398 15.026-16.317.228.776.39 1.58.469 2.409-3.747 3.449-6.478 7.98-7.706 13.097M579.2791 159.0772c0 .327.036.645.049.968-.498-.034-.994-.075-1.501-.075-1.378 0-2.722.142-4.027.392-.496-1.914-.788-3.911-.788-5.981 0-11.113 7.629-20.42 17.928-23.038 1.884 1.562 4.303 2.502 6.942 2.502 2.377 0 4.568-.77 6.358-2.063 3.753 1.234 7.087 3.374 9.755 6.164-3.272-1.694-6.978-2.667-10.918-2.667-13.143 0-23.798 10.655-23.798 23.798" fill="#ad6475"/>
    <path d="M590.94 131.343c1.881-.478 3.841-.76 5.871-.76 2.597 0 5.09.43 7.43 1.199-1.791 1.293-3.982 2.063-6.359 2.063-2.639 0-5.058-.94-6.942-2.502M562.9769 186.2872c0 5.314 1.961 10.16 5.182 13.889-6.883-3.523-11.605-10.67-11.605-18.933 0-10.371 7.425-18.997 17.247-20.881.57 2.199 1.442 4.271 2.577 6.174-7.848 3.132-13.401 10.786-13.401 19.751" fill="#ad6475"/>
    <path d="M579.3279 160.0456c.075 1.853.356 3.65.831 5.371-1.309.255-2.57.637-3.781 1.12-1.135-1.904-2.007-3.975-2.577-6.174 1.305-.251 2.648-.393 4.026-.393.507 0 1.003.041 1.501.076M597.2774 189.8376c.322.064.637.15.95.238-.38.025-.755.068-1.125.126.057-.122.12-.241.175-.364M581.8206 202.1288c1.589-.302 3.114-.78 4.556-1.414-.128.731-.208 1.48-.208 2.248 0 1.55.287 3.03.787 4.407-.888.113-1.787.19-2.705.19-.492 0-.973-.04-1.456-.073-.638-1.531-.994-3.209-.994-4.971 0-.131.016-.257.02-.387" fill="#ad6475"/>
    <path d="M586.3769 200.7148c-1.443.634-2.967 1.112-4.556 1.414.206-6.961 5.901-12.544 12.912-12.544.871 0 1.721.089 2.545.253-.055.123-.119.241-.176.364-5.454.848-9.773 5.094-10.725 10.513M385.8749 104.7733c1.702 1.716 3.611 3.225 5.689 4.485-2.168 9.022-10.268 15.735-19.955 15.735-1.882 0-3.696-.275-5.428-.749 10.628-.409 19.166-8.874 19.694-19.471M343.8312 133.2784c0-4.994-1.264-9.693-3.489-13.794 2.141 1.57 4.773 2.508 7.632 2.508.074 0 .146-.01.22-.011 1.325 3.32 2.061 6.938 2.061 10.731 0 16-12.971 28.971-28.971 28.971-.209 0-.415-.011-.623-.016 13.22-2.687 23.17-14.375 23.17-28.389M335.7289 113.1945c-5.136-5.336-12.295-8.703-20.246-8.872 1.874-.381 3.814-.582 5.801-.582 5.035 0 9.769 1.287 13.894 3.546-.08.581-.136 1.171-.136 1.774 0 1.448.248 2.835.687 4.134" fill="#ad6475"/>
    <path d="M348.1939 121.9815c-.074.001-.146.011-.22.011-2.858 0-5.491-.938-7.632-2.509-1.25-2.304-2.809-4.415-4.613-6.289-.439-1.299-.687-2.686-.687-4.134 0-.603.056-1.193.136-1.774 5.877 3.218 10.51 8.416 13.016 14.695M283.1838 163.9874c1.59.395 3.244.627 4.956.627 2.237 0 4.385-.369 6.401-1.03 4.91 5.32 7.913 12.426 7.913 20.237 0 11.078-6.039 20.739-15 25.891 5.391-5.401 8.725-12.856 8.725-21.09 0-10.231-5.149-19.256-12.995-24.635M258.2401 218.0282c0-.227-.012-.451-.017-.676 2.578.725 5.294 1.122 8.104 1.122.947 0 1.882-.049 2.806-.135.078.894.126 1.798.126 2.712 0 16.956-13.745 30.701-30.701 30.701-4.851 0-9.437-1.129-13.516-3.133.824.067 1.655.11 2.497.11 16.956 0 30.701-13.745 30.701-30.701" fill="#ad6475"/>
    <path d="M258.223 217.3519c-.061-2.812-.496-5.53-1.265-8.106 3.387 2.088 7.222 3.518 11.329 4.112.416 1.612.697 3.278.846 4.981-.924.086-1.859.136-2.806.136-2.81 0-5.526-.397-8.104-1.123" fill="#ad6475"/>
    <g clip-path="url(#aM)">
      <g clip-path="url(#aN)">
        <g mask="url(#aO)">
          <path d="M631.434 253.046c-11.741 0-21.269-9.527-21.269-21.268 0-3.759.982-7.29 2.693-10.354-.107.012-.215.024-.311.024-5.099 0-9.24-4.033-9.455-9.084-2.25 1.927-5.171 3.088-8.354 3.088-7.146 0-12.939-5.793-12.939-12.938 0-.132.012-.252.024-.383-1.292.239-2.633.383-3.997.383-11.742 0-21.269-9.528-21.269-21.269 0-10.377 7.421-18.995 17.247-20.886-.503-1.915-.79-3.913-.79-5.972 0-11.119 7.624-20.431 17.929-23.04-2.417-1.999-3.949-5.015-3.949-8.39 0-.347.024-.683.06-1.018-.383.024-.766.048-1.149.048-3.364 0-6.416-1.292-8.714-3.399-3.638 10.054-13.261 17.235-24.56 17.235-14.41 0-26.104-11.681-26.104-26.104 0-2.729.431-5.362 1.209-7.839-2.047-.419-3.902-1.329-5.47-2.586-4.548 6.775-12.268 11.239-21.029 11.239-13.98 0-25.302-11.334-25.302-25.302 0-.982.072-1.951.179-2.897-2.286 2.047-5.302 3.316-8.617 3.316-5.398 0-10.018-3.304-11.957-7.995-1.939 4.691-6.559 7.995-11.945 7.995-2.645 0-5.099-.802-7.145-2.167 0 .156.012.312.012.455 0 16.338-13.25 29.587-29.587 29.587-5.602 0-10.844-1.556-15.309-4.273-2.166 9.025-10.269 15.739-19.952 15.739-5.876 0-11.155-2.477-14.901-6.415-2.25 2.071-5.23 3.351-8.522 3.411 1.329 3.316 2.059 6.93 2.059 10.724 0 16.003-12.962 28.977-28.965 28.977-6.223 0-11.992-1.975-16.72-5.314-2.502 3.327-5.973 5.888-10.018 7.205 4.907 5.326 7.911 12.436 7.911 20.239 0 16.493-13.369 29.851-29.85 29.851-1.472 0-2.908-.108-4.321-.312.635 2.454.97 5.039.97 7.696 0 16.96-13.74 30.701-30.7 30.701-9.563 0-18.097-4.369-23.723-11.227-3.758 4.979-9.694 8.198-16.397 8.198-3.471 0-6.726-.861-9.599-2.381.012.371.036.742.036 1.113 0 19.281-15.631 34.913-34.925 34.913-5.745 0-11.167-1.401-15.943-3.854 1.006 2.429 1.58 5.099 1.58 7.899 0 11.347-9.204 20.551-20.55 20.551-3.651 0-7.074-.946-10.042-2.633V72.712H634.223v180.131c-.922.119-1.843.203-2.789.203" fill="url(#aP)"/>
        </g>
      </g>
    </g>
    <g>
      <g clip-path="url(#aQ)" opacity=".19999701">
        <path d="M351.4834 178.4588c0 3.001 2.433 5.434 5.434 5.434 3.002 0 5.435-2.433 5.435-5.434 0-3.001-2.433-5.434-5.435-5.434-3.001 0-5.434 2.433-5.434 5.434" fill="#fff"/>
      </g>
    </g>
  </g>
</svg>
