<svg xmlns="http://www.w3.org/2000/svg" width="700.6806" height="452.22021" viewBox="0 0 185.3884 119.64993">
  <defs>
    <linearGradient id="a" spreadMethod="pad" gradientTransform="scale(95.13783 -95.13783) rotate(88.922463 3.82316008 .7506051)" gradientUnits="userSpaceOnUse" y2="0" x2="1" y1="0" x1="0">
      <stop offset="0" stop-opacity="0" stop-color="#fff"/>
      <stop offset="1" stop-color="#fff"/>
    </linearGradient>
    <linearGradient id="b" spreadMethod="pad" gradientTransform="matrix(-1.78911 -95.12101 95.12101 -1.78911 495.26428 293.59482)" gradientUnits="userSpaceOnUse" y2="0" x2="1" y1="0" x1="0">
      <stop offset="0" stop-opacity="0" stop-color="#fff"/>
      <stop offset="1" stop-color="#fff"/>
    </linearGradient>
    <linearGradient id="c" spreadMethod="pad" gradientTransform="matrix(-.12889 29.1288 29.1288 .12889 467.39871 141.99875)" gradientUnits="userSpaceOnUse" y2="0" x2="1" y1="0" x1="0">
      <stop offset="0" stop-opacity="0" stop-color="#fff"/>
      <stop offset="1" stop-color="#fff"/>
    </linearGradient>
    <linearGradient id="d" spreadMethod="pad" gradientTransform="matrix(0 -104.14366 -104.14366 0 461.65979 340.26932)" gradientUnits="userSpaceOnUse" y2="0" x2="1" y1="0" x1="0">
      <stop offset="0" stop-opacity="0" stop-color="#fff"/>
      <stop offset=".27957" stop-opacity="0" stop-color="#fff"/>
      <stop offset="1" stop-color="#fff"/>
    </linearGradient>
    <linearGradient id="e" spreadMethod="pad" gradientTransform="matrix(36.81993 -18.16318 18.16318 36.81993 413.1243 205.84973)" gradientUnits="userSpaceOnUse" y2="0" x2="1" y1="0" x1="0">
      <stop offset="0" stop-opacity="0" stop-color="#fff"/>
      <stop offset="1" stop-color="#fff"/>
    </linearGradient>
    <linearGradient id="f" spreadMethod="pad" gradientTransform="rotate(98.392926 137.78733987 266.54071082) scale(10.02613)" gradientUnits="userSpaceOnUse" y2="0" x2="1" y1="0" x1="0">
      <stop offset="0" stop-opacity="0" stop-color="#fff"/>
      <stop offset="1" stop-color="#fff"/>
    </linearGradient>
    <linearGradient id="g" spreadMethod="pad" gradientTransform="rotate(80.134189 115.5359106 337.6245756) scale(5.55752)" gradientUnits="userSpaceOnUse" y2="0" x2="1" y1="0" x1="0">
      <stop offset="0" stop-opacity="0" stop-color="#fff"/>
      <stop offset="1" stop-color="#fff"/>
    </linearGradient>
    <linearGradient id="h" spreadMethod="pad" gradientTransform="scale(-41.05616 41.05616) rotate(-26.257012 4.5382387 29.13458576)" gradientUnits="userSpaceOnUse" y2="0" x2="1" y1="0" x1="0">
      <stop offset="0" stop-opacity="0" stop-color="#fff"/>
      <stop offset="1" stop-color="#fff"/>
    </linearGradient>
    <linearGradient id="i" spreadMethod="pad" gradientTransform="matrix(-.95223 5.47534 5.47534 .95223 494.70444 165.94818)" gradientUnits="userSpaceOnUse" y2="0" x2="1" y1="0" x1="0">
      <stop offset="0" stop-opacity="0" stop-color="#fff"/>
      <stop offset="1" stop-color="#fff"/>
    </linearGradient>
    <linearGradient id="j" spreadMethod="pad" gradientTransform="matrix(1.46342 9.91875 9.91875 -1.46342 501.491 169.13353)" gradientUnits="userSpaceOnUse" y2="0" x2="1" y1="0" x1="0">
      <stop offset="0" stop-opacity="0" stop-color="#fff"/>
      <stop offset="1" stop-color="#fff"/>
    </linearGradient>
    <radialGradient id="k" spreadMethod="pad" gradientTransform="matrix(21.89142 198.17497 198.17497 -21.89142 459.96622 119.77365)" gradientUnits="userSpaceOnUse" r="1" cy="0" cx="0" fy="0" fx="0">
      <stop offset="0" stop-color="#fff"/>
      <stop offset=".00493853" stop-color="#fff"/>
      <stop offset=".994624" stop-opacity="0" stop-color="#fff"/>
      <stop offset="1" stop-opacity="0" stop-color="#fff"/>
    </radialGradient>
    <radialGradient id="m" spreadMethod="pad" gradientTransform="scale(211.2127 -211.2127) rotate(45 2.25206415 2.1849096)" gradientUnits="userSpaceOnUse" r="1" cy="0" cx="0" fy="0" fx="0">
      <stop offset="0" stop-color="#803e67"/>
      <stop offset=".44086" stop-color="#3e3063"/>
      <stop offset=".44358286" stop-color="#3e3063"/>
      <stop offset=".989247" stop-color="#181743"/>
      <stop offset="1" stop-color="#181743"/>
    </radialGradient>
    <radialGradient id="l" spreadMethod="pad" gradientTransform="matrix(21.89142 198.17497 198.17497 -21.89142 459.96622 119.77365)" gradientUnits="userSpaceOnUse" r="1" cy="0" cx="0" fy="0" fx="0">
      <stop offset="0" stop-color="#fff"/>
      <stop offset=".00493853" stop-color="#fff"/>
      <stop offset=".994624" stop-opacity="0" stop-color="#fff"/>
      <stop offset="1" stop-opacity="0" stop-color="#fff"/>
    </radialGradient>
    <clipPath id="n" clipPathUnits="userSpaceOnUse">
      <path d="M0 1218.898h870.236V0H0z"/>
    </clipPath>
  </defs>
  <path d="M634.224 72.713h-525.23v305.324h525.23z" fill="url(#m)" transform="matrix(.3548 0 0 -.39392 -38.6329951 148.91628011)"/>
  <g clip-path="url(#n)" transform="matrix(.2137 0 0 -.10105 .00550356 120.3378186)">
    <path d="M304.7489 230.30738c-14.558-68.64154667-106.339-60.59175511-159.187-37.54330232-23.86 10.40651079-87.839 38.3102157-90.699 92.15089388-3.572 67.26446133 87.782 183.7886462 164.74 139.93090378 53.372-30.41529959 97.431-136.6113444 85.146-194.53849534m21.481 316.37322885c-4.951 151.8488497 436.53746 124.65798237 428.11846 261.44099594-10.01 162.61549255-540.03046 351.48513584-754.34846 382.17286695l-4.5133-285.86832541c105.95408 92.05641986 370.972092 83.3548079 377.569092-52.07910986C380.627692 696.9285875 122.3209 548.48313519-.0001 431.8078068V143.86262024C188.9159 33.72005037 615.2949 6.92473122 870.2369 25.84565992v146.00090191c-219.112 71.62149964-537.595 178.19820218-544.007 374.83404702" fill="#062e41"/>
    <path d="M597.809 676.1512c0-1.833-1.485-3.318-3.317-3.318s-3.318 1.485-3.318 3.318c0 1.832 1.486 3.317 3.318 3.317s3.317-1.485 3.317-3.317M95.7958 311.3377c0-1.832-1.485-3.317-3.317-3.317-1.833 0-3.318 1.485-3.318 3.317s1.485 3.317 3.318 3.317c1.832 0 3.317-1.485 3.317-3.317M35.201 112.5984c0-1.832-1.485-3.317-3.317-3.317s-3.318 1.485-3.318 3.317c0 1.833 1.486 3.318 3.318 3.318s3.317-1.485 3.317-3.318M519.6039 778.9144c0-1.832-1.485-3.317-3.317-3.317s-3.318 1.485-3.318 3.317c0 1.833 1.486 3.318 3.318 3.318s3.317-1.485 3.317-3.318M361.7704 737.2049c0-1.832-1.485-3.317-3.317-3.317-1.833 0-3.318 1.485-3.318 3.317 0 1.833 1.485 3.318 3.318 3.318 1.832 0 3.317-1.485 3.317-3.318M757.6576 1082.0813c0-1.833-1.485-3.318-3.317-3.318s-3.318 1.485-3.318 3.318c0 1.832 1.486 3.317 3.318 3.317s3.317-1.485 3.317-3.317M795.931 1166.0305c0-1.832-1.485-3.317-3.317-3.317s-3.318 1.485-3.318 3.317 1.486 3.317 3.318 3.317 3.317-1.485 3.317-3.317M840.723 983.1546c0-1.832-1.485-3.317-3.317-3.317s-3.318 1.485-3.318 3.317c0 1.833 1.486 3.318 3.318 3.318s3.317-1.485 3.317-3.318M207.224 1129.1838c0-1.833-1.485-3.318-3.317-3.318-1.833 0-3.318 1.485-3.318 3.318 0 1.832 1.485 3.317 3.318 3.317 1.832 0 3.317-1.485 3.317-3.317M563.4467 1011.7303c0-1.832-1.485-3.317-3.317-3.317s-3.318 1.485-3.318 3.317c0 1.833 1.486 3.318 3.318 3.318s3.317-1.485 3.317-3.318M43.0218 979.8372c0-1.832-1.485-3.317-3.318-3.317-1.832 0-3.317 1.485-3.317 3.317 0 1.833 1.485 3.317 3.317 3.317 1.833 0 3.318-1.484 3.318-3.317M146.4667 897.0535c0-1.833-1.485-3.317-3.317-3.317s-3.318 1.484-3.318 3.317c0 1.832 1.486 3.317 3.318 3.317s3.317-1.485 3.317-3.317M455.7357 1109.512c0-1.832-1.485-3.317-3.317-3.317s-3.318 1.485-3.318 3.317c0 1.833 1.486 3.318 3.318 3.318s3.317-1.485 3.317-3.318M844.0404 432.5584c0-1.832-1.485-3.317-3.317-3.317s-3.318 1.485-3.318 3.317 1.486 3.317 3.318 3.317 3.317-1.485 3.317-3.317M210.5414 986.8055c0-1.832-1.485-3.317-3.317-3.317-1.833 0-3.318 1.485-3.318 3.317s1.485 3.317 3.318 3.317c1.832 0 3.317-1.485 3.317-3.317M684.3802 384.5135c1.775-.455 2.846-2.263 2.391-4.037-.454-1.775-2.262-2.846-4.037-2.391-1.775.454-2.845 2.262-2.391 4.037.455 1.775 2.263 2.845 4.037 2.391M719.9672 191.989c1.775-.455 2.846-2.263 2.391-4.037-.455-1.775-2.262-2.846-4.037-2.391-1.775.454-2.845 2.262-2.391 4.037.455 1.775 2.263 2.845 4.037 2.391M796.3217 266.3308c1.774-.454 2.845-2.262 2.391-4.037-.455-1.775-2.263-2.845-4.037-2.39-1.776.454-2.846 2.262-2.391 4.036.455 1.776 2.262 2.846 4.037 2.391M456.5589 647.5223c1.774-.455 2.845-2.262 2.391-4.037-.455-1.775-2.263-2.845-4.037-2.391-1.776.455-2.845 2.262-2.391 4.037.455 1.775 2.262 2.846 4.037 2.391M155.7069 183.5584c1.775-.455 2.845-2.263 2.39-4.037-.454-1.775-2.262-2.846-4.036-2.391-1.775.455-2.846 2.262-2.391 4.037.454 1.775 2.262 2.845 4.037 2.391M834.9105 689.3196c1.774-.455 2.845-2.262 2.391-4.037-.455-1.775-2.263-2.845-4.037-2.39-1.776.454-2.846 2.261-2.391 4.036.454 1.775 2.262 2.846 4.037 2.391M793.0033 468.3211c1.775-.455 2.845-2.262 2.391-4.037-.455-1.775-2.263-2.845-4.037-2.391-1.776.455-2.845 2.263-2.391 4.037.455 1.776 2.263 2.845 4.037 2.391M812.85 837.9852c1.775-.455 2.846-2.262 2.391-4.037-.455-1.775-2.262-2.845-4.037-2.39-1.775.454-2.845 2.261-2.391 4.036.455 1.775 2.263 2.846 4.037 2.391M813.5687 103.6336c1.775-.455 2.846-2.263 2.391-4.037-.455-1.775-2.262-2.846-4.037-2.391-1.775.454-2.845 2.262-2.391 4.037.455 1.775 2.263 2.845 4.037 2.391M629.726 247.9851c1.775-.454 2.846-2.262 2.391-4.037-.454-1.775-2.262-2.845-4.037-2.39-1.775.454-2.845 2.262-2.39 4.036.454 1.776 2.262 2.846 4.036 2.391M607.4564 110.9598c1.774-.454 2.845-2.262 2.391-4.037-.455-1.775-2.263-2.845-4.037-2.391-1.776.455-2.846 2.263-2.391 4.037.455 1.776 2.262 2.846 4.037 2.391M691.9779 52.5769c1.774-.455 2.845-2.263 2.391-4.037-.455-1.775-2.263-2.846-4.037-2.391-1.776.454-2.846 2.262-2.391 4.037.455 1.775 2.262 2.845 4.037 2.391" fill="#f1cb51"/>
  </g>
</svg>
