<svg xmlns="http://www.w3.org/2000/svg" width="700.6806" height="452.22021" viewBox="0 0 185.3884 119.64993">
  <defs>
    <clipPath id="o" clipPathUnits="userSpaceOnUse">
      <path d="M0 1218.898h870.236V0H0z"/>
    </clipPath>
    <clipPath id="p" clipPathUnits="userSpaceOnUse">
      <path d="M0 500h750V0H0z"/>
    </clipPath>
    <clipPath id="q" clipPathUnits="userSpaceOnUse">
      <path d="M429.212 293.229h9.824v-93.803h-9.824z"/>
    </clipPath>
    <clipPath id="r" clipPathUnits="userSpaceOnUse">
      <path d="M422.069 293.229h7.144v-94.547h-7.144z"/>
    </clipPath>
    <clipPath id="s" clipPathUnits="userSpaceOnUse">
      <path d="M419.884 293.229h19.152v-94.708h-19.152z"/>
    </clipPath>
    <clipPath id="t" clipPathUnits="userSpaceOnUse">
      <path d="M421.266 198.521c-2.922 45.522-.356 77.476 0 79.632.619 3.747 5.134 15.076 7.943 15.076 2.809 0 7.324-11.329 7.943-15.076.356-2.156 2.248-29.672 1.821-78.331z"/>
    </clipPath>
    <clipPath id="w" clipPathUnits="userSpaceOnUse">
      <path d="M484.514 293.229h9.824v-93.803h-9.824z"/>
    </clipPath>
    <clipPath id="x" clipPathUnits="userSpaceOnUse">
      <path d="M494.337 293.229h7.144v-94.547h-7.144z"/>
    </clipPath>
    <clipPath id="y" clipPathUnits="userSpaceOnUse">
      <path d="M484.514 293.229h19.151v-94.708h-19.151z"/>
    </clipPath>
    <clipPath id="z" clipPathUnits="userSpaceOnUse">
      <path d="M502.284 198.521c2.922 45.522.356 77.476 0 79.632-.619 3.747-5.134 15.076-7.943 15.076-2.809 0-7.324-11.329-7.943-15.076-.356-2.156-2.248-29.672-1.822-78.331z"/>
    </clipPath>
    <clipPath id="D" clipPathUnits="userSpaceOnUse">
      <path d="M0 500h750V0H0z"/>
    </clipPath>
    <clipPath id="E" clipPathUnits="userSpaceOnUse">
      <path d="M448.32 172.03h28.363v-30.21H448.32z"/>
    </clipPath>
    <clipPath id="F" clipPathUnits="userSpaceOnUse">
      <path d="M461.775 172.03h11.242v-30.21h-11.242z"/>
    </clipPath>
    <clipPath id="G" clipPathUnits="userSpaceOnUse">
      <path d="M473.017 143.409c-2.63-.878-6.288-1.589-11.242-1.589v30.21h7.759z"/>
    </clipPath>
    <clipPath id="J" clipPathUnits="userSpaceOnUse">
      <path d="M461.775 340.53h21.66V235.66h-21.66z"/>
    </clipPath>
    <clipPath id="K" clipPathUnits="userSpaceOnUse">
      <path d="M444.47 339.228h14.426V216.172H444.47z"/>
    </clipPath>
    <clipPath id="L" clipPathUnits="userSpaceOnUse">
      <path d="M439.884 340.53h43.551V235.522h-43.551z"/>
    </clipPath>
    <clipPath id="M" clipPathUnits="userSpaceOnUse">
      <path d="M482.024 308.486c-3.196 12.349-14.859 32.044-20.249 32.044-5.39 0-17.053-19.695-20.249-32.044-1.992-7.695-2.377-43.206 0-72.964l20.249.405 19.782-.267c2.377 29.758 2.459 65.131.467 72.826"/>
    </clipPath>
    <clipPath id="P" clipPathUnits="userSpaceOnUse">
      <path d="M442.308 173.094h12.057v-21.48h-12.057z"/>
    </clipPath>
    <clipPath id="Q" clipPathUnits="userSpaceOnUse">
      <path d="M448.687 172.25h10.209v-20.638h-10.209z"/>
    </clipPath>
    <clipPath id="R" clipPathUnits="userSpaceOnUse">
      <path d="M466.106 172.098h14.98v-20.484h-14.98z"/>
    </clipPath>
    <clipPath id="S" clipPathUnits="userSpaceOnUse">
      <path d="M470.709 173.498h11.624v-20.885h-11.624z"/>
    </clipPath>
    <clipPath id="T" clipPathUnits="userSpaceOnUse">
      <path d="M396.294 233.023h46.014v-60.119h-46.014z"/>
    </clipPath>
    <clipPath id="U" clipPathUnits="userSpaceOnUse">
      <path d="M400.659 219.122h45.392v-45.624h-45.392z"/>
    </clipPath>
    <clipPath id="V" clipPathUnits="userSpaceOnUse">
      <path d="M396.272 233.023h49.779v-60.119h-49.779z"/>
    </clipPath>
    <clipPath id="W" clipPathUnits="userSpaceOnUse">
      <path d="M441.658 233.023c.305-5.029-.915-15.836-5.769-22.479-4.456-6.097-13.219-11.41-24.877-16.801-10.42-4.819-15.108-11.332-14.718-20.839l49.757 6.76z"/>
    </clipPath>
    <clipPath id="Z" clipPathUnits="userSpaceOnUse">
      <path d="M425.284 178.459h11.897v-7.522h-11.897z"/>
    </clipPath>
    <clipPath id="aa" clipPathUnits="userSpaceOnUse">
      <path d="M403.905 178.459h33.276v-9.737h-33.276z"/>
    </clipPath>
    <clipPath id="ab" clipPathUnits="userSpaceOnUse">
      <path d="M409.444 168.762l23.582 3.204c1.943.264 3.476 1.785 3.756 3.726l.399 2.767-33.276-4.521.805-2.284c.693-1.965 2.67-3.172 4.734-2.892"/>
    </clipPath>
    <clipPath id="ae" clipPathUnits="userSpaceOnUse">
      <path d="M409.763 175.324h5.427v-6.189h-5.427z"/>
    </clipPath>
    <clipPath id="af" clipPathUnits="userSpaceOnUse">
      <path d="M413.065 169.584h15.319v-5.463h-15.319z"/>
    </clipPath>
    <clipPath id="ag" clipPathUnits="userSpaceOnUse">
      <path d="M427.026 171.725h4.22v-5.974h-4.22z"/>
    </clipPath>
    <clipPath id="ah" clipPathUnits="userSpaceOnUse">
      <path d="M430.552 167.999c-.202-1.083-1.076-1.915-2.168-2.063l-1.358-.185.39 5.453 3.83.521z"/>
    </clipPath>
    <clipPath id="ak" clipPathUnits="userSpaceOnUse">
      <path d="M480.768 233.023h46.014v-60.119h-46.014z"/>
    </clipPath>
    <clipPath id="al" clipPathUnits="userSpaceOnUse">
      <path d="M477.025 219.122h45.392v-45.624h-45.392z"/>
    </clipPath>
    <clipPath id="am" clipPathUnits="userSpaceOnUse">
      <path d="M477.025 233.023h49.779v-60.119h-49.779z"/>
    </clipPath>
    <clipPath id="an" clipPathUnits="userSpaceOnUse">
      <path d="M481.418 233.023c-.305-5.029.915-15.836 5.769-22.479 4.456-6.097 13.219-11.41 24.877-16.801 10.42-4.819 15.108-11.332 14.718-20.839l-49.757 6.76z"/>
    </clipPath>
    <clipPath id="aq" clipPathUnits="userSpaceOnUse">
      <path d="M494.692 169.584h15.32v-5.463h-15.32z"/>
    </clipPath>
    <clipPath id="ar" clipPathUnits="userSpaceOnUse">
      <path d="M491.83 171.725h4.22v-5.974h-4.22z"/>
    </clipPath>
    <clipPath id="as" clipPathUnits="userSpaceOnUse">
      <path d="M492.525 167.999c.202-1.083 1.075-1.915 2.167-2.063l1.358-.185-.39 5.453-3.83.521z"/>
    </clipPath>
    <clipPath id="av" clipPathUnits="userSpaceOnUse">
      <path d="M485.895 178.459h11.897v-7.522h-11.897z"/>
    </clipPath>
    <clipPath id="aw" clipPathUnits="userSpaceOnUse">
      <path d="M485.895 178.459h33.276v-9.737h-33.276z"/>
    </clipPath>
    <clipPath id="ax" clipPathUnits="userSpaceOnUse">
      <path d="M513.632 168.762l-23.582 3.204c-1.943.264-3.476 1.785-3.756 3.726l-.399 2.767 33.276-4.521-.805-2.284c-.693-1.965-2.67-3.172-4.734-2.892"/>
    </clipPath>
    <clipPath id="aA" clipPathUnits="userSpaceOnUse">
      <path d="M507.887 175.324h5.426v-6.189h-5.426z"/>
    </clipPath>
    <clipPath id="aC" clipPathUnits="userSpaceOnUse">
      <path d="M0 500h750V0H0z"/>
    </clipPath>
    <clipPath id="aE" clipPathUnits="userSpaceOnUse">
      <path d="M0 500h750V0H0z"/>
    </clipPath>
    <clipPath id="aF" clipPathUnits="userSpaceOnUse">
      <path d="M461.538 282.434h20.279V171.698h-20.279z"/>
    </clipPath>
    <clipPath id="aG" clipPathUnits="userSpaceOnUse">
      <path d="M446.297 282.434h15.241V171.483h-15.241z"/>
    </clipPath>
    <clipPath id="aH" clipPathUnits="userSpaceOnUse">
      <path d="M460.921 260.699h8.565v-4.674h-8.565z"/>
    </clipPath>
    <clipPath id="aI" clipPathUnits="userSpaceOnUse">
      <path d="M453.532 260.948h8.629v-5.44h-8.629z"/>
    </clipPath>
    <clipPath id="aJ" clipPathUnits="userSpaceOnUse">
      <path d="M461.775 198.521h10.942v-27.16h-10.942z"/>
    </clipPath>
    <clipPath id="aK" clipPathUnits="userSpaceOnUse">
      <path d="M454.764 198.521h7.011v-27.255h-7.011z"/>
    </clipPath>
    <clipPath id="aL" clipPathUnits="userSpaceOnUse">
      <path d="M0 500h750V0H0z"/>
    </clipPath>
    <clipPath id="aM" clipPathUnits="userSpaceOnUse">
      <path d="M108.994 306.966h525.229V72.7115H108.994z"/>
    </clipPath>
    <clipPath id="aN" clipPathUnits="userSpaceOnUse">
      <path d="M631.434 253.046c-11.741 0-21.269-9.527-21.269-21.268 0-3.759.982-7.29 2.693-10.354-.107.012-.215.024-.311.024-5.099 0-9.24-4.033-9.455-9.084-2.25 1.927-5.171 3.088-8.354 3.088-7.146 0-12.939-5.793-12.939-12.938 0-.132.012-.252.024-.383-1.292.239-2.633.383-3.997.383-11.742 0-21.269-9.528-21.269-21.269 0-10.377 7.421-18.995 17.247-20.886-.503-1.915-.79-3.913-.79-5.972 0-11.119 7.624-20.431 17.929-23.04-2.417-1.999-3.949-5.015-3.949-8.39 0-.347.024-.683.06-1.018-.383.024-.766.048-1.149.048-3.364 0-6.416-1.292-8.714-3.399-3.638 10.054-13.261 17.235-24.56 17.235-14.41 0-26.104-11.681-26.104-26.104 0-2.729.431-5.362 1.209-7.839-2.047-.419-3.902-1.329-5.47-2.586-4.548 6.775-12.268 11.239-21.029 11.239-13.98 0-25.302-11.334-25.302-25.302 0-.982.072-1.951.179-2.897-2.286 2.047-5.302 3.316-8.617 3.316-5.398 0-10.018-3.304-11.957-7.995-1.939 4.691-6.559 7.995-11.945 7.995-2.645 0-5.099-.802-7.145-2.167 0 .156.012.312.012.455 0 16.338-13.25 29.587-29.587 29.587-5.602 0-10.844-1.556-15.309-4.273-2.166 9.025-10.269 15.739-19.952 15.739-5.876 0-11.155-2.477-14.901-6.415-2.25 2.071-5.23 3.351-8.522 3.411 1.329 3.316 2.059 6.93 2.059 10.724 0 16.003-12.962 28.977-28.965 28.977-6.223 0-11.992-1.975-16.72-5.314-2.502 3.327-5.973 5.888-10.018 7.205 4.907 5.326 7.911 12.436 7.911 20.239 0 16.493-13.369 29.851-29.85 29.851-1.472 0-2.908-.108-4.321-.312.635 2.454.97 5.039.97 7.696 0 16.96-13.74 30.701-30.7 30.701-9.563 0-18.097-4.369-23.723-11.227-3.758 4.979-9.694 8.198-16.397 8.198-3.471 0-6.726-.861-9.599-2.381.012.371.036.742.036 1.113 0 19.281-15.631 34.913-34.925 34.913-5.745 0-11.167-1.401-15.943-3.854 1.006 2.429 1.58 5.099 1.58 7.899 0 11.347-9.204 20.551-20.55 20.551-3.651 0-7.074-.946-10.042-2.633V72.712H634.223v180.131c-.922.119-1.843.203-2.789.203"/>
    </clipPath>
    <clipPath id="aQ" clipPathUnits="userSpaceOnUse">
      <path d="M351.483 183.893h10.869v-10.869h-10.869z"/>
    </clipPath>
    <linearGradient id="a" spreadMethod="pad" gradientTransform="scale(95.13783 -95.13783) rotate(88.922463 3.82316008 .7506051)" gradientUnits="userSpaceOnUse" y2="0" x2="1" y1="0" x1="0">
      <stop offset="0" stop-opacity="0" stop-color="#fff"/>
      <stop offset="1" stop-color="#fff"/>
    </linearGradient>
    <linearGradient id="v" spreadMethod="pad" gradientTransform="scale(95.13783 -95.13783) rotate(88.922463 3.82316008 .7506051)" gradientUnits="userSpaceOnUse" y2="0" x2="1" y1="0" x1="0">
      <stop offset="0" stop-color="#71a6ea"/>
      <stop offset="1" stop-color="#364971"/>
    </linearGradient>
    <linearGradient id="b" spreadMethod="pad" gradientTransform="matrix(-1.78911 -95.12101 95.12101 -1.78911 495.26428 293.59482)" gradientUnits="userSpaceOnUse" y2="0" x2="1" y1="0" x1="0">
      <stop offset="0" stop-opacity="0" stop-color="#fff"/>
      <stop offset="1" stop-color="#fff"/>
    </linearGradient>
    <linearGradient id="B" spreadMethod="pad" gradientTransform="matrix(-1.78911 -95.12101 95.12101 -1.78911 495.26428 293.59482)" gradientUnits="userSpaceOnUse" y2="0" x2="1" y1="0" x1="0">
      <stop offset="0" stop-color="#71a6ea"/>
      <stop offset="1" stop-color="#364971"/>
    </linearGradient>
    <linearGradient id="C" spreadMethod="pad" gradientTransform="matrix(0 78.13035 78.13035 0 461.77481 72.711502)" gradientUnits="userSpaceOnUse" y2="0" x2="1" y1="0" x1="0">
      <stop offset="0" stop-color="#ee7249"/>
      <stop offset=".26303468" stop-color="#f8b272"/>
      <stop offset="1" stop-color="#f8b272"/>
    </linearGradient>
    <linearGradient id="c" spreadMethod="pad" gradientTransform="matrix(-.12889 29.1288 29.1288 .12889 467.39871 141.99875)" gradientUnits="userSpaceOnUse" y2="0" x2="1" y1="0" x1="0">
      <stop offset="0" stop-opacity="0" stop-color="#fff"/>
      <stop offset="1" stop-color="#fff"/>
    </linearGradient>
    <linearGradient id="I" spreadMethod="pad" gradientTransform="matrix(-.12889 29.1288 29.1288 .12889 467.39871 141.99875)" gradientUnits="userSpaceOnUse" y2="0" x2="1" y1="0" x1="0">
      <stop offset="0" stop-color="#71a6ea"/>
      <stop offset="1" stop-color="#364971"/>
    </linearGradient>
    <linearGradient id="d" spreadMethod="pad" gradientTransform="matrix(0 -104.14366 -104.14366 0 461.65979 340.26932)" gradientUnits="userSpaceOnUse" y2="0" x2="1" y1="0" x1="0">
      <stop offset="0" stop-opacity="0" stop-color="#fff"/>
      <stop offset=".27957" stop-opacity="0" stop-color="#fff"/>
      <stop offset="1" stop-color="#fff"/>
    </linearGradient>
    <linearGradient id="O" spreadMethod="pad" gradientTransform="matrix(0 -104.14366 -104.14366 0 461.65979 340.26932)" gradientUnits="userSpaceOnUse" y2="0" x2="1" y1="0" x1="0">
      <stop offset="0" stop-color="#fdd095"/>
      <stop offset=".27957" stop-color="#e67686"/>
      <stop offset="1" stop-color="#a53563"/>
    </linearGradient>
    <linearGradient id="e" spreadMethod="pad" gradientTransform="matrix(36.81993 -18.16318 18.16318 36.81993 413.1243 205.84973)" gradientUnits="userSpaceOnUse" y2="0" x2="1" y1="0" x1="0">
      <stop offset="0" stop-opacity="0" stop-color="#fff"/>
      <stop offset="1" stop-color="#fff"/>
    </linearGradient>
    <linearGradient id="Y" spreadMethod="pad" gradientTransform="matrix(36.81993 -18.16318 18.16318 36.81993 413.1243 205.84973)" gradientUnits="userSpaceOnUse" y2="0" x2="1" y1="0" x1="0">
      <stop offset="0" stop-color="#71a6ea"/>
      <stop offset="1" stop-color="#364971"/>
    </linearGradient>
    <linearGradient id="f" spreadMethod="pad" gradientTransform="rotate(98.392926 137.78733987 266.54071082) scale(10.02613)" gradientUnits="userSpaceOnUse" y2="0" x2="1" y1="0" x1="0">
      <stop offset="0" stop-opacity="0" stop-color="#fff"/>
      <stop offset="1" stop-color="#fff"/>
    </linearGradient>
    <linearGradient id="ad" spreadMethod="pad" gradientTransform="rotate(98.392926 137.78733987 266.54071082) scale(10.02613)" gradientUnits="userSpaceOnUse" y2="0" x2="1" y1="0" x1="0">
      <stop offset="0" stop-color="#71a6ea"/>
      <stop offset="1" stop-color="#364971"/>
    </linearGradient>
    <linearGradient id="g" spreadMethod="pad" gradientTransform="rotate(80.134189 115.5359106 337.6245756) scale(5.55752)" gradientUnits="userSpaceOnUse" y2="0" x2="1" y1="0" x1="0">
      <stop offset="0" stop-opacity="0" stop-color="#fff"/>
      <stop offset="1" stop-color="#fff"/>
    </linearGradient>
    <linearGradient id="aj" spreadMethod="pad" gradientTransform="rotate(80.134189 115.5359106 337.6245756) scale(5.55752)" gradientUnits="userSpaceOnUse" y2="0" x2="1" y1="0" x1="0">
      <stop offset="0" stop-color="#71a6ea"/>
      <stop offset="1" stop-color="#364971"/>
    </linearGradient>
    <linearGradient id="h" spreadMethod="pad" gradientTransform="scale(-41.05616 41.05616) rotate(-26.257012 4.5382387 29.13458576)" gradientUnits="userSpaceOnUse" y2="0" x2="1" y1="0" x1="0">
      <stop offset="0" stop-opacity="0" stop-color="#fff"/>
      <stop offset="1" stop-color="#fff"/>
    </linearGradient>
    <linearGradient id="ap" spreadMethod="pad" gradientTransform="scale(-41.05616 41.05616) rotate(-26.257012 4.5382387 29.13458576)" gradientUnits="userSpaceOnUse" y2="0" x2="1" y1="0" x1="0">
      <stop offset="0" stop-color="#71a6ea"/>
      <stop offset="1" stop-color="#364971"/>
    </linearGradient>
    <linearGradient id="i" spreadMethod="pad" gradientTransform="matrix(-.95223 5.47534 5.47534 .95223 494.70444 165.94818)" gradientUnits="userSpaceOnUse" y2="0" x2="1" y1="0" x1="0">
      <stop offset="0" stop-opacity="0" stop-color="#fff"/>
      <stop offset="1" stop-color="#fff"/>
    </linearGradient>
    <linearGradient id="au" spreadMethod="pad" gradientTransform="matrix(-.95223 5.47534 5.47534 .95223 494.70444 165.94818)" gradientUnits="userSpaceOnUse" y2="0" x2="1" y1="0" x1="0">
      <stop offset="0" stop-color="#71a6ea"/>
      <stop offset="1" stop-color="#364971"/>
    </linearGradient>
    <linearGradient id="j" spreadMethod="pad" gradientTransform="matrix(1.46342 9.91875 9.91875 -1.46342 501.491 169.13353)" gradientUnits="userSpaceOnUse" y2="0" x2="1" y1="0" x1="0">
      <stop offset="0" stop-opacity="0" stop-color="#fff"/>
      <stop offset="1" stop-color="#fff"/>
    </linearGradient>
    <linearGradient id="az" spreadMethod="pad" gradientTransform="matrix(1.46342 9.91875 9.91875 -1.46342 501.491 169.13353)" gradientUnits="userSpaceOnUse" y2="0" x2="1" y1="0" x1="0">
      <stop offset="0" stop-color="#71a6ea"/>
      <stop offset="1" stop-color="#364971"/>
    </linearGradient>
    <linearGradient id="aB" spreadMethod="pad" gradientTransform="matrix(0 93.22439 93.22439 0 422.12637 72.711502)" gradientUnits="userSpaceOnUse" y2="0" x2="1" y1="0" x1="0">
      <stop offset="0" stop-color="#ee7249"/>
      <stop offset=".26303468" stop-color="#f8b272"/>
      <stop offset="1" stop-color="#f8b272"/>
    </linearGradient>
    <linearGradient id="aD" spreadMethod="pad" gradientTransform="matrix(0 93.22439 93.22439 0 500.94971 72.711502)" gradientUnits="userSpaceOnUse" y2="0" x2="1" y1="0" x1="0">
      <stop offset="0" stop-color="#ee7249"/>
      <stop offset=".26303468" stop-color="#f8b272"/>
      <stop offset="1" stop-color="#f8b272"/>
    </linearGradient>
    <mask id="u" height="1" width="1" y="0" x="0" maskUnits="userSpaceOnUse">
      <path d="M-32768 32767h65535v-65535h-65535z" fill="url(#a)"/>
    </mask>
    <mask id="A" height="1" width="1" y="0" x="0" maskUnits="userSpaceOnUse">
      <path d="M-32768 32767h65535v-65535h-65535z" fill="url(#b)"/>
    </mask>
    <mask id="H" height="1" width="1" y="0" x="0" maskUnits="userSpaceOnUse">
      <path d="M-32768 32767h65535v-65535h-65535z" fill="url(#c)"/>
    </mask>
    <mask id="N" height="1" width="1" y="0" x="0" maskUnits="userSpaceOnUse">
      <path d="M-32768 32767h65535v-65535h-65535z" fill="url(#d)"/>
    </mask>
    <mask id="X" height="1" width="1" y="0" x="0" maskUnits="userSpaceOnUse">
      <path d="M-32768 32767h65535v-65535h-65535z" fill="url(#e)"/>
    </mask>
    <mask id="ac" height="1" width="1" y="0" x="0" maskUnits="userSpaceOnUse">
      <path d="M-32768 32767h65535v-65535h-65535z" fill="url(#f)"/>
    </mask>
    <mask id="ai" height="1" width="1" y="0" x="0" maskUnits="userSpaceOnUse">
      <path d="M-32768 32767h65535v-65535h-65535z" fill="url(#g)"/>
    </mask>
    <mask id="ao" height="1" width="1" y="0" x="0" maskUnits="userSpaceOnUse">
      <path d="M-32768 32767h65535v-65535h-65535z" fill="url(#h)"/>
    </mask>
    <mask id="at" height="1" width="1" y="0" x="0" maskUnits="userSpaceOnUse">
      <path d="M-32768 32767h65535v-65535h-65535z" fill="url(#i)"/>
    </mask>
    <mask id="ay" height="1" width="1" y="0" x="0" maskUnits="userSpaceOnUse">
      <path d="M-32768 32767h65535v-65535h-65535z" fill="url(#j)"/>
    </mask>
    <mask id="aO" height="1" width="1" y="0" x="0" maskUnits="userSpaceOnUse">
      <path d="M-32768 32767h65535v-65535h-65535z" fill="url(#m)"/>
    </mask>
    <radialGradient id="k" spreadMethod="pad" gradientTransform="matrix(21.89142 198.17497 198.17497 -21.89142 459.96622 119.77365)" gradientUnits="userSpaceOnUse" r="1" cy="0" cx="0" fy="0" fx="0">
      <stop offset="0" stop-color="#fff"/>
      <stop offset=".00493853" stop-color="#fff"/>
      <stop offset=".994624" stop-opacity="0" stop-color="#fff"/>
      <stop offset="1" stop-opacity="0" stop-color="#fff"/>
    </radialGradient>
    <radialGradient id="n" spreadMethod="pad" gradientTransform="scale(211.2127 -211.2127) rotate(45 2.25206415 2.1849096)" gradientUnits="userSpaceOnUse" r="1" cy="0" cx="0" fy="0" fx="0">
      <stop offset="0" stop-color="#803e67"/>
      <stop offset=".44086" stop-color="#3e3063"/>
      <stop offset=".44358286" stop-color="#3e3063"/>
      <stop offset=".989247" stop-color="#181743"/>
      <stop offset="1" stop-color="#181743"/>
    </radialGradient>
    <radialGradient id="l" spreadMethod="pad" gradientTransform="matrix(21.89142 198.17497 198.17497 -21.89142 459.96622 119.77365)" gradientUnits="userSpaceOnUse" r="1" cy="0" cx="0" fy="0" fx="0">
      <stop offset="0" stop-color="#fff"/>
      <stop offset=".00493853" stop-color="#fff"/>
      <stop offset=".994624" stop-opacity="0" stop-color="#fff"/>
      <stop offset="1" stop-opacity="0" stop-color="#fff"/>
    </radialGradient>
    <radialGradient id="m" spreadMethod="pad" gradientTransform="matrix(21.89142 198.17497 198.17497 -21.89142 459.96622 119.77365)" gradientUnits="userSpaceOnUse" r="1" cy="0" cx="0" fy="0" fx="0">
      <stop offset="0" stop-color="#fff"/>
      <stop offset=".00493853" stop-color="#fff"/>
      <stop offset=".994624" stop-opacity="0" stop-color="#fff"/>
      <stop offset="1" stop-opacity="0" stop-color="#fff"/>
    </radialGradient>
    <radialGradient id="aP" spreadMethod="pad" gradientTransform="matrix(21.89142 198.17497 198.17497 -21.89142 459.96622 119.77365)" gradientUnits="userSpaceOnUse" r="1" cy="0" cx="0" fy="0" fx="0">
      <stop offset="0" stop-color="#d37575"/>
      <stop offset=".00493853" stop-color="#d37575"/>
      <stop offset=".994624" stop-color="#58448b"/>
      <stop offset="1" stop-color="#58448b"/>
    </radialGradient>
  </defs>
  <path d="M634.224 72.713h-525.23v305.324h525.23z" fill="url(#n)" transform="matrix(.3548 0 0 -.39304 -38.6329951 148.58535932)"/>
  <g clip-path="url(#o)" transform="matrix(.2137 0 0 -.10082 .00550356 120.07040423)">
    <path d="M304.7489 230.30738c-14.558-68.64154667-106.339-60.59175511-159.187-37.54330232-23.86 10.40651079-87.839 38.3102157-90.699 92.15089388-3.572 67.26446133 87.782 183.7886462 164.74 139.93090378 53.372-30.41529959 97.431-136.6113444 85.146-194.53849534m21.481 316.37322885c-4.951 151.8488497 436.53746 124.65798237 428.11846 261.44099594-10.01 162.61549255-540.03046 351.48513584-754.34846 382.17286695l-4.5133-285.86832541c105.95408 92.05641986 370.972092 83.3548079 377.569092-52.07910986C380.627692 696.9285875 122.3209 548.48313519-.0001 431.8078068V143.86262024C188.9159 33.72005037 615.2949 6.92473122 870.2369 25.84565992v146.00090191c-219.112 71.62149964-537.595 178.19820218-544.007 374.83404702" fill="#062e41"/>
    <path d="M597.809 676.1512c0-1.833-1.485-3.318-3.317-3.318s-3.318 1.485-3.318 3.318c0 1.832 1.486 3.317 3.318 3.317s3.317-1.485 3.317-3.317M95.7958 311.3377c0-1.832-1.485-3.317-3.317-3.317-1.833 0-3.318 1.485-3.318 3.317s1.485 3.317 3.318 3.317c1.832 0 3.317-1.485 3.317-3.317M35.201 112.5984c0-1.832-1.485-3.317-3.317-3.317s-3.318 1.485-3.318 3.317c0 1.833 1.486 3.318 3.318 3.318s3.317-1.485 3.317-3.318M519.6039 778.9144c0-1.832-1.485-3.317-3.317-3.317s-3.318 1.485-3.318 3.317c0 1.833 1.486 3.318 3.318 3.318s3.317-1.485 3.317-3.318M361.7704 737.2049c0-1.832-1.485-3.317-3.317-3.317-1.833 0-3.318 1.485-3.318 3.317 0 1.833 1.485 3.318 3.318 3.318 1.832 0 3.317-1.485 3.317-3.318M757.6576 1082.0813c0-1.833-1.485-3.318-3.317-3.318s-3.318 1.485-3.318 3.318c0 1.832 1.486 3.317 3.318 3.317s3.317-1.485 3.317-3.317M795.931 1166.0305c0-1.832-1.485-3.317-3.317-3.317s-3.318 1.485-3.318 3.317 1.486 3.317 3.318 3.317 3.317-1.485 3.317-3.317M840.723 983.1546c0-1.832-1.485-3.317-3.317-3.317s-3.318 1.485-3.318 3.317c0 1.833 1.486 3.318 3.318 3.318s3.317-1.485 3.317-3.318M207.224 1129.1838c0-1.833-1.485-3.318-3.317-3.318-1.833 0-3.318 1.485-3.318 3.318 0 1.832 1.485 3.317 3.318 3.317 1.832 0 3.317-1.485 3.317-3.317M563.4467 1011.7303c0-1.832-1.485-3.317-3.317-3.317s-3.318 1.485-3.318 3.317c0 1.833 1.486 3.318 3.318 3.318s3.317-1.485 3.317-3.318M43.0218 979.8372c0-1.832-1.485-3.317-3.318-3.317-1.832 0-3.317 1.485-3.317 3.317 0 1.833 1.485 3.317 3.317 3.317 1.833 0 3.318-1.484 3.318-3.317M146.4667 897.0535c0-1.833-1.485-3.317-3.317-3.317s-3.318 1.484-3.318 3.317c0 1.832 1.486 3.317 3.318 3.317s3.317-1.485 3.317-3.317M455.7357 1109.512c0-1.832-1.485-3.317-3.317-3.317s-3.318 1.485-3.318 3.317c0 1.833 1.486 3.318 3.318 3.318s3.317-1.485 3.317-3.318M844.0404 432.5584c0-1.832-1.485-3.317-3.317-3.317s-3.318 1.485-3.318 3.317 1.486 3.317 3.318 3.317 3.317-1.485 3.317-3.317M210.5414 986.8055c0-1.832-1.485-3.317-3.317-3.317-1.833 0-3.318 1.485-3.318 3.317s1.485 3.317 3.318 3.317c1.832 0 3.317-1.485 3.317-3.317M684.3802 384.5135c1.775-.455 2.846-2.263 2.391-4.037-.454-1.775-2.262-2.846-4.037-2.391-1.775.454-2.845 2.262-2.391 4.037.455 1.775 2.263 2.845 4.037 2.391M719.9672 191.989c1.775-.455 2.846-2.263 2.391-4.037-.455-1.775-2.262-2.846-4.037-2.391-1.775.454-2.845 2.262-2.391 4.037.455 1.775 2.263 2.845 4.037 2.391M796.3217 266.3308c1.774-.454 2.845-2.262 2.391-4.037-.455-1.775-2.263-2.845-4.037-2.39-1.776.454-2.846 2.262-2.391 4.036.455 1.776 2.262 2.846 4.037 2.391M456.5589 647.5223c1.774-.455 2.845-2.262 2.391-4.037-.455-1.775-2.263-2.845-4.037-2.391-1.776.455-2.845 2.262-2.391 4.037.455 1.775 2.262 2.846 4.037 2.391M155.7069 183.5584c1.775-.455 2.845-2.263 2.39-4.037-.454-1.775-2.262-2.846-4.036-2.391-1.775.455-2.846 2.262-2.391 4.037.454 1.775 2.262 2.845 4.037 2.391M834.9105 689.3196c1.774-.455 2.845-2.262 2.391-4.037-.455-1.775-2.263-2.845-4.037-2.39-1.776.454-2.846 2.261-2.391 4.036.454 1.775 2.262 2.846 4.037 2.391M793.0033 468.3211c1.775-.455 2.845-2.262 2.391-4.037-.455-1.775-2.263-2.845-4.037-2.391-1.776.455-2.845 2.263-2.391 4.037.455 1.776 2.263 2.845 4.037 2.391M812.85 837.9852c1.775-.455 2.846-2.262 2.391-4.037-.455-1.775-2.262-2.845-4.037-2.39-1.775.454-2.845 2.261-2.391 4.036.455 1.775 2.263 2.846 4.037 2.391M813.5687 103.6336c1.775-.455 2.846-2.263 2.391-4.037-.455-1.775-2.262-2.846-4.037-2.391-1.775.454-2.845 2.262-2.391 4.037.455 1.775 2.263 2.845 4.037 2.391M629.726 247.9851c1.775-.454 2.846-2.262 2.391-4.037-.454-1.775-2.262-2.845-4.037-2.39-1.775.454-2.845 2.262-2.39 4.036.454 1.776 2.262 2.846 4.036 2.391M607.4564 110.9598c1.774-.454 2.845-2.262 2.391-4.037-.455-1.775-2.263-2.845-4.037-2.391-1.776.455-2.846 2.263-2.391 4.037.455 1.776 2.262 2.846 4.037 2.391M691.9779 52.5769c1.774-.455 2.845-2.263 2.391-4.037-.455-1.775-2.263-2.846-4.037-2.391-1.776.454-2.846 2.262-2.391 4.037.455 1.775 2.262 2.845 4.037 2.391" fill="#f1cb51"/>
  </g>
  <g clip-path="url(#p)" transform="matrix(.35278 0 0 -.35278 -30.742083 144.93072)">
    <path d="M421.266 198.5208c-2.922 45.522-.356 77.477 0 79.632.619 3.747 5.134 15.077 7.943 15.077 2.809 0 7.324-11.33 7.943-15.077.356-2.155 2.248-29.672 1.821-78.331z" fill="#71a6ea"/>
    <path d="M420.9056 274.1592c5.589-1.125 11.107-1.125 16.577.072h.012c-.012.167-.024.323-.036.479-.012.251-.036.478-.048.706-.024.359-.048.682-.072.969-.012.036-.012.06-.012.084-.024.335-.06.622-.084.862 0 .084-.011.155-.023.227 0 .072 0 .12-.012.18h-.012c-5.279-1.113-10.593-1.113-15.991-.072-.036-.323-.084-.778-.131-1.365-.024-.239-.048-.502-.072-.79-.024-.407-.06-.861-.096-1.352M438.7769 240.8679c-.577-5.291-2.194-11.884-5.554-16.482-2.751-3.765-7.091-7.399-12.749-10.898.07-1.656.146-3.336.231-5.038 6.304 3.595 11.144 7.283 14.09 11.315 1.914 2.619 3.256 5.581 4.169 8.516-.045 4.488-.109 8.679-.187 12.587" fill="#364971"/>
    <path d="M421.2048 277.6661c5.398-1.041 10.712-1.041 15.99.072-.012.191-.036.323-.047.419-.611 3.746-5.135 15.068-7.936 15.068-2.812 0-7.325-11.322-7.947-15.068-.012-.096-.036-.264-.06-.491" fill="#5686cc"/>
    <path d="M423.1511 267.3765c0 .682.553 1.236 1.236 1.236.682 0 1.235-.554 1.235-1.236 0-.682-.553-1.236-1.235-1.236-.683 0-1.236.554-1.236 1.236M423.1511 261.7495c0 .682.553 1.236 1.236 1.236.682 0 1.235-.554 1.235-1.236 0-.682-.553-1.236-1.235-1.236-.683 0-1.236.554-1.236 1.236M423.1511 256.1223c0 .682.553 1.236 1.236 1.236.682 0 1.235-.554 1.235-1.236 0-.682-.553-1.236-1.235-1.236-.683 0-1.236.554-1.236 1.236" fill="#364971"/>
    <g clip-path="url(#q)" opacity=".5">
      <path d="M437.152 278.153c-.619 3.745-5.13 15.066-7.939 15.076l-.001-.003c2.858-4.833 2.665-10.089 3.231-19.902.343-5.954 1.681-42.735 1.134-73.898l5.396.396c.427 48.659-1.465 76.175-1.821 78.331" fill="#4771bd"/>
    </g>
    <g clip-path="url(#r)">
      <path d="M426.8295 267.3765c.182 8.232.234 24.273 2.383 25.852-3.066-1.521-6.449-10.975-6.911-27.23-.7-24.647.325-51.264 1.159-67.317l4.298.316c-.389 22.246-1.059 62.471-.929 68.379" fill="#adcbf7"/>
    </g>
    <g clip-path="url(#s)">
      <g clip-path="url(#t)" opacity=".69999701">
        <g mask="url(#u)">
          <path d="M421.266 198.521c-2.922 45.522-.356 77.476 0 79.632.619 3.747 5.134 15.076 7.943 15.076 2.809 0 7.324-11.329 7.943-15.076.356-2.156 2.248-29.672 1.821-78.331z" fill="url(#v)"/>
        </g>
      </g>
    </g>
    <path d="M502.2837 198.5208c2.922 45.522.356 77.477 0 79.632-.619 3.747-5.134 15.077-7.943 15.077-2.809 0-7.324-11.33-7.943-15.077-.356-2.155-2.248-29.672-1.821-78.331z" fill="#71a6ea"/>
    <path d="M502.6441 274.1592c-5.59-1.125-11.107-1.125-16.577.072h-.012c.012.167.024.323.036.479.012.251.036.478.048.706.024.359.048.682.072.969.012.036.012.06.012.084.024.335.06.622.084.862 0 .084.011.155.023.227 0 .072 0 .12.012.18h.012c5.279-1.113 10.593-1.113 15.991-.072.036-.323.084-.778.131-1.365.024-.239.048-.502.072-.79.024-.407.06-.861.096-1.352M484.7728 240.8679c.577-5.291 2.194-11.884 5.554-16.482 2.751-3.765 7.091-7.399 12.749-10.898-.07-1.656-.146-3.336-.231-5.038-6.304 3.595-11.144 7.283-14.09 11.315-1.914 2.619-3.256 5.581-4.169 8.516.045 4.488.109 8.679.187 12.587" fill="#364971"/>
    <path d="M502.3449 277.6661c-5.398-1.041-10.712-1.041-15.99.072.012.191.036.323.047.419.611 3.746 5.135 15.068 7.936 15.068 2.813 0 7.325-11.322 7.947-15.068.012-.096.036-.264.06-.491" fill="#5686cc"/>
    <path d="M500.3986 267.3765c0 .682-.553 1.236-1.236 1.236-.682 0-1.235-.554-1.235-1.236 0-.682.553-1.236 1.235-1.236.683 0 1.236.554 1.236 1.236M500.3986 261.7495c0 .682-.553 1.236-1.236 1.236-.682 0-1.235-.554-1.235-1.236 0-.682.553-1.236 1.235-1.236.683 0 1.236.554 1.236 1.236M500.3986 256.1223c0 .682-.553 1.236-1.236 1.236-.682 0-1.235-.554-1.235-1.236 0-.682.553-1.236 1.235-1.236.683 0 1.236.554 1.236 1.236" fill="#364971"/>
    <g>
      <g clip-path="url(#w)" opacity=".5">
        <path d="M486.3977 278.153c.619 3.745 5.13 15.066 7.939 15.076l.001-.003c-2.858-4.833-2.665-10.089-3.231-19.902-.343-5.954-1.681-42.735-1.134-73.898l-5.396.396c-.427 48.659 1.465 76.175 1.821 78.331" fill="#4771bd"/>
      </g>
    </g>
    <g>
      <g clip-path="url(#x)">
        <path d="M496.7202 267.3765c-.182 8.232-.234 24.273-2.383 25.852 3.066-1.521 6.449-10.975 6.911-27.23.7-24.647-.325-51.264-1.159-67.317l-4.298.316c.389 22.246 1.059 62.471.929 68.379" fill="#adcbf7"/>
      </g>
    </g>
    <g>
      <g clip-path="url(#y)">
        <g clip-path="url(#z)" opacity=".69999701">
          <g mask="url(#A)">
            <path d="M502.284 198.521c2.922 45.522.356 77.476 0 79.632-.619 3.747-5.134 15.076-7.943 15.076-2.809 0-7.324-11.329-7.943-15.076-.356-2.156-2.248-29.672-1.822-78.331z" fill="url(#B)"/>
          </g>
        </g>
      </g>
    </g>
  </g>
  <path d="M460.434 150.806c-12.578-.681-22.678-11.291-22.779-23.886-.06-7.458 3.271-14.131 8.54-18.59 3.507-2.968 5.677-7.216 5.677-11.811V72.712h19.806v23.704c0 4.642 2.178 8.941 5.715 11.947 5.2 4.419 8.503 10.999 8.503 18.358 0 13.322-10.801 24.12-24.122 24.121-.445 0-.891-.012-1.34-.036" fill="url(#C)" transform="matrix(.35278 0 0 -.35278 -30.742083 144.93072)"/>
  <g clip-path="url(#D)" transform="matrix(.35278 0 0 -.35278 -30.742083 144.93072)">
    <path d="M475.2292 126.7213c0 7.608-6.314 13.741-13.988 13.444-6.979-.27-12.728-6.091-12.916-13.073-.126-4.679 2.14-8.827 5.662-11.328 2.822-2.003 4.415-5.321 4.415-8.782v-34.271h6.746v34.102c0 3.51 1.559 6.922 4.42 8.956 3.425 2.434 5.661 6.428 5.661 10.952" fill="#fcd16c"/>
    <path d="M465.5502 117.8074c0 3.473 2.815 6.288 6.288 6.288 3.473 0 6.289-2.815 6.289-6.288 0-3.473-2.816-6.288-6.289-6.288s-6.288 2.815-6.288 6.288M467.9974 130.3246c0 2.121 1.72 3.841 3.841 3.841 2.122 0 3.841-1.72 3.841-3.841 0-2.121-1.719-3.841-3.841-3.841-2.121 0-3.841 1.72-3.841 3.841M460.6559 136.4542c0 1.051.852 1.903 1.903 1.903 1.052 0 1.904-.852 1.904-1.903 0-1.051-.852-1.903-1.904-1.903-1.051 0-1.903.852-1.903 1.903M445.4516 134.1658c0 2.852 2.312 5.165 5.165 5.165 2.852 0 5.164-2.313 5.164-5.165s-2.312-5.165-5.164-5.165c-2.853 0-5.165 2.313-5.165 5.165M444.5901 124.8308c0-1.337 1.084-2.422 2.422-2.422 1.337 0 2.422 1.085 2.422 2.422 0 1.337-1.085 2.422-2.422 2.422-1.338 0-2.422-1.085-2.422-2.422M446.3972 116.3538c0 2.173 1.761 3.934 3.934 3.934s3.934-1.761 3.934-3.934-1.761-3.934-3.934-3.934-3.934 1.761-3.934 3.934M455.7808 110.4124c0 1.789 1.45 3.239 3.239 3.239s3.239-1.45 3.239-3.239-1.45-3.239-3.239-3.239-3.239 1.45-3.239 3.239M439.991 130.3246c0 .912.74 1.652 1.652 1.652.912 0 1.652-.74 1.652-1.652 0-.912-.74-1.652-1.652-1.652-.912 0-1.652.74-1.652 1.652M475.9224 137.1547c0 1.202.974 2.176 2.176 2.176 1.201 0 2.175-.974 2.175-2.176 0-1.202-.974-2.176-2.175-2.176-1.202 0-2.176.974-2.176 2.176M478.0843 126.4833c0 1.209.98 2.189 2.189 2.189 1.21 0 2.19-.98 2.19-2.189s-.98-2.189-2.19-2.189c-1.209 0-2.189.98-2.189 2.189M455.4021 124.7114c0 1.209.98 2.189 2.189 2.189 1.21 0 2.19-.98 2.19-2.189s-.98-2.189-2.19-2.189c-1.209 0-2.189.98-2.189 2.189" fill="#ffedb2"/>
    <path d="M452.9046 172.0299l-7.485-23.189c-.469-1.45.135-3.021 1.447-3.797 2.389-1.411 6.998-3.224 14.908-3.224 7.91 0 12.519 1.813 14.909 3.224 1.312.776 1.915 2.347 1.447 3.797l-7.486 23.189z" fill="#6292dc"/>
    <path d="M461.7748 147.4395c-8.795 0-13.501 2.239-15.621 3.678l-.735-2.276c-.468-1.451.135-3.022 1.448-3.797 2.389-1.412 6.998-3.225 14.908-3.225 7.91 0 12.519 1.813 14.908 3.225 1.313.775 1.916 2.346 1.448 3.797l-.735 2.276c-2.12-1.439-6.826-3.678-15.621-3.678M461.7748 164.0022c4.792 0 8.366.667 10.976 1.505l-2.106 6.523h-7.984c-.295-.005-.582-.014-.886-.014-.304 0-.591.009-.886.014h-7.984l-2.106-6.523c2.61-.838 6.184-1.505 10.976-1.505" fill="#19313a"/>
    <g clip-path="url(#E)">
      <path d="M452.6888 146.4687c.244 1.486 2.409 17.852 3.425 25.561h-2.68l-5.113-27.745c2.638-1.226 6.916-2.465 13.454-2.465 7.91 0 12.519 1.813 14.908 3.225-11.445-4.012-24.314-.526-23.994 1.424" fill="#adcbf7"/>
    </g>
    <g clip-path="url(#F)">
      <g clip-path="url(#G)">
        <g mask="url(#H)">
          <path d="M473.017 143.409c-2.63-.878-6.288-1.589-11.242-1.589v30.21h7.759z" fill="url(#I)"/>
        </g>
      </g>
    </g>
    <path d="M482.024 308.4858c-3.196 12.349-14.859 32.044-20.249 32.044-5.39 0-17.053-19.695-20.249-32.044-1.992-7.695-2.377-43.206 0-72.964l20.249.405 19.782-.266c2.377 29.757 2.459 65.13.467 72.825" fill="#e67686"/>
    <path d="M439.8914 276.0756c.005-1.204.014-2.419.027-3.654 14.438 3.352 28.91 3.352 43.414.048.024 1.251.042 2.481.057 3.699-14.345 3.631-29.251 3.592-43.498-.093M440.3268 297.5583c14.239 3.464 28.512 3.447 42.82 0-.127 2.758-.195 3.502-.195 3.502-13.965 3.705-28.531 3.683-42.402-.038 0 0-.072-.706-.223-3.464" fill="#a53563"/>
    <g clip-path="url(#J)" opacity=".5">
      <path d="M471.8386 288.0259c-.436-11.672-1.039-34.633-1.477-52.215l11.196-.151c2.376 29.758 2.458 65.131.466 72.826-3.196 12.349-14.859 32.044-20.249 32.044 6.495-5.013 10.828-32.035 10.064-52.504" fill="#c94577"/>
    </g>
    <g clip-path="url(#K)">
      <path d="M458.8965 339.2278c-4.207-8.521-6.95-29.097-6.95-48.499 0-19.403.74-74.556.74-74.556h-7.868s-.597 60.53-.228 79.556c.389 20.069 7.249 34.952 14.306 43.499" fill="#f9e8a0"/>
    </g>
    <g clip-path="url(#L)">
      <g clip-path="url(#M)" opacity=".5">
        <g mask="url(#N)">
          <path d="M482.024 308.486c-3.196 12.349-14.859 32.044-20.249 32.044-5.39 0-17.053-19.695-20.249-32.044-1.992-7.695-2.377-43.206 0-72.964l20.249.405 19.782-.267c2.377 29.758 2.459 65.131.467 72.826" fill="url(#O)"/>
        </g>
      </g>
    </g>
    <path d="M447.8741 173.498l-7.087-15.976c-1.025-4.172 16.006-8.358 17.031-4.186l1.078 17.863z" fill="#def1f8"/>
    <path d="M458.0677 157.4693l.246 4.07c-3.621-.964-11.412.945-14.203 3.475l-1.563-3.523c1.982-3.06 11.978-5.586 15.52-4.022M449.6752 173.1225l-1.801.376-1.522-3.432c2.928-1.909 8.722-3.21 12.307-2.793l.237 3.926-1.542.322c-2.451.091-5.341.698-7.679 1.601" fill="#ea4c8e"/>
    <g clip-path="url(#P)">
      <path d="M451.9522 172.6476l-2.14.446-7.504-18.191c2.716-1.985 8.365-3.474 12.057-3.269-3.959.233-8.81 2.827-7.968 5.291.679 1.987 4.089 11.595 5.555 15.723" fill="#adcbf7"/>
    </g>
    <g clip-path="url(#Q)" opacity=".5">
      <path d="M448.6868 152.2646c4.212-1.009 8.625-.99 9.131 1.071l1.079 17.864-5.036 1.05c-1.441-5.499-4.187-16.154-5.174-19.985" fill="#9ab5ec"/>
    </g>
    <path d="M475.2019 173.498l7.087-15.976c1.025-4.172-16.006-8.358-17.031-4.186l-1.078 17.863z" fill="#def1f8"/>
    <path d="M465.0084 157.4693l-.246 4.07c3.621-.964 11.412.945 14.203 3.475l1.563-3.523c-1.982-3.06-11.978-5.586-15.52-4.022M473.4009 173.1225l1.801.376 1.522-3.432c-2.928-1.909-8.722-3.21-12.307-2.793l-.237 3.926 1.542.322c2.451.091 5.341.698 7.679 1.601" fill="#ea4c8e"/>
    <g clip-path="url(#R)">
      <path d="M467.9973 151.6967c3.777-.484 10.356 1.212 13.088 3.454-4.527-1.872-8.979-2.041-9.586.73-.45 2.056-2.16 11.487-3.012 16.217l-2.382-.497z" fill="#adcbf7"/>
    </g>
    <g clip-path="url(#S)" opacity=".5">
      <path d="M470.7092 172.5611l4.984-19.948c3.796 1.116 7.062 3.012 6.596 4.909l-7.087 15.976z" fill="#9ab5ec"/>
    </g>
    <path d="M441.6577 233.0226c.305-5.029-.915-15.836-5.769-22.478-4.456-6.098-13.219-11.41-24.877-16.802-10.419-4.819-15.108-11.331-14.717-20.839l49.757 6.76z" fill="#b9cffe"/>
    <path d="M445.3138 188.6226l-47.373-6.437c-.714-1.57-1.188-3.254-1.441-5.057l49.21 6.686z" fill="#ea4c8e"/>
    <g clip-path="url(#T)">
      <path d="M413.1915 192.974c8.945 4.622 20.436 9.733 25.773 18.487 2.587 4.244 3.297 9.438 3.343 13.667l-.65 7.895c.306-5.029-.915-15.836-5.769-22.479-4.455-6.097-13.219-11.41-24.877-16.801-9.517-4.402-14.238-10.224-14.69-18.443l-.027-2.396 1.984.269c.444 11.806 5.968 15.179 14.913 19.801" fill="#fff"/>
    </g>
    <g clip-path="url(#U)" opacity=".5">
      <path d="M442.8024 219.1215c-.217-7.71-6.906-15.712-14.063-20.017-7.144-4.296-18.194-8.314-23.669-13.58-3.093-2.974-4.551-7.3-4.401-12.027l45.382 6.167z" fill="#9ab5ec"/>
    </g>
    <g clip-path="url(#V)">
      <g clip-path="url(#W)" opacity=".30000299">
        <g mask="url(#X)">
          <path d="M441.658 233.023c.305-5.029-.915-15.836-5.769-22.479-4.456-6.097-13.219-11.41-24.877-16.801-10.42-4.819-15.108-11.332-14.718-20.839l49.757 6.76z" fill="url(#Y)"/>
        </g>
      </g>
    </g>
    <path d="M409.4441 168.7623l23.582 3.204c1.943.264 3.476 1.785 3.756 3.726l.399 2.767-33.276-4.522.805-2.284c.693-1.964 2.67-3.171 4.734-2.891" fill="#6292dc"/>
    <g clip-path="url(#Z)" opacity=".5">
      <path d="M425.2843 176.8425l11.896 1.616-.398-2.766c-.28-1.942-1.813-3.462-3.757-3.726l-7.576-1.03z" fill="#4771bd"/>
    </g>
    <g clip-path="url(#aa)">
      <g clip-path="url(#ab)">
        <g mask="url(#ac)">
          <path d="M409.444 168.762l23.582 3.204c1.943.264 3.476 1.785 3.756 3.726l.399 2.767-33.276-4.521.805-2.284c.693-1.965 2.67-3.172 4.734-2.892" fill="url(#ad)"/>
        </g>
      </g>
    </g>
    <g clip-path="url(#ae)">
      <path d="M415.1895 169.5429l-3.001-.408-2.426 5.599 4.345.59z" fill="#adcbf7"/>
    </g>
    <path d="M415.0282 164.1213l13.356 1.815c1.092.148 1.965.98 2.167 2.063l.695 3.725-20.127-2.734 1.163-3.208c.41-1.131 1.554-1.823 2.746-1.661" fill="#19313a"/>
    <g>
      <g clip-path="url(#af)">
        <path d="M416.4211 169.5842c.596-2.682 1.025-3.613 2.99-3.648 1.964-.036 8.973 0 8.973 0l-13.356-1.815-1.964 5.014z" fill="#adcbf7"/>
      </g>
    </g>
    <g>
      <g clip-path="url(#ag)">
        <g clip-path="url(#ah)">
          <g mask="url(#ai)">
            <path d="M430.552 167.999c-.202-1.083-1.076-1.915-2.168-2.063l-1.358-.185.39 5.453 3.83.521z" fill="url(#aj)"/>
          </g>
        </g>
      </g>
    </g>
    <g>
      <path d="M481.4184 233.0226c-.305-5.029.915-15.836 5.769-22.478 4.456-6.098 13.219-11.41 24.877-16.802 10.419-4.819 15.108-11.331 14.717-20.839l-49.757 6.76z" fill="#a2bff4"/>
    </g>
    <g>
      <path d="M477.7623 188.6226l47.373-6.437c.714-1.57 1.188-3.254 1.441-5.057l-49.21 6.686z" fill="#ea4c8e"/>
    </g>
    <g>
      <g clip-path="url(#ak)">
        <path d="M509.8846 192.974c-8.945 4.622-20.436 9.733-25.773 18.487-2.587 4.244-3.297 9.438-3.343 13.667l.65 7.895c-.306-5.029.915-15.836 5.769-22.479 4.455-6.097 13.219-11.41 24.877-16.801 9.517-4.402 14.238-10.224 14.69-18.443l.027-2.396-1.984.269c-.444 11.806-5.968 15.179-14.913 19.801" fill="#fff"/>
      </g>
    </g>
    <g>
      <g clip-path="url(#al)" opacity=".39999402">
        <path d="M480.2737 219.1215c.217-7.71 6.906-15.712 14.063-20.017 7.144-4.296 18.194-8.314 23.669-13.58 3.093-2.974 4.551-7.3 4.401-12.027l-45.382 6.167z" fill="#4771bd"/>
      </g>
    </g>
    <g>
      <g clip-path="url(#am)">
        <g clip-path="url(#an)" opacity=".5">
          <g mask="url(#ao)">
            <path d="M481.418 233.023c-.305-5.029.915-15.836 5.769-22.479 4.456-6.097 13.219-11.41 24.877-16.801 10.42-4.819 15.108-11.332 14.718-20.839l-49.757 6.76z" fill="url(#ap)"/>
          </g>
        </g>
      </g>
    </g>
    <g>
      <path d="M508.0479 164.1213l-13.356 1.815c-1.092.148-1.965.98-2.167 2.063l-.695 3.725 20.127-2.734-1.163-3.208c-.41-1.131-1.554-1.823-2.746-1.661" fill="#19313a"/>
    </g>
    <g>
      <g clip-path="url(#aq)">
        <path d="M506.655 169.5842c-.596-2.682-1.025-3.613-2.99-3.648-1.964-.036-8.973 0-8.973 0l13.356-1.815 1.964 5.014z" fill="#adcbf7"/>
      </g>
    </g>
    <g>
      <g clip-path="url(#ar)">
        <g clip-path="url(#as)">
          <g mask="url(#at)">
            <path d="M492.525 167.999c.202-1.083 1.075-1.915 2.167-2.063l1.358-.185-.39 5.453-3.83.521z" fill="url(#au)"/>
          </g>
        </g>
      </g>
    </g>
    <g>
      <path d="M513.632 168.7623l-23.582 3.204c-1.943.264-3.476 1.785-3.756 3.726l-.399 2.767 33.276-4.522-.805-2.284c-.693-1.964-2.67-3.171-4.734-2.891" fill="#6292dc"/>
    </g>
    <g>
      <g clip-path="url(#av)" opacity=".5">
        <path d="M497.7918 176.8425l-11.896 1.616.398-2.766c.28-1.942 1.813-3.462 3.757-3.726l7.576-1.03z" fill="#4771bd"/>
      </g>
    </g>
    <g>
      <g clip-path="url(#aw)">
        <g clip-path="url(#ax)">
          <g mask="url(#ay)">
            <path d="M513.632 168.762l-23.582 3.204c-1.943.264-3.476 1.785-3.756 3.726l-.399 2.767 33.276-4.521-.805-2.284c-.693-1.965-2.67-3.172-4.734-2.892" fill="url(#az)"/>
          </g>
        </g>
      </g>
    </g>
    <g>
      <g clip-path="url(#aA)">
        <path d="M507.8865 169.5429l3.001-.408 2.426 5.599-4.345.59z" fill="#adcbf7"/>
      </g>
    </g>
    <g>
      <path d="M500.1632 170.5923l2.235-.304.328 5.884-2.355.32z" fill="#4771bd"/>
    </g>
  </g>
  <path d="M415.028 164.121l-12.199-91.409h38.595l-13.04 93.224z" fill="url(#aB)" transform="matrix(.35278 0 0 -.35278 -30.742083 144.93072)"/>
  <g clip-path="url(#aC)" transform="matrix(.35278 0 0 -.35278 -30.742083 144.93072)">
    <path d="M425.4244 165.5338l3.815-38.516c.305-3.082-2.116-5.754-5.213-5.754h-4.438c-3.118 0-5.545 2.707-5.207 5.806l4.093 37.52z" fill="#fcd16c"/>
    <path d="M420.0393 164.8021l-1.215-20.778c-.091-1.564 1.152-2.883 2.719-2.883h.417c1.561 0 2.803 1.31 2.719 2.87l-1.144 21.266zM421.1617 128.0443c0 1.619 1.313 2.932 2.932 2.932s2.932-1.313 2.932-2.932-1.313-2.932-2.932-2.932-2.932 1.313-2.932 2.932" fill="#ffedb2"/>
    <path d="M426.3437 115.5073c0 1.975 1.601 3.576 3.576 3.576s3.576-1.601 3.576-3.576-1.601-3.576-3.576-3.576-3.576 1.601-3.576 3.576M417.432 115.7426c0 1.296 1.051 2.347 2.347 2.347 1.297 0 2.347-1.051 2.347-2.347s-1.05-2.347-2.347-2.347c-1.296 0-2.347 1.051-2.347 2.347M429.9196 107.1736c0 1.296 1.051 2.347 2.347 2.347 1.297 0 2.347-1.051 2.347-2.347s-1.05-2.347-2.347-2.347c-1.296 0-2.347 1.051-2.347 2.347" fill="#fcd16c"/>
    <path d="M417.1242 135.6845c0 .936.759 1.696 1.696 1.696.936 0 1.695-.76 1.695-1.696 0-.936-.759-1.696-1.695-1.696-.937 0-1.696.76-1.696 1.696" fill="#ffedb2"/>
    <path d="M412.1691 120.4041c0 .475.385.86.86.86s.859-.385.859-.86-.384-.86-.859-.86-.86.385-.86.86" fill="#fcd16c"/>
  </g>
  <path d="M481.652 72.712h38.595l-12.199 91.409-13.356 1.815z" fill="url(#aD)" transform="matrix(.35278 0 0 -.35278 -30.742083 144.93072)"/>
  <g clip-path="url(#aE)" transform="matrix(.35278 0 0 -.35278 -30.94479463 144.9290804)">
    <path d="M497.6517 165.5338l-3.815-38.516c-.305-3.082 2.116-5.754 5.213-5.754h4.438c3.118 0 5.545 2.707 5.207 5.806l-4.093 37.52z" fill="#fcd16c"/>
    <path d="M503.0368 164.8021l1.215-20.778c.091-1.564-1.152-2.883-2.719-2.883h-.417c-1.561 0-2.803 1.31-2.719 2.87l1.144 21.266zM501.9144 128.0443c0 1.619-1.313 2.932-2.932 2.932s-2.932-1.313-2.932-2.932 1.313-2.932 2.932-2.932 2.932 1.313 2.932 2.932" fill="#ffedb2"/>
    <path d="M496.7324 115.5073c0 1.975-1.601 3.576-3.576 3.576s-3.576-1.601-3.576-3.576 1.601-3.576 3.576-3.576 3.576 1.601 3.576 3.576M504.5406 116.8946c0 1.209-.98 2.189-2.189 2.189-1.208 0-2.188-.98-2.188-2.189s.98-2.189 2.188-2.189c1.209 0 2.189.98 2.189 2.189M512.7886 112.4199c0 1.209-.98 2.189-2.189 2.189-1.208 0-2.188-.98-2.188-2.189s.98-2.189 2.188-2.189c1.209 0 2.189.98 2.189 2.189" fill="#fcd16c"/>
    <path d="M505.9519 135.6845c0 .936-.759 1.696-1.696 1.696-.936 0-1.695-.76-1.695-1.696 0-.936.759-1.696 1.695-1.696.937 0 1.696.76 1.696 1.696" fill="#ffedb2"/>
    <path d="M510.907 120.4041c0 .475-.385.86-.86.86s-.859-.385-.859-.86.384-.86.859-.86.86.385.86.86" fill="#fcd16c"/>
    <path d="M461.5381 171.1244c9.961 0 14.941 2.988 14.941 2.988s6.972 69.226 4.98 74.945c-1.992 5.719-13.945 33.376-19.921 33.376-5.976 0-17.929-27.657-19.921-33.376-1.992-5.719 4.98-74.945 4.98-74.945s4.98-2.988 14.941-2.988" fill="#d5eaff"/>
    <path d="M471.1194 271.3434c-3.459 6.14-7.054 11.09-9.581 11.09-2.53 0-6.129-4.959-9.592-11.108 6.464 1.155 12.856 1.188 19.173.018" fill="#19313a"/>
    <path d="M441.5257 235.5221c.04-.81.084-1.643.132-2.5 13.256 3.827 26.512 3.876 39.768.138.048.857.092 1.691.131 2.5-13.343 3.788-26.687 3.739-40.031-.138M443.8218 203.9793c.072-.834.144-1.662.215-2.483 11.671 2.97 23.342 3.011 35.012.119.072.821.144 1.649.216 2.483-11.815 2.965-23.629 2.924-35.443-.119" fill="#364971"/>
    <g clip-path="url(#aF)" opacity=".60000598">
      <path d="M473.2565 247.5928c1.186-10.257-2.855-57.215-4.548-75.895 5.171.868 7.77 2.415 7.77 2.415s6.973 69.226 4.981 74.945c-1.992 5.719-13.945 33.376-19.922 33.376 3.968-1.927 10.23-21.964 11.719-34.841" fill="#71a6ea"/>
    </g>
    <g clip-path="url(#aG)">
      <path d="M446.3518 235.6185c.68-14.911 3.724-56.566 4.201-63.062 1.39-.405 3.152-.8 5.277-1.074 0 0-1.614 24.86-3.883 57.092-1.916 27.218 6.353 48.911 9.591 53.859-8.033-7.394-15.978-29.436-15.186-46.815" fill="#fff"/>
    </g>
    <path d="M449.0805 254.4698c8.307 2.414 16.615 2.444 24.922.086l-.921 1.276c-2.005 2.777-5.078 4.652-8.487 4.983-2.048.198-4.096.19-6.144-.026-3.387-.356-6.433-2.23-8.42-4.996z" fill="#19313a"/>
    <g clip-path="url(#aH)">
      <path d="M460.9212 256.2778c1.81.032 3.62-.059 5.43-.253l3.135 3.135c-1.264.77-2.666 1.294-4.144 1.539z" fill="#adcbf7"/>
    </g>
    <g clip-path="url(#aI)">
      <path d="M457.2685 256.0508l4.893 4.893c-1.106.019-2.211-.021-3.317-.123l-5.313-5.313c1.246.234 2.491.416 3.737.543" fill="#adcbf7"/>
    </g>
    <path d="M450.7993 172.4874c2.482-.701 6.051-1.363 10.739-1.363 4.963 0 8.689.742 11.179 1.487-.497 1.847-7.045 25.909-10.942 25.909-4.052 0-10.973-26.022-10.976-26.033" fill="#71a6ea"/>
    <g>
      <g clip-path="url(#aJ)" opacity=".5">
        <path d="M472.7172 172.6111c-.497 1.847-7.045 25.91-10.942 25.91.939-2.693 3.252-16.131 4.417-27.161 2.706.278 4.888.762 6.525 1.251" fill="#4771bd"/>
      </g>
    </g>
    <g>
      <g clip-path="url(#aK)">
        <path d="M457.2389 187.6104c-.69-4.138-1.74-11.067-2.475-15.975.97-.153 2.022-.281 3.165-.37.205 2.921.514 6.954.968 12.101 1.045 11.869 2.164 14.91 2.878 15.154-1.582-.386-3.382-3.983-4.536-10.91" fill="#adcbf7"/>
      </g>
    </g>
    <g>
      <path d="M476.7092 81.776c-.19.193-.393.373-.595.554.108-.941.275-1.863.483-2.77.001.748.048 1.485.112 2.216" fill="#ad6475"/>
    </g>
  </g>
  <g>
    <g clip-path="url(#aL)" transform="matrix(.35278 0 0 -.35278 -38.29150975 146.17730355)">
      <path d="M631.4341 253.0461c-11.741 0-21.269-9.527-21.269-21.269 0-3.758.982-7.289 2.693-10.353-.107.012-.215.024-.311.024-5.099 0-9.24-4.033-9.455-9.084-2.25 1.927-5.171 3.088-8.355 3.088-7.145 0-12.938-5.793-12.938-12.938 0-.132.012-.252.024-.383-1.293.239-2.633.383-3.998.383-11.741 0-21.268-9.528-21.268-21.269 0-10.377 7.421-18.995 17.247-20.886-.503-1.915-.79-3.914-.79-5.972 0-11.119 7.624-20.431 17.929-23.04-2.417-1.999-3.949-5.015-3.949-8.39 0-.347.024-.683.06-1.018-.384.024-.767.048-1.15.048-3.363 0-6.415-1.292-8.713-3.399-3.638 10.054-13.261 17.235-24.56 17.235-14.41 0-26.104-11.681-26.104-26.104 0-2.729.431-5.362 1.209-7.84-2.047-.418-3.902-1.328-5.47-2.585-4.548 6.775-12.268 11.239-21.029 11.239-13.98 0-25.302-11.335-25.302-25.302 0-.982.072-1.951.179-2.897-2.286 2.047-5.302 3.316-8.617 3.316-5.398 0-10.018-3.304-11.957-7.995-1.939 4.691-6.559 7.995-11.945 7.995-2.645 0-5.099-.802-7.146-2.167 0 .156.012.312.012.455 0 16.338-13.249 29.587-29.587 29.587-5.601 0-10.843-1.556-15.308-4.273-2.166 9.025-10.269 15.739-19.952 15.739-5.876 0-11.155-2.477-14.901-6.415-2.25 2.071-5.23 3.351-8.522 3.411 1.329 3.316 2.059 6.93 2.059 10.724 0 16.003-12.962 28.977-28.965 28.977-6.224 0-11.993-1.975-16.72-5.314-2.502 3.327-5.973 5.888-10.018 7.205 4.907 5.326 7.911 12.436 7.911 20.239 0 16.493-13.369 29.851-29.85 29.851-1.472 0-2.909-.108-4.321-.312.635 2.454.97 5.039.97 7.696 0 16.96-13.741 30.7-30.7 30.7-9.564 0-18.097-4.368-23.723-11.226-3.758 4.979-9.694 8.198-16.397 8.198-3.471 0-6.727-.861-9.599-2.382.012.372.036.743.036 1.114 0 19.281-15.631 34.913-34.925 34.913-5.745 0-11.167-1.401-15.943-3.854 1.006 2.429 1.58 5.098 1.58 7.899 0 11.347-9.204 20.551-20.55 20.551-3.651 0-7.074-.946-10.042-2.633V72.7111H634.2231v180.132c-.922.119-1.844.203-2.789.203" fill="#58448b"/>
      <path d="M516.5092 72.7115h-27.385c0 7.564 6.128 13.692 13.693 13.692 7.564 0 13.692-6.128 13.692-13.692M347.8203 72.7115h-35.021c0 9.671 7.84 17.51 17.511 17.51 9.67 0 17.51-7.839 17.51-17.51M424.9355 72.7115h-50.951c-1.485 2.011-2.37 4.488-2.37 7.181 0 6.655 5.386 12.053 12.052 12.053 6.559 0 11.874-5.242 12.041-11.765 3.172 3.195 7.552 5.17 12.412 5.17 7.983 0 14.709-5.338 16.816-12.639M634.2228 116.9723v-44.261h-96.421c4.859 8.953 14.339 15.021 25.242 15.021 4.967 0 9.647-1.269 13.728-3.495 1.808 5.219 6.751 8.989 12.592 8.989 1.28 0 2.501-.192 3.674-.527.814 15.129 13.333 27.134 28.666 27.134 4.488 0 8.737-1.03 12.519-2.861M634.2228 192.4598v-60.395c-.586-.06-1.185-.084-1.783-.084-10.665 0-19.318 8.654-19.318 19.318 0 7.469 4.249 13.932 10.461 17.152-2.957 2.513-4.836 6.247-4.836 10.436 0 7.565 6.128 13.693 13.693 13.693.61 0 1.197-.036 1.783-.12M280.0048 99.4858c-3.435 0-6.679-.85-9.539-2.322.526 1.472.826 3.04.826 4.692 0 7.672-6.212 13.884-13.884 13.884-4.5 0-8.498-2.155-11.036-5.482-.107 7.863-6.511 14.207-14.398 14.207-3.004 0-5.793-.922-8.091-2.501.239 1.34.383 2.704.383 4.105 0 12.304-9.97 22.274-22.274 22.274-8.175 0-15.296-4.417-19.174-10.964.012.156.024.3.024.467 0 7.624-5.937 13.848-13.429 14.351 6.954 2.322 11.993 8.869 11.993 16.613 0 9.67-7.852 17.51-17.523 17.51-2.765 0-5.362-.658-7.684-1.795 1.101 2.764 1.736 5.769 1.736 8.928 0 13.238-10.736 23.974-23.974 23.974-4.704 0-9.084-1.376-12.783-3.71-2.094 2.669-5.134 4.56-8.629 5.146 3.243 3.172 5.266 7.601 5.266 12.496 0 6.511-3.555 12.184-8.821 15.2V72.7118h191.071v.012c.562 1.855.85 3.83.85 5.864 0 11.538-9.36 20.898-20.91 20.898" fill="#48376d"/>
      <path d="M238.9277 72.7115h-43.914c2.753 9.539 11.538 16.505 21.963 16.505 10.413 0 19.198-6.966 21.951-16.505M182.7699 83.4117c0-3.77-.694-7.373-1.951-10.7h-71.825v95.092c14.913-3.159 26.104-16.421 26.104-32.28 0-3.973-.694-7.779-1.987-11.31.024 0 .036.012.06.012 6.559 0 11.969-4.931 12.759-11.275 2.118.467 4.321.718 6.583.718 16.708 0 30.257-13.548 30.257-30.257M634.2228 103.4592c-.487.042-.976.074-1.473.074-9.461 0-17.13-7.669-17.13-17.129 0-.103.014-.203.015-.305-.808.192-1.646.305-2.513.305-5.983 0-10.832-4.85-10.832-10.833 0-.966.138-1.898.376-2.789l31.557-.071z" fill="#3e3063"/>
      <path d="M245.1767 191.6994c0 5.205 4.219 9.424 9.424 9.424 5.205 0 9.425-4.219 9.425-9.424 0-5.205-4.22-9.424-9.425-9.424-5.205 0-9.424 4.219-9.424 9.424M595.3171 188.4584c0 3.851 3.122 6.972 6.972 6.972 3.851 0 6.973-3.121 6.973-6.972 0-3.851-3.122-6.972-6.973-6.972-3.85 0-6.972 3.121-6.972 6.972M236.9342 143.3988c0 3.642 2.953 6.595 6.595 6.595 3.643 0 6.595-2.953 6.595-6.595s-2.952-6.595-6.595-6.595c-3.642 0-6.595 2.953-6.595 6.595M281.6016 115.9021c0 2.434 1.973 4.407 4.407 4.407s4.408-1.973 4.408-4.407-1.974-4.407-4.408-4.407-4.407 1.973-4.407 4.407M360.4529 89.2149c0 2.434 1.973 4.407 4.407 4.407s4.408-1.973 4.408-4.407-1.974-4.407-4.408-4.407-4.407 1.973-4.407 4.407M527.8439 82.3285c0 2.434 1.973 4.407 4.407 4.407s4.408-1.973 4.408-4.407-1.974-4.407-4.408-4.407-4.407 1.973-4.407 4.407M182.1378 155.2279c0 2.434 1.973 4.407 4.407 4.407s4.408-1.973 4.408-4.407-1.974-4.407-4.408-4.407-4.407 1.973-4.407 4.407M272.6 185.1849c0 2.486 2.015 4.501 4.501 4.501s4.501-2.015 4.501-4.501-2.015-4.501-4.501-4.501-4.501 2.015-4.501 4.501" fill="#48376d"/>
      <path d="M586.0123 229.3975c0 3.459 2.804 6.263 6.263 6.263s6.263-2.804 6.263-6.263-2.804-6.263-6.263-6.263-6.263 2.804-6.263 6.263M523.5887 137.38c0 2.35 1.905 4.255 4.255 4.255 2.35 0 4.255-1.905 4.255-4.255 0-2.35-1.905-4.255-4.255-4.255-2.35 0-4.255 1.905-4.255 4.255M362.1839 137.38c0 2.35 1.905 4.255 4.255 4.255 2.35 0 4.255-1.905 4.255-4.255 0-2.35-1.905-4.255-4.255-4.255-2.35 0-4.255 1.905-4.255 4.255M308.7111 182.9408c0 4.08 3.307 7.387 7.387 7.387s7.387-3.307 7.387-7.387-3.307-7.387-7.387-7.387-7.387 3.307-7.387 7.387" fill="#58448b"/>
      <path d="M145.8819 131.324c0 5.235 4.243 9.478 9.478 9.478 5.235 0 9.478-4.243 9.478-9.478 0-5.235-4.243-9.478-9.478-9.478-5.235 0-9.478 4.243-9.478 9.478M191.8217 95.6272c0 2.055 1.666 3.722 3.722 3.722 2.055 0 3.721-1.667 3.721-3.722 0-2.055-1.666-3.722-3.721-3.722-2.056 0-3.722 1.667-3.722 3.722M139.7001 149.5131c0 2.055 1.666 3.722 3.722 3.722 2.055 0 3.721-1.667 3.721-3.722 0-2.055-1.666-3.722-3.721-3.722-2.056 0-3.722 1.667-3.722 3.722M242.8137 91.9055c0 4.038 3.273 7.311 7.311 7.311 4.037 0 7.31-3.273 7.31-7.311s-3.273-7.311-7.31-7.311c-4.038 0-7.311 3.273-7.311 7.311M116.2138 190.328c0 4.038 3.273 7.311 7.311 7.311 4.037 0 7.31-3.273 7.31-7.311s-3.273-7.311-7.31-7.311c-4.038 0-7.311 3.273-7.311 7.311M614.116 110.2312c0 1.65 1.338 2.988 2.988 2.988s2.988-1.338 2.988-2.988-1.338-2.988-2.988-2.988-2.988 1.338-2.988 2.988M600.9759 97.4607c0 3.354 2.719 6.073 6.073 6.073 3.354 0 6.073-2.719 6.073-6.073 0-3.354-2.719-6.073-6.073-6.073-3.354 0-6.073 2.719-6.073 6.073" fill="#3e3063"/>
      <path d="M586.9555 207.3696c1.413 3.891 4.631 6.907 8.65 8.034-.289.019-.578.044-.873.044-5.38 0-9.99-3.287-11.938-7.961.483.033.964.074 1.456.074.918 0 1.817-.078 2.705-.191M603.6042 215.0726c-1.404.523-2.917.822-4.504.822-1.212 0-2.381-.179-3.494-.491 2.848-.191 5.443-1.295 7.491-3.035.038.944.212 1.851.507 2.704M476.7092 81.776c1.139 12.917 11.971 23.05 25.184 23.05 7.156 0 13.605-2.983 18.207-7.76.631.824 1.353 1.574 2.162 2.224-4.539 6.775-12.261 11.238-21.028 11.238-13.972 0-25.298-11.326-25.298-25.298 0-.982.069-1.947.178-2.9.202-.181.405-.361.595-.554" fill="#ad6475"/>
      <path d="M476.7092 81.776c-.19.193-.393.373-.595.554.108-.941.275-1.863.483-2.77.001.748.048 1.485.112 2.216M520.1 97.0663c3.127-3.246 5.387-7.32 6.43-11.867 0 .011.001.021.001.031 0 5.204-1.575 10.038-4.269 14.06-.809-.651-1.53-1.4-2.162-2.224M535.5218 101.068c-.47 1.961-.726 4.005-.726 6.11 0 14.415 11.685 26.1 26.1 26.1 1.174 0 2.326-.085 3.458-.235-3.525 1.776-7.505 2.782-11.722 2.782-14.415 0-26.101-11.685-26.101-26.1 0-2.735.423-5.37 1.202-7.846.848.175 1.726.268 2.626.268 1.836 0 3.581-.389 5.163-1.079M542.7584 85.5622c2.024-.828 4.175-1.406 6.416-1.703-2.174 1.094-4.174 2.48-5.947 4.112-.079-.829-.241-1.633-.469-2.409" fill="#ad6475"/>
      <path d="M535.5218 101.068c-1.582.69-3.327 1.079-5.163 1.079-.9 0-1.778-.093-2.626-.268 2.335-7.415 7.89-13.398 15.026-16.317.228.776.39 1.58.469 2.409-3.747 3.449-6.478 7.98-7.706 13.097M579.2791 159.0772c0 .327.036.645.049.968-.498-.034-.994-.075-1.501-.075-1.378 0-2.722.142-4.027.392-.496-1.914-.788-3.911-.788-5.981 0-11.113 7.629-20.42 17.928-23.038 1.884 1.562 4.303 2.502 6.942 2.502 2.377 0 4.568-.77 6.358-2.063 3.753 1.234 7.087 3.374 9.755 6.164-3.272-1.694-6.978-2.667-10.918-2.667-13.143 0-23.798 10.655-23.798 23.798" fill="#ad6475"/>
      <path d="M590.94 131.343c1.881-.478 3.841-.76 5.871-.76 2.597 0 5.09.43 7.43 1.199-1.791 1.293-3.982 2.063-6.359 2.063-2.639 0-5.058-.94-6.942-2.502M562.9769 186.2872c0 5.314 1.961 10.16 5.182 13.889-6.883-3.523-11.605-10.67-11.605-18.933 0-10.371 7.425-18.997 17.247-20.881.57 2.199 1.442 4.271 2.577 6.174-7.848 3.132-13.401 10.786-13.401 19.751" fill="#ad6475"/>
      <path d="M579.3279 160.0456c.075 1.853.356 3.65.831 5.371-1.309.255-2.57.637-3.781 1.12-1.135-1.904-2.007-3.975-2.577-6.174 1.305-.251 2.648-.393 4.026-.393.507 0 1.003.041 1.501.076M597.2774 189.8376c.322.064.637.15.95.238-.38.025-.755.068-1.125.126.057-.122.12-.241.175-.364M581.8206 202.1288c1.589-.302 3.114-.78 4.556-1.414-.128.731-.208 1.48-.208 2.248 0 1.55.287 3.03.787 4.407-.888.113-1.787.19-2.705.19-.492 0-.973-.04-1.456-.073-.638-1.531-.994-3.209-.994-4.971 0-.131.016-.257.02-.387" fill="#ad6475"/>
      <path d="M586.3769 200.7148c-1.443.634-2.967 1.112-4.556 1.414.206-6.961 5.901-12.544 12.912-12.544.871 0 1.721.089 2.545.253-.055.123-.119.241-.176.364-5.454.848-9.773 5.094-10.725 10.513M385.8749 104.7733c1.702 1.716 3.611 3.225 5.689 4.485-2.168 9.022-10.268 15.735-19.955 15.735-1.882 0-3.696-.275-5.428-.749 10.628-.409 19.166-8.874 19.694-19.471M343.8312 133.2784c0-4.994-1.264-9.693-3.489-13.794 2.141 1.57 4.773 2.508 7.632 2.508.074 0 .146-.01.22-.011 1.325 3.32 2.061 6.938 2.061 10.731 0 16-12.971 28.971-28.971 28.971-.209 0-.415-.011-.623-.016 13.22-2.687 23.17-14.375 23.17-28.389M335.7289 113.1945c-5.136-5.336-12.295-8.703-20.246-8.872 1.874-.381 3.814-.582 5.801-.582 5.035 0 9.769 1.287 13.894 3.546-.08.581-.136 1.171-.136 1.774 0 1.448.248 2.835.687 4.134" fill="#ad6475"/>
      <path d="M348.1939 121.9815c-.074.001-.146.011-.22.011-2.858 0-5.491-.938-7.632-2.509-1.25-2.304-2.809-4.415-4.613-6.289-.439-1.299-.687-2.686-.687-4.134 0-.603.056-1.193.136-1.774 5.877 3.218 10.51 8.416 13.016 14.695M283.1838 163.9874c1.59.395 3.244.627 4.956.627 2.237 0 4.385-.369 6.401-1.03 4.91 5.32 7.913 12.426 7.913 20.237 0 11.078-6.039 20.739-15 25.891 5.391-5.401 8.725-12.856 8.725-21.09 0-10.231-5.149-19.256-12.995-24.635M258.2401 218.0282c0-.227-.012-.451-.017-.676 2.578.725 5.294 1.122 8.104 1.122.947 0 1.882-.049 2.806-.135.078.894.126 1.798.126 2.712 0 16.956-13.745 30.701-30.701 30.701-4.851 0-9.437-1.129-13.516-3.133.824.067 1.655.11 2.497.11 16.956 0 30.701-13.745 30.701-30.701" fill="#ad6475"/>
      <path d="M258.223 217.3519c-.061-2.812-.496-5.53-1.265-8.106 3.387 2.088 7.222 3.518 11.329 4.112.416 1.612.697 3.278.846 4.981-.924.086-1.859.136-2.806.136-2.81 0-5.526-.397-8.104-1.123" fill="#ad6475"/>
      <g clip-path="url(#aM)">
        <g clip-path="url(#aN)">
          <g mask="url(#aO)">
            <path d="M631.434 253.046c-11.741 0-21.269-9.527-21.269-21.268 0-3.759.982-7.29 2.693-10.354-.107.012-.215.024-.311.024-5.099 0-9.24-4.033-9.455-9.084-2.25 1.927-5.171 3.088-8.354 3.088-7.146 0-12.939-5.793-12.939-12.938 0-.132.012-.252.024-.383-1.292.239-2.633.383-3.997.383-11.742 0-21.269-9.528-21.269-21.269 0-10.377 7.421-18.995 17.247-20.886-.503-1.915-.79-3.913-.79-5.972 0-11.119 7.624-20.431 17.929-23.04-2.417-1.999-3.949-5.015-3.949-8.39 0-.347.024-.683.06-1.018-.383.024-.766.048-1.149.048-3.364 0-6.416-1.292-8.714-3.399-3.638 10.054-13.261 17.235-24.56 17.235-14.41 0-26.104-11.681-26.104-26.104 0-2.729.431-5.362 1.209-7.839-2.047-.419-3.902-1.329-5.47-2.586-4.548 6.775-12.268 11.239-21.029 11.239-13.98 0-25.302-11.334-25.302-25.302 0-.982.072-1.951.179-2.897-2.286 2.047-5.302 3.316-8.617 3.316-5.398 0-10.018-3.304-11.957-7.995-1.939 4.691-6.559 7.995-11.945 7.995-2.645 0-5.099-.802-7.145-2.167 0 .156.012.312.012.455 0 16.338-13.25 29.587-29.587 29.587-5.602 0-10.844-1.556-15.309-4.273-2.166 9.025-10.269 15.739-19.952 15.739-5.876 0-11.155-2.477-14.901-6.415-2.25 2.071-5.23 3.351-8.522 3.411 1.329 3.316 2.059 6.93 2.059 10.724 0 16.003-12.962 28.977-28.965 28.977-6.223 0-11.992-1.975-16.72-5.314-2.502 3.327-5.973 5.888-10.018 7.205 4.907 5.326 7.911 12.436 7.911 20.239 0 16.493-13.369 29.851-29.85 29.851-1.472 0-2.908-.108-4.321-.312.635 2.454.97 5.039.97 7.696 0 16.96-13.74 30.701-30.7 30.701-9.563 0-18.097-4.369-23.723-11.227-3.758 4.979-9.694 8.198-16.397 8.198-3.471 0-6.726-.861-9.599-2.381.012.371.036.742.036 1.113 0 19.281-15.631 34.913-34.925 34.913-5.745 0-11.167-1.401-15.943-3.854 1.006 2.429 1.58 5.099 1.58 7.899 0 11.347-9.204 20.551-20.55 20.551-3.651 0-7.074-.946-10.042-2.633V72.712H634.223v180.131c-.922.119-1.843.203-2.789.203" fill="url(#aP)"/>
          </g>
        </g>
      </g>
      <g>
        <g clip-path="url(#aQ)" opacity=".19999701">
          <path d="M351.4834 178.4588c0 3.001 2.433 5.434 5.434 5.434 3.002 0 5.435-2.433 5.435-5.434 0-3.001-2.433-5.434-5.435-5.434-3.001 0-5.434 2.433-5.434 5.434" fill="#fff"/>
        </g>
      </g>
    </g>
  </g>
</svg>
