<svg xmlns="http://www.w3.org/2000/svg" width="174.04266" height="357.09158" viewBox="0 0 46.048786 94.48048">
  <defs>
    <clipPath id="o" clipPathUnits="userSpaceOnUse">
      <path d="M0 1218.898h870.236V0H0z"/>
    </clipPath>
    <clipPath id="p" clipPathUnits="userSpaceOnUse">
      <path d="M0 500h750V0H0z"/>
    </clipPath>
    <clipPath id="q" clipPathUnits="userSpaceOnUse">
      <path d="M429.212 293.229h9.824v-93.803h-9.824z"/>
    </clipPath>
    <clipPath id="r" clipPathUnits="userSpaceOnUse">
      <path d="M422.069 293.229h7.144v-94.547h-7.144z"/>
    </clipPath>
    <clipPath id="s" clipPathUnits="userSpaceOnUse">
      <path d="M419.884 293.229h19.152v-94.708h-19.152z"/>
    </clipPath>
    <clipPath id="t" clipPathUnits="userSpaceOnUse">
      <path d="M421.266 198.521c-2.922 45.522-.356 77.476 0 79.632.619 3.747 5.134 15.076 7.943 15.076 2.809 0 7.324-11.329 7.943-15.076.356-2.156 2.248-29.672 1.821-78.331z"/>
    </clipPath>
    <clipPath id="w" clipPathUnits="userSpaceOnUse">
      <path d="M484.514 293.229h9.824v-93.803h-9.824z"/>
    </clipPath>
    <clipPath id="x" clipPathUnits="userSpaceOnUse">
      <path d="M494.337 293.229h7.144v-94.547h-7.144z"/>
    </clipPath>
    <clipPath id="y" clipPathUnits="userSpaceOnUse">
      <path d="M484.514 293.229h19.151v-94.708h-19.151z"/>
    </clipPath>
    <clipPath id="z" clipPathUnits="userSpaceOnUse">
      <path d="M502.284 198.521c2.922 45.522.356 77.476 0 79.632-.619 3.747-5.134 15.076-7.943 15.076-2.809 0-7.324-11.329-7.943-15.076-.356-2.156-2.248-29.672-1.822-78.331z"/>
    </clipPath>
    <clipPath id="D" clipPathUnits="userSpaceOnUse">
      <path d="M0 500h750V0H0z"/>
    </clipPath>
    <clipPath id="E" clipPathUnits="userSpaceOnUse">
      <path d="M448.32 172.03h28.363v-30.21H448.32z"/>
    </clipPath>
    <clipPath id="F" clipPathUnits="userSpaceOnUse">
      <path d="M461.775 172.03h11.242v-30.21h-11.242z"/>
    </clipPath>
    <clipPath id="G" clipPathUnits="userSpaceOnUse">
      <path d="M473.017 143.409c-2.63-.878-6.288-1.589-11.242-1.589v30.21h7.759z"/>
    </clipPath>
    <clipPath id="J" clipPathUnits="userSpaceOnUse">
      <path d="M461.775 340.53h21.66V235.66h-21.66z"/>
    </clipPath>
    <clipPath id="K" clipPathUnits="userSpaceOnUse">
      <path d="M444.47 339.228h14.426V216.172H444.47z"/>
    </clipPath>
    <clipPath id="L" clipPathUnits="userSpaceOnUse">
      <path d="M439.884 340.53h43.551V235.522h-43.551z"/>
    </clipPath>
    <clipPath id="M" clipPathUnits="userSpaceOnUse">
      <path d="M482.024 308.486c-3.196 12.349-14.859 32.044-20.249 32.044-5.39 0-17.053-19.695-20.249-32.044-1.992-7.695-2.377-43.206 0-72.964l20.249.405 19.782-.267c2.377 29.758 2.459 65.131.467 72.826"/>
    </clipPath>
    <clipPath id="P" clipPathUnits="userSpaceOnUse">
      <path d="M442.308 173.094h12.057v-21.48h-12.057z"/>
    </clipPath>
    <clipPath id="Q" clipPathUnits="userSpaceOnUse">
      <path d="M448.687 172.25h10.209v-20.638h-10.209z"/>
    </clipPath>
    <clipPath id="R" clipPathUnits="userSpaceOnUse">
      <path d="M466.106 172.098h14.98v-20.484h-14.98z"/>
    </clipPath>
    <clipPath id="S" clipPathUnits="userSpaceOnUse">
      <path d="M470.709 173.498h11.624v-20.885h-11.624z"/>
    </clipPath>
    <clipPath id="T" clipPathUnits="userSpaceOnUse">
      <path d="M396.294 233.023h46.014v-60.119h-46.014z"/>
    </clipPath>
    <clipPath id="U" clipPathUnits="userSpaceOnUse">
      <path d="M400.659 219.122h45.392v-45.624h-45.392z"/>
    </clipPath>
    <clipPath id="V" clipPathUnits="userSpaceOnUse">
      <path d="M396.272 233.023h49.779v-60.119h-49.779z"/>
    </clipPath>
    <clipPath id="W" clipPathUnits="userSpaceOnUse">
      <path d="M441.658 233.023c.305-5.029-.915-15.836-5.769-22.479-4.456-6.097-13.219-11.41-24.877-16.801-10.42-4.819-15.108-11.332-14.718-20.839l49.757 6.76z"/>
    </clipPath>
    <clipPath id="Z" clipPathUnits="userSpaceOnUse">
      <path d="M425.284 178.459h11.897v-7.522h-11.897z"/>
    </clipPath>
    <clipPath id="aa" clipPathUnits="userSpaceOnUse">
      <path d="M403.905 178.459h33.276v-9.737h-33.276z"/>
    </clipPath>
    <clipPath id="ab" clipPathUnits="userSpaceOnUse">
      <path d="M409.444 168.762l23.582 3.204c1.943.264 3.476 1.785 3.756 3.726l.399 2.767-33.276-4.521.805-2.284c.693-1.965 2.67-3.172 4.734-2.892"/>
    </clipPath>
    <clipPath id="ae" clipPathUnits="userSpaceOnUse">
      <path d="M409.763 175.324h5.427v-6.189h-5.427z"/>
    </clipPath>
    <clipPath id="af" clipPathUnits="userSpaceOnUse">
      <path d="M413.065 169.584h15.319v-5.463h-15.319z"/>
    </clipPath>
    <clipPath id="ag" clipPathUnits="userSpaceOnUse">
      <path d="M427.026 171.725h4.22v-5.974h-4.22z"/>
    </clipPath>
    <clipPath id="ah" clipPathUnits="userSpaceOnUse">
      <path d="M430.552 167.999c-.202-1.083-1.076-1.915-2.168-2.063l-1.358-.185.39 5.453 3.83.521z"/>
    </clipPath>
    <clipPath id="ak" clipPathUnits="userSpaceOnUse">
      <path d="M480.768 233.023h46.014v-60.119h-46.014z"/>
    </clipPath>
    <clipPath id="al" clipPathUnits="userSpaceOnUse">
      <path d="M477.025 219.122h45.392v-45.624h-45.392z"/>
    </clipPath>
    <clipPath id="am" clipPathUnits="userSpaceOnUse">
      <path d="M477.025 233.023h49.779v-60.119h-49.779z"/>
    </clipPath>
    <clipPath id="an" clipPathUnits="userSpaceOnUse">
      <path d="M481.418 233.023c-.305-5.029.915-15.836 5.769-22.479 4.456-6.097 13.219-11.41 24.877-16.801 10.42-4.819 15.108-11.332 14.718-20.839l-49.757 6.76z"/>
    </clipPath>
    <clipPath id="aq" clipPathUnits="userSpaceOnUse">
      <path d="M494.692 169.584h15.32v-5.463h-15.32z"/>
    </clipPath>
    <clipPath id="ar" clipPathUnits="userSpaceOnUse">
      <path d="M491.83 171.725h4.22v-5.974h-4.22z"/>
    </clipPath>
    <clipPath id="as" clipPathUnits="userSpaceOnUse">
      <path d="M492.525 167.999c.202-1.083 1.075-1.915 2.167-2.063l1.358-.185-.39 5.453-3.83.521z"/>
    </clipPath>
    <clipPath id="av" clipPathUnits="userSpaceOnUse">
      <path d="M485.895 178.459h11.897v-7.522h-11.897z"/>
    </clipPath>
    <clipPath id="aw" clipPathUnits="userSpaceOnUse">
      <path d="M485.895 178.459h33.276v-9.737h-33.276z"/>
    </clipPath>
    <clipPath id="ax" clipPathUnits="userSpaceOnUse">
      <path d="M513.632 168.762l-23.582 3.204c-1.943.264-3.476 1.785-3.756 3.726l-.399 2.767 33.276-4.521-.805-2.284c-.693-1.965-2.67-3.172-4.734-2.892"/>
    </clipPath>
    <clipPath id="aA" clipPathUnits="userSpaceOnUse">
      <path d="M507.887 175.324h5.426v-6.189h-5.426z"/>
    </clipPath>
    <clipPath id="aC" clipPathUnits="userSpaceOnUse">
      <path d="M0 500h750V0H0z"/>
    </clipPath>
    <clipPath id="aE" clipPathUnits="userSpaceOnUse">
      <path d="M0 500h750V0H0z"/>
    </clipPath>
    <clipPath id="aF" clipPathUnits="userSpaceOnUse">
      <path d="M461.538 282.434h20.279V171.698h-20.279z"/>
    </clipPath>
    <clipPath id="aG" clipPathUnits="userSpaceOnUse">
      <path d="M446.297 282.434h15.241V171.483h-15.241z"/>
    </clipPath>
    <clipPath id="aH" clipPathUnits="userSpaceOnUse">
      <path d="M460.921 260.699h8.565v-4.674h-8.565z"/>
    </clipPath>
    <clipPath id="aI" clipPathUnits="userSpaceOnUse">
      <path d="M453.532 260.948h8.629v-5.44h-8.629z"/>
    </clipPath>
    <clipPath id="aJ" clipPathUnits="userSpaceOnUse">
      <path d="M461.775 198.521h10.942v-27.16h-10.942z"/>
    </clipPath>
    <clipPath id="aK" clipPathUnits="userSpaceOnUse">
      <path d="M454.764 198.521h7.011v-27.255h-7.011z"/>
    </clipPath>
    <clipPath id="aL" clipPathUnits="userSpaceOnUse">
      <path d="M0 500h750V0H0z"/>
    </clipPath>
    <clipPath id="aM" clipPathUnits="userSpaceOnUse">
      <path d="M108.994 306.966h525.229V72.7115H108.994z"/>
    </clipPath>
    <clipPath id="aN" clipPathUnits="userSpaceOnUse">
      <path d="M631.434 253.046c-11.741 0-21.269-9.527-21.269-21.268 0-3.759.982-7.29 2.693-10.354-.107.012-.215.024-.311.024-5.099 0-9.24-4.033-9.455-9.084-2.25 1.927-5.171 3.088-8.354 3.088-7.146 0-12.939-5.793-12.939-12.938 0-.132.012-.252.024-.383-1.292.239-2.633.383-3.997.383-11.742 0-21.269-9.528-21.269-21.269 0-10.377 7.421-18.995 17.247-20.886-.503-1.915-.79-3.913-.79-5.972 0-11.119 7.624-20.431 17.929-23.04-2.417-1.999-3.949-5.015-3.949-8.39 0-.347.024-.683.06-1.018-.383.024-.766.048-1.149.048-3.364 0-6.416-1.292-8.714-3.399-3.638 10.054-13.261 17.235-24.56 17.235-14.41 0-26.104-11.681-26.104-26.104 0-2.729.431-5.362 1.209-7.839-2.047-.419-3.902-1.329-5.47-2.586-4.548 6.775-12.268 11.239-21.029 11.239-13.98 0-25.302-11.334-25.302-25.302 0-.982.072-1.951.179-2.897-2.286 2.047-5.302 3.316-8.617 3.316-5.398 0-10.018-3.304-11.957-7.995-1.939 4.691-6.559 7.995-11.945 7.995-2.645 0-5.099-.802-7.145-2.167 0 .156.012.312.012.455 0 16.338-13.25 29.587-29.587 29.587-5.602 0-10.844-1.556-15.309-4.273-2.166 9.025-10.269 15.739-19.952 15.739-5.876 0-11.155-2.477-14.901-6.415-2.25 2.071-5.23 3.351-8.522 3.411 1.329 3.316 2.059 6.93 2.059 10.724 0 16.003-12.962 28.977-28.965 28.977-6.223 0-11.992-1.975-16.72-5.314-2.502 3.327-5.973 5.888-10.018 7.205 4.907 5.326 7.911 12.436 7.911 20.239 0 16.493-13.369 29.851-29.85 29.851-1.472 0-2.908-.108-4.321-.312.635 2.454.97 5.039.97 7.696 0 16.96-13.74 30.701-30.7 30.701-9.563 0-18.097-4.369-23.723-11.227-3.758 4.979-9.694 8.198-16.397 8.198-3.471 0-6.726-.861-9.599-2.381.012.371.036.742.036 1.113 0 19.281-15.631 34.913-34.925 34.913-5.745 0-11.167-1.401-15.943-3.854 1.006 2.429 1.58 5.099 1.58 7.899 0 11.347-9.204 20.551-20.55 20.551-3.651 0-7.074-.946-10.042-2.633V72.712H634.223v180.131c-.922.119-1.843.203-2.789.203"/>
    </clipPath>
    <clipPath id="aQ" clipPathUnits="userSpaceOnUse">
      <path d="M351.483 183.893h10.869v-10.869h-10.869z"/>
    </clipPath>
    <linearGradient id="a" spreadMethod="pad" gradientTransform="scale(95.13783 -95.13783) rotate(88.922463 3.82316008 .7506051)" gradientUnits="userSpaceOnUse" y2="0" x2="1" y1="0" x1="0">
      <stop offset="0" stop-opacity="0" stop-color="#fff"/>
      <stop offset="1" stop-color="#fff"/>
    </linearGradient>
    <linearGradient id="v" spreadMethod="pad" gradientTransform="scale(95.13783 -95.13783) rotate(88.922463 3.82316008 .7506051)" gradientUnits="userSpaceOnUse" y2="0" x2="1" y1="0" x1="0">
      <stop offset="0" stop-color="#71a6ea"/>
      <stop offset="1" stop-color="#364971"/>
    </linearGradient>
    <linearGradient id="b" spreadMethod="pad" gradientTransform="matrix(-1.78911 -95.12101 95.12101 -1.78911 495.26428 293.59482)" gradientUnits="userSpaceOnUse" y2="0" x2="1" y1="0" x1="0">
      <stop offset="0" stop-opacity="0" stop-color="#fff"/>
      <stop offset="1" stop-color="#fff"/>
    </linearGradient>
    <linearGradient id="B" spreadMethod="pad" gradientTransform="matrix(-1.78911 -95.12101 95.12101 -1.78911 495.26428 293.59482)" gradientUnits="userSpaceOnUse" y2="0" x2="1" y1="0" x1="0">
      <stop offset="0" stop-color="#71a6ea"/>
      <stop offset="1" stop-color="#364971"/>
    </linearGradient>
    <linearGradient id="C" spreadMethod="pad" gradientTransform="matrix(0 78.13035 78.13035 0 461.77481 72.711502)" gradientUnits="userSpaceOnUse" y2="0" x2="1" y1="0" x1="0">
      <stop offset="0" stop-color="#ee7249"/>
      <stop offset=".26303468" stop-color="#f8b272"/>
      <stop offset="1" stop-color="#f8b272"/>
    </linearGradient>
    <linearGradient id="c" spreadMethod="pad" gradientTransform="matrix(-.12889 29.1288 29.1288 .12889 467.39871 141.99875)" gradientUnits="userSpaceOnUse" y2="0" x2="1" y1="0" x1="0">
      <stop offset="0" stop-opacity="0" stop-color="#fff"/>
      <stop offset="1" stop-color="#fff"/>
    </linearGradient>
    <linearGradient id="I" spreadMethod="pad" gradientTransform="matrix(-.12889 29.1288 29.1288 .12889 467.39871 141.99875)" gradientUnits="userSpaceOnUse" y2="0" x2="1" y1="0" x1="0">
      <stop offset="0" stop-color="#71a6ea"/>
      <stop offset="1" stop-color="#364971"/>
    </linearGradient>
    <linearGradient id="d" spreadMethod="pad" gradientTransform="matrix(0 -104.14366 -104.14366 0 461.65979 340.26932)" gradientUnits="userSpaceOnUse" y2="0" x2="1" y1="0" x1="0">
      <stop offset="0" stop-opacity="0" stop-color="#fff"/>
      <stop offset=".27957" stop-opacity="0" stop-color="#fff"/>
      <stop offset="1" stop-color="#fff"/>
    </linearGradient>
    <linearGradient id="O" spreadMethod="pad" gradientTransform="matrix(0 -104.14366 -104.14366 0 461.65979 340.26932)" gradientUnits="userSpaceOnUse" y2="0" x2="1" y1="0" x1="0">
      <stop offset="0" stop-color="#fdd095"/>
      <stop offset=".27957" stop-color="#e67686"/>
      <stop offset="1" stop-color="#a53563"/>
    </linearGradient>
    <linearGradient id="e" spreadMethod="pad" gradientTransform="matrix(36.81993 -18.16318 18.16318 36.81993 413.1243 205.84973)" gradientUnits="userSpaceOnUse" y2="0" x2="1" y1="0" x1="0">
      <stop offset="0" stop-opacity="0" stop-color="#fff"/>
      <stop offset="1" stop-color="#fff"/>
    </linearGradient>
    <linearGradient id="Y" spreadMethod="pad" gradientTransform="matrix(36.81993 -18.16318 18.16318 36.81993 413.1243 205.84973)" gradientUnits="userSpaceOnUse" y2="0" x2="1" y1="0" x1="0">
      <stop offset="0" stop-color="#71a6ea"/>
      <stop offset="1" stop-color="#364971"/>
    </linearGradient>
    <linearGradient id="f" spreadMethod="pad" gradientTransform="rotate(98.392926 137.78733987 266.54071082) scale(10.02613)" gradientUnits="userSpaceOnUse" y2="0" x2="1" y1="0" x1="0">
      <stop offset="0" stop-opacity="0" stop-color="#fff"/>
      <stop offset="1" stop-color="#fff"/>
    </linearGradient>
    <linearGradient id="ad" spreadMethod="pad" gradientTransform="rotate(98.392926 137.78733987 266.54071082) scale(10.02613)" gradientUnits="userSpaceOnUse" y2="0" x2="1" y1="0" x1="0">
      <stop offset="0" stop-color="#71a6ea"/>
      <stop offset="1" stop-color="#364971"/>
    </linearGradient>
    <linearGradient id="g" spreadMethod="pad" gradientTransform="rotate(80.134189 115.5359106 337.6245756) scale(5.55752)" gradientUnits="userSpaceOnUse" y2="0" x2="1" y1="0" x1="0">
      <stop offset="0" stop-opacity="0" stop-color="#fff"/>
      <stop offset="1" stop-color="#fff"/>
    </linearGradient>
    <linearGradient id="aj" spreadMethod="pad" gradientTransform="rotate(80.134189 115.5359106 337.6245756) scale(5.55752)" gradientUnits="userSpaceOnUse" y2="0" x2="1" y1="0" x1="0">
      <stop offset="0" stop-color="#71a6ea"/>
      <stop offset="1" stop-color="#364971"/>
    </linearGradient>
    <linearGradient id="h" spreadMethod="pad" gradientTransform="scale(-41.05616 41.05616) rotate(-26.257012 4.5382387 29.13458576)" gradientUnits="userSpaceOnUse" y2="0" x2="1" y1="0" x1="0">
      <stop offset="0" stop-opacity="0" stop-color="#fff"/>
      <stop offset="1" stop-color="#fff"/>
    </linearGradient>
    <linearGradient id="ap" spreadMethod="pad" gradientTransform="scale(-41.05616 41.05616) rotate(-26.257012 4.5382387 29.13458576)" gradientUnits="userSpaceOnUse" y2="0" x2="1" y1="0" x1="0">
      <stop offset="0" stop-color="#71a6ea"/>
      <stop offset="1" stop-color="#364971"/>
    </linearGradient>
    <linearGradient id="i" spreadMethod="pad" gradientTransform="matrix(-.95223 5.47534 5.47534 .95223 494.70444 165.94818)" gradientUnits="userSpaceOnUse" y2="0" x2="1" y1="0" x1="0">
      <stop offset="0" stop-opacity="0" stop-color="#fff"/>
      <stop offset="1" stop-color="#fff"/>
    </linearGradient>
    <linearGradient id="au" spreadMethod="pad" gradientTransform="matrix(-.95223 5.47534 5.47534 .95223 494.70444 165.94818)" gradientUnits="userSpaceOnUse" y2="0" x2="1" y1="0" x1="0">
      <stop offset="0" stop-color="#71a6ea"/>
      <stop offset="1" stop-color="#364971"/>
    </linearGradient>
    <linearGradient id="j" spreadMethod="pad" gradientTransform="matrix(1.46342 9.91875 9.91875 -1.46342 501.491 169.13353)" gradientUnits="userSpaceOnUse" y2="0" x2="1" y1="0" x1="0">
      <stop offset="0" stop-opacity="0" stop-color="#fff"/>
      <stop offset="1" stop-color="#fff"/>
    </linearGradient>
    <linearGradient id="az" spreadMethod="pad" gradientTransform="matrix(1.46342 9.91875 9.91875 -1.46342 501.491 169.13353)" gradientUnits="userSpaceOnUse" y2="0" x2="1" y1="0" x1="0">
      <stop offset="0" stop-color="#71a6ea"/>
      <stop offset="1" stop-color="#364971"/>
    </linearGradient>
    <linearGradient id="aB" spreadMethod="pad" gradientTransform="matrix(0 93.22439 93.22439 0 422.12637 72.711502)" gradientUnits="userSpaceOnUse" y2="0" x2="1" y1="0" x1="0">
      <stop offset="0" stop-color="#ee7249"/>
      <stop offset=".26303468" stop-color="#f8b272"/>
      <stop offset="1" stop-color="#f8b272"/>
    </linearGradient>
    <linearGradient id="aD" spreadMethod="pad" gradientTransform="matrix(0 93.22439 93.22439 0 500.94971 72.711502)" gradientUnits="userSpaceOnUse" y2="0" x2="1" y1="0" x1="0">
      <stop offset="0" stop-color="#ee7249"/>
      <stop offset=".26303468" stop-color="#f8b272"/>
      <stop offset="1" stop-color="#f8b272"/>
    </linearGradient>
    <mask id="u" height="1" width="1" y="0" x="0" maskUnits="userSpaceOnUse">
      <path d="M-32768 32767h65535v-65535h-65535z" fill="url(#a)"/>
    </mask>
    <mask id="A" height="1" width="1" y="0" x="0" maskUnits="userSpaceOnUse">
      <path d="M-32768 32767h65535v-65535h-65535z" fill="url(#b)"/>
    </mask>
    <mask id="H" height="1" width="1" y="0" x="0" maskUnits="userSpaceOnUse">
      <path d="M-32768 32767h65535v-65535h-65535z" fill="url(#c)"/>
    </mask>
    <mask id="N" height="1" width="1" y="0" x="0" maskUnits="userSpaceOnUse">
      <path d="M-32768 32767h65535v-65535h-65535z" fill="url(#d)"/>
    </mask>
    <mask id="X" height="1" width="1" y="0" x="0" maskUnits="userSpaceOnUse">
      <path d="M-32768 32767h65535v-65535h-65535z" fill="url(#e)"/>
    </mask>
    <mask id="ac" height="1" width="1" y="0" x="0" maskUnits="userSpaceOnUse">
      <path d="M-32768 32767h65535v-65535h-65535z" fill="url(#f)"/>
    </mask>
    <mask id="ai" height="1" width="1" y="0" x="0" maskUnits="userSpaceOnUse">
      <path d="M-32768 32767h65535v-65535h-65535z" fill="url(#g)"/>
    </mask>
    <mask id="ao" height="1" width="1" y="0" x="0" maskUnits="userSpaceOnUse">
      <path d="M-32768 32767h65535v-65535h-65535z" fill="url(#h)"/>
    </mask>
    <mask id="at" height="1" width="1" y="0" x="0" maskUnits="userSpaceOnUse">
      <path d="M-32768 32767h65535v-65535h-65535z" fill="url(#i)"/>
    </mask>
    <mask id="ay" height="1" width="1" y="0" x="0" maskUnits="userSpaceOnUse">
      <path d="M-32768 32767h65535v-65535h-65535z" fill="url(#j)"/>
    </mask>
    <mask id="aO" height="1" width="1" y="0" x="0" maskUnits="userSpaceOnUse">
      <path d="M-32768 32767h65535v-65535h-65535z" fill="url(#m)"/>
    </mask>
    <radialGradient id="k" spreadMethod="pad" gradientTransform="matrix(21.89142 198.17497 198.17497 -21.89142 459.96622 119.77365)" gradientUnits="userSpaceOnUse" r="1" cy="0" cx="0" fy="0" fx="0">
      <stop offset="0" stop-color="#fff"/>
      <stop offset=".00493853" stop-color="#fff"/>
      <stop offset=".994624" stop-opacity="0" stop-color="#fff"/>
      <stop offset="1" stop-opacity="0" stop-color="#fff"/>
    </radialGradient>
    <radialGradient id="n" spreadMethod="pad" gradientTransform="scale(211.2127 -211.2127) rotate(45 2.25206415 2.1849096)" gradientUnits="userSpaceOnUse" r="1" cy="0" cx="0" fy="0" fx="0">
      <stop offset="0" stop-color="#803e67"/>
      <stop offset=".44086" stop-color="#3e3063"/>
      <stop offset=".44358286" stop-color="#3e3063"/>
      <stop offset=".989247" stop-color="#181743"/>
      <stop offset="1" stop-color="#181743"/>
    </radialGradient>
    <radialGradient id="l" spreadMethod="pad" gradientTransform="matrix(21.89142 198.17497 198.17497 -21.89142 459.96622 119.77365)" gradientUnits="userSpaceOnUse" r="1" cy="0" cx="0" fy="0" fx="0">
      <stop offset="0" stop-color="#fff"/>
      <stop offset=".00493853" stop-color="#fff"/>
      <stop offset=".994624" stop-opacity="0" stop-color="#fff"/>
      <stop offset="1" stop-opacity="0" stop-color="#fff"/>
    </radialGradient>
    <radialGradient id="m" spreadMethod="pad" gradientTransform="matrix(21.89142 198.17497 198.17497 -21.89142 459.96622 119.77365)" gradientUnits="userSpaceOnUse" r="1" cy="0" cx="0" fy="0" fx="0">
      <stop offset="0" stop-color="#fff"/>
      <stop offset=".00493853" stop-color="#fff"/>
      <stop offset=".994624" stop-opacity="0" stop-color="#fff"/>
      <stop offset="1" stop-opacity="0" stop-color="#fff"/>
    </radialGradient>
    <radialGradient id="aP" spreadMethod="pad" gradientTransform="matrix(21.89142 198.17497 198.17497 -21.89142 459.96622 119.77365)" gradientUnits="userSpaceOnUse" r="1" cy="0" cx="0" fy="0" fx="0">
      <stop offset="0" stop-color="#d37575"/>
      <stop offset=".00493853" stop-color="#d37575"/>
      <stop offset=".994624" stop-color="#58448b"/>
      <stop offset="1" stop-color="#58448b"/>
    </radialGradient>
  </defs>
  <g clip-path="url(#p)" transform="matrix(.35278 0 0 -.35278 -139.795953 120.131411)">
    <path d="M421.266 198.5208c-2.922 45.522-.356 77.477 0 79.632.619 3.747 5.134 15.077 7.943 15.077 2.809 0 7.324-11.33 7.943-15.077.356-2.155 2.248-29.672 1.821-78.331z" fill="#71a6ea"/>
    <path d="M420.9056 274.1592c5.589-1.125 11.107-1.125 16.577.072h.012c-.012.167-.024.323-.036.479-.012.251-.036.478-.048.706-.024.359-.048.682-.072.969-.012.036-.012.06-.012.084-.024.335-.06.622-.084.862 0 .084-.011.155-.023.227 0 .072 0 .12-.012.18h-.012c-5.279-1.113-10.593-1.113-15.991-.072-.036-.323-.084-.778-.131-1.365-.024-.239-.048-.502-.072-.79-.024-.407-.06-.861-.096-1.352M438.7769 240.8679c-.577-5.291-2.194-11.884-5.554-16.482-2.751-3.765-7.091-7.399-12.749-10.898.07-1.656.146-3.336.231-5.038 6.304 3.595 11.144 7.283 14.09 11.315 1.914 2.619 3.256 5.581 4.169 8.516-.045 4.488-.109 8.679-.187 12.587" fill="#364971"/>
    <path d="M421.2048 277.6661c5.398-1.041 10.712-1.041 15.99.072-.012.191-.036.323-.047.419-.611 3.746-5.135 15.068-7.936 15.068-2.812 0-7.325-11.322-7.947-15.068-.012-.096-.036-.264-.06-.491" fill="#5686cc"/>
    <path d="M423.1511 267.3765c0 .682.553 1.236 1.236 1.236.682 0 1.235-.554 1.235-1.236 0-.682-.553-1.236-1.235-1.236-.683 0-1.236.554-1.236 1.236M423.1511 261.7495c0 .682.553 1.236 1.236 1.236.682 0 1.235-.554 1.235-1.236 0-.682-.553-1.236-1.235-1.236-.683 0-1.236.554-1.236 1.236M423.1511 256.1223c0 .682.553 1.236 1.236 1.236.682 0 1.235-.554 1.235-1.236 0-.682-.553-1.236-1.235-1.236-.683 0-1.236.554-1.236 1.236" fill="#364971"/>
    <g clip-path="url(#q)" opacity=".5">
      <path d="M437.152 278.153c-.619 3.745-5.13 15.066-7.939 15.076l-.001-.003c2.858-4.833 2.665-10.089 3.231-19.902.343-5.954 1.681-42.735 1.134-73.898l5.396.396c.427 48.659-1.465 76.175-1.821 78.331" fill="#4771bd"/>
    </g>
    <g clip-path="url(#r)">
      <path d="M426.8295 267.3765c.182 8.232.234 24.273 2.383 25.852-3.066-1.521-6.449-10.975-6.911-27.23-.7-24.647.325-51.264 1.159-67.317l4.298.316c-.389 22.246-1.059 62.471-.929 68.379" fill="#adcbf7"/>
    </g>
    <g clip-path="url(#s)">
      <g clip-path="url(#t)" opacity=".69999701">
        <g mask="url(#u)">
          <path d="M421.266 198.521c-2.922 45.522-.356 77.476 0 79.632.619 3.747 5.134 15.076 7.943 15.076 2.809 0 7.324-11.329 7.943-15.076.356-2.156 2.248-29.672 1.821-78.331z" fill="url(#v)"/>
        </g>
      </g>
    </g>
    <path d="M502.2837 198.5208c2.922 45.522.356 77.477 0 79.632-.619 3.747-5.134 15.077-7.943 15.077-2.809 0-7.324-11.33-7.943-15.077-.356-2.155-2.248-29.672-1.821-78.331z" fill="#71a6ea"/>
    <path d="M502.6441 274.1592c-5.59-1.125-11.107-1.125-16.577.072h-.012c.012.167.024.323.036.479.012.251.036.478.048.706.024.359.048.682.072.969.012.036.012.06.012.084.024.335.06.622.084.862 0 .084.011.155.023.227 0 .072 0 .12.012.18h.012c5.279-1.113 10.593-1.113 15.991-.072.036-.323.084-.778.131-1.365.024-.239.048-.502.072-.79.024-.407.06-.861.096-1.352M484.7728 240.8679c.577-5.291 2.194-11.884 5.554-16.482 2.751-3.765 7.091-7.399 12.749-10.898-.07-1.656-.146-3.336-.231-5.038-6.304 3.595-11.144 7.283-14.09 11.315-1.914 2.619-3.256 5.581-4.169 8.516.045 4.488.109 8.679.187 12.587" fill="#364971"/>
    <path d="M502.3449 277.6661c-5.398-1.041-10.712-1.041-15.99.072.012.191.036.323.047.419.611 3.746 5.135 15.068 7.936 15.068 2.813 0 7.325-11.322 7.947-15.068.012-.096.036-.264.06-.491" fill="#5686cc"/>
    <path d="M500.3986 267.3765c0 .682-.553 1.236-1.236 1.236-.682 0-1.235-.554-1.235-1.236 0-.682.553-1.236 1.235-1.236.683 0 1.236.554 1.236 1.236M500.3986 261.7495c0 .682-.553 1.236-1.236 1.236-.682 0-1.235-.554-1.235-1.236 0-.682.553-1.236 1.235-1.236.683 0 1.236.554 1.236 1.236M500.3986 256.1223c0 .682-.553 1.236-1.236 1.236-.682 0-1.235-.554-1.235-1.236 0-.682.553-1.236 1.235-1.236.683 0 1.236.554 1.236 1.236" fill="#364971"/>
    <g>
      <g clip-path="url(#w)" opacity=".5">
        <path d="M486.3977 278.153c.619 3.745 5.13 15.066 7.939 15.076l.001-.003c-2.858-4.833-2.665-10.089-3.231-19.902-.343-5.954-1.681-42.735-1.134-73.898l-5.396.396c-.427 48.659 1.465 76.175 1.821 78.331" fill="#4771bd"/>
      </g>
    </g>
    <g>
      <g clip-path="url(#x)">
        <path d="M496.7202 267.3765c-.182 8.232-.234 24.273-2.383 25.852 3.066-1.521 6.449-10.975 6.911-27.23.7-24.647-.325-51.264-1.159-67.317l-4.298.316c.389 22.246 1.059 62.471.929 68.379" fill="#adcbf7"/>
      </g>
    </g>
    <g>
      <g clip-path="url(#y)">
        <g clip-path="url(#z)" opacity=".69999701">
          <g mask="url(#A)">
            <path d="M502.284 198.521c2.922 45.522.356 77.476 0 79.632-.619 3.747-5.134 15.076-7.943 15.076-2.809 0-7.324-11.329-7.943-15.076-.356-2.156-2.248-29.672-1.822-78.331z" fill="url(#B)"/>
          </g>
        </g>
      </g>
    </g>
  </g>
  <path d="M460.434 150.806c-12.578-.681-22.678-11.291-22.779-23.886-.06-7.458 3.271-14.131 8.54-18.59 3.507-2.968 5.677-7.216 5.677-11.811V72.712h19.806v23.704c0 4.642 2.178 8.941 5.715 11.947 5.2 4.419 8.503 10.999 8.503 18.358 0 13.322-10.801 24.12-24.122 24.121-.445 0-.891-.012-1.34-.036" fill="url(#C)" transform="matrix(.35278 0 0 -.35278 -139.795953 120.131411)"/>
  <g clip-path="url(#D)" transform="matrix(.35278 0 0 -.35278 -139.795953 120.131411)">
    <path d="M475.2292 126.7213c0 7.608-6.314 13.741-13.988 13.444-6.979-.27-12.728-6.091-12.916-13.073-.126-4.679 2.14-8.827 5.662-11.328 2.822-2.003 4.415-5.321 4.415-8.782v-34.271h6.746v34.102c0 3.51 1.559 6.922 4.42 8.956 3.425 2.434 5.661 6.428 5.661 10.952" fill="#fcd16c"/>
    <path d="M465.5502 117.8074c0 3.473 2.815 6.288 6.288 6.288 3.473 0 6.289-2.815 6.289-6.288 0-3.473-2.816-6.288-6.289-6.288s-6.288 2.815-6.288 6.288M467.9974 130.3246c0 2.121 1.72 3.841 3.841 3.841 2.122 0 3.841-1.72 3.841-3.841 0-2.121-1.719-3.841-3.841-3.841-2.121 0-3.841 1.72-3.841 3.841M460.6559 136.4542c0 1.051.852 1.903 1.903 1.903 1.052 0 1.904-.852 1.904-1.903 0-1.051-.852-1.903-1.904-1.903-1.051 0-1.903.852-1.903 1.903M445.4516 134.1658c0 2.852 2.312 5.165 5.165 5.165 2.852 0 5.164-2.313 5.164-5.165s-2.312-5.165-5.164-5.165c-2.853 0-5.165 2.313-5.165 5.165M444.5901 124.8308c0-1.337 1.084-2.422 2.422-2.422 1.337 0 2.422 1.085 2.422 2.422 0 1.337-1.085 2.422-2.422 2.422-1.338 0-2.422-1.085-2.422-2.422M446.3972 116.3538c0 2.173 1.761 3.934 3.934 3.934s3.934-1.761 3.934-3.934-1.761-3.934-3.934-3.934-3.934 1.761-3.934 3.934M455.7808 110.4124c0 1.789 1.45 3.239 3.239 3.239s3.239-1.45 3.239-3.239-1.45-3.239-3.239-3.239-3.239 1.45-3.239 3.239M439.991 130.3246c0 .912.74 1.652 1.652 1.652.912 0 1.652-.74 1.652-1.652 0-.912-.74-1.652-1.652-1.652-.912 0-1.652.74-1.652 1.652M475.9224 137.1547c0 1.202.974 2.176 2.176 2.176 1.201 0 2.175-.974 2.175-2.176 0-1.202-.974-2.176-2.175-2.176-1.202 0-2.176.974-2.176 2.176M478.0843 126.4833c0 1.209.98 2.189 2.189 2.189 1.21 0 2.19-.98 2.19-2.189s-.98-2.189-2.19-2.189c-1.209 0-2.189.98-2.189 2.189M455.4021 124.7114c0 1.209.98 2.189 2.189 2.189 1.21 0 2.19-.98 2.19-2.189s-.98-2.189-2.19-2.189c-1.209 0-2.189.98-2.189 2.189" fill="#ffedb2"/>
    <path d="M452.9046 172.0299l-7.485-23.189c-.469-1.45.135-3.021 1.447-3.797 2.389-1.411 6.998-3.224 14.908-3.224 7.91 0 12.519 1.813 14.909 3.224 1.312.776 1.915 2.347 1.447 3.797l-7.486 23.189z" fill="#6292dc"/>
    <path d="M461.7748 147.4395c-8.795 0-13.501 2.239-15.621 3.678l-.735-2.276c-.468-1.451.135-3.022 1.448-3.797 2.389-1.412 6.998-3.225 14.908-3.225 7.91 0 12.519 1.813 14.908 3.225 1.313.775 1.916 2.346 1.448 3.797l-.735 2.276c-2.12-1.439-6.826-3.678-15.621-3.678M461.7748 164.0022c4.792 0 8.366.667 10.976 1.505l-2.106 6.523h-7.984c-.295-.005-.582-.014-.886-.014-.304 0-.591.009-.886.014h-7.984l-2.106-6.523c2.61-.838 6.184-1.505 10.976-1.505" fill="#19313a"/>
    <g clip-path="url(#E)">
      <path d="M452.6888 146.4687c.244 1.486 2.409 17.852 3.425 25.561h-2.68l-5.113-27.745c2.638-1.226 6.916-2.465 13.454-2.465 7.91 0 12.519 1.813 14.908 3.225-11.445-4.012-24.314-.526-23.994 1.424" fill="#adcbf7"/>
    </g>
    <g clip-path="url(#F)">
      <g clip-path="url(#G)">
        <g mask="url(#H)">
          <path d="M473.017 143.409c-2.63-.878-6.288-1.589-11.242-1.589v30.21h7.759z" fill="url(#I)"/>
        </g>
      </g>
    </g>
    <path d="M482.024 308.4858c-3.196 12.349-14.859 32.044-20.249 32.044-5.39 0-17.053-19.695-20.249-32.044-1.992-7.695-2.377-43.206 0-72.964l20.249.405 19.782-.266c2.377 29.757 2.459 65.13.467 72.825" fill="#e67686"/>
    <path d="M439.8914 276.0756c.005-1.204.014-2.419.027-3.654 14.438 3.352 28.91 3.352 43.414.048.024 1.251.042 2.481.057 3.699-14.345 3.631-29.251 3.592-43.498-.093M440.3268 297.5583c14.239 3.464 28.512 3.447 42.82 0-.127 2.758-.195 3.502-.195 3.502-13.965 3.705-28.531 3.683-42.402-.038 0 0-.072-.706-.223-3.464" fill="#a53563"/>
    <g clip-path="url(#J)" opacity=".5">
      <path d="M471.8386 288.0259c-.436-11.672-1.039-34.633-1.477-52.215l11.196-.151c2.376 29.758 2.458 65.131.466 72.826-3.196 12.349-14.859 32.044-20.249 32.044 6.495-5.013 10.828-32.035 10.064-52.504" fill="#c94577"/>
    </g>
    <g clip-path="url(#K)">
      <path d="M458.8965 339.2278c-4.207-8.521-6.95-29.097-6.95-48.499 0-19.403.74-74.556.74-74.556h-7.868s-.597 60.53-.228 79.556c.389 20.069 7.249 34.952 14.306 43.499" fill="#f9e8a0"/>
    </g>
    <g clip-path="url(#L)">
      <g clip-path="url(#M)" opacity=".5">
        <g mask="url(#N)">
          <path d="M482.024 308.486c-3.196 12.349-14.859 32.044-20.249 32.044-5.39 0-17.053-19.695-20.249-32.044-1.992-7.695-2.377-43.206 0-72.964l20.249.405 19.782-.267c2.377 29.758 2.459 65.131.467 72.826" fill="url(#O)"/>
        </g>
      </g>
    </g>
    <path d="M447.8741 173.498l-7.087-15.976c-1.025-4.172 16.006-8.358 17.031-4.186l1.078 17.863z" fill="#def1f8"/>
    <path d="M458.0677 157.4693l.246 4.07c-3.621-.964-11.412.945-14.203 3.475l-1.563-3.523c1.982-3.06 11.978-5.586 15.52-4.022M449.6752 173.1225l-1.801.376-1.522-3.432c2.928-1.909 8.722-3.21 12.307-2.793l.237 3.926-1.542.322c-2.451.091-5.341.698-7.679 1.601" fill="#ea4c8e"/>
    <g clip-path="url(#P)">
      <path d="M451.9522 172.6476l-2.14.446-7.504-18.191c2.716-1.985 8.365-3.474 12.057-3.269-3.959.233-8.81 2.827-7.968 5.291.679 1.987 4.089 11.595 5.555 15.723" fill="#adcbf7"/>
    </g>
    <g clip-path="url(#Q)" opacity=".5">
      <path d="M448.6868 152.2646c4.212-1.009 8.625-.99 9.131 1.071l1.079 17.864-5.036 1.05c-1.441-5.499-4.187-16.154-5.174-19.985" fill="#9ab5ec"/>
    </g>
    <path d="M475.2019 173.498l7.087-15.976c1.025-4.172-16.006-8.358-17.031-4.186l-1.078 17.863z" fill="#def1f8"/>
    <path d="M465.0084 157.4693l-.246 4.07c3.621-.964 11.412.945 14.203 3.475l1.563-3.523c-1.982-3.06-11.978-5.586-15.52-4.022M473.4009 173.1225l1.801.376 1.522-3.432c-2.928-1.909-8.722-3.21-12.307-2.793l-.237 3.926 1.542.322c2.451.091 5.341.698 7.679 1.601" fill="#ea4c8e"/>
    <g clip-path="url(#R)">
      <path d="M467.9973 151.6967c3.777-.484 10.356 1.212 13.088 3.454-4.527-1.872-8.979-2.041-9.586.73-.45 2.056-2.16 11.487-3.012 16.217l-2.382-.497z" fill="#adcbf7"/>
    </g>
    <g clip-path="url(#S)" opacity=".5">
      <path d="M470.7092 172.5611l4.984-19.948c3.796 1.116 7.062 3.012 6.596 4.909l-7.087 15.976z" fill="#9ab5ec"/>
    </g>
    <path d="M441.6577 233.0226c.305-5.029-.915-15.836-5.769-22.478-4.456-6.098-13.219-11.41-24.877-16.802-10.419-4.819-15.108-11.331-14.717-20.839l49.757 6.76z" fill="#b9cffe"/>
    <path d="M445.3138 188.6226l-47.373-6.437c-.714-1.57-1.188-3.254-1.441-5.057l49.21 6.686z" fill="#ea4c8e"/>
    <g clip-path="url(#T)">
      <path d="M413.1915 192.974c8.945 4.622 20.436 9.733 25.773 18.487 2.587 4.244 3.297 9.438 3.343 13.667l-.65 7.895c.306-5.029-.915-15.836-5.769-22.479-4.455-6.097-13.219-11.41-24.877-16.801-9.517-4.402-14.238-10.224-14.69-18.443l-.027-2.396 1.984.269c.444 11.806 5.968 15.179 14.913 19.801" fill="#fff"/>
    </g>
    <g clip-path="url(#U)" opacity=".5">
      <path d="M442.8024 219.1215c-.217-7.71-6.906-15.712-14.063-20.017-7.144-4.296-18.194-8.314-23.669-13.58-3.093-2.974-4.551-7.3-4.401-12.027l45.382 6.167z" fill="#9ab5ec"/>
    </g>
    <g clip-path="url(#V)">
      <g clip-path="url(#W)" opacity=".30000299">
        <g mask="url(#X)">
          <path d="M441.658 233.023c.305-5.029-.915-15.836-5.769-22.479-4.456-6.097-13.219-11.41-24.877-16.801-10.42-4.819-15.108-11.332-14.718-20.839l49.757 6.76z" fill="url(#Y)"/>
        </g>
      </g>
    </g>
    <path d="M409.4441 168.7623l23.582 3.204c1.943.264 3.476 1.785 3.756 3.726l.399 2.767-33.276-4.522.805-2.284c.693-1.964 2.67-3.171 4.734-2.891" fill="#6292dc"/>
    <g clip-path="url(#Z)" opacity=".5">
      <path d="M425.2843 176.8425l11.896 1.616-.398-2.766c-.28-1.942-1.813-3.462-3.757-3.726l-7.576-1.03z" fill="#4771bd"/>
    </g>
    <g clip-path="url(#aa)">
      <g clip-path="url(#ab)">
        <g mask="url(#ac)">
          <path d="M409.444 168.762l23.582 3.204c1.943.264 3.476 1.785 3.756 3.726l.399 2.767-33.276-4.521.805-2.284c.693-1.965 2.67-3.172 4.734-2.892" fill="url(#ad)"/>
        </g>
      </g>
    </g>
    <g clip-path="url(#ae)">
      <path d="M415.1895 169.5429l-3.001-.408-2.426 5.599 4.345.59z" fill="#adcbf7"/>
    </g>
    <path d="M415.0282 164.1213l13.356 1.815c1.092.148 1.965.98 2.167 2.063l.695 3.725-20.127-2.734 1.163-3.208c.41-1.131 1.554-1.823 2.746-1.661" fill="#19313a"/>
    <g>
      <g clip-path="url(#af)">
        <path d="M416.4211 169.5842c.596-2.682 1.025-3.613 2.99-3.648 1.964-.036 8.973 0 8.973 0l-13.356-1.815-1.964 5.014z" fill="#adcbf7"/>
      </g>
    </g>
    <g>
      <g clip-path="url(#ag)">
        <g clip-path="url(#ah)">
          <g mask="url(#ai)">
            <path d="M430.552 167.999c-.202-1.083-1.076-1.915-2.168-2.063l-1.358-.185.39 5.453 3.83.521z" fill="url(#aj)"/>
          </g>
        </g>
      </g>
    </g>
    <g>
      <path d="M481.4184 233.0226c-.305-5.029.915-15.836 5.769-22.478 4.456-6.098 13.219-11.41 24.877-16.802 10.419-4.819 15.108-11.331 14.717-20.839l-49.757 6.76z" fill="#a2bff4"/>
    </g>
    <g>
      <path d="M477.7623 188.6226l47.373-6.437c.714-1.57 1.188-3.254 1.441-5.057l-49.21 6.686z" fill="#ea4c8e"/>
    </g>
    <g>
      <g clip-path="url(#ak)">
        <path d="M509.8846 192.974c-8.945 4.622-20.436 9.733-25.773 18.487-2.587 4.244-3.297 9.438-3.343 13.667l.65 7.895c-.306-5.029.915-15.836 5.769-22.479 4.455-6.097 13.219-11.41 24.877-16.801 9.517-4.402 14.238-10.224 14.69-18.443l.027-2.396-1.984.269c-.444 11.806-5.968 15.179-14.913 19.801" fill="#fff"/>
      </g>
    </g>
    <g>
      <g clip-path="url(#al)" opacity=".39999402">
        <path d="M480.2737 219.1215c.217-7.71 6.906-15.712 14.063-20.017 7.144-4.296 18.194-8.314 23.669-13.58 3.093-2.974 4.551-7.3 4.401-12.027l-45.382 6.167z" fill="#4771bd"/>
      </g>
    </g>
    <g>
      <g clip-path="url(#am)">
        <g clip-path="url(#an)" opacity=".5">
          <g mask="url(#ao)">
            <path d="M481.418 233.023c-.305-5.029.915-15.836 5.769-22.479 4.456-6.097 13.219-11.41 24.877-16.801 10.42-4.819 15.108-11.332 14.718-20.839l-49.757 6.76z" fill="url(#ap)"/>
          </g>
        </g>
      </g>
    </g>
    <g>
      <path d="M508.0479 164.1213l-13.356 1.815c-1.092.148-1.965.98-2.167 2.063l-.695 3.725 20.127-2.734-1.163-3.208c-.41-1.131-1.554-1.823-2.746-1.661" fill="#19313a"/>
    </g>
    <g>
      <g clip-path="url(#aq)">
        <path d="M506.655 169.5842c-.596-2.682-1.025-3.613-2.99-3.648-1.964-.036-8.973 0-8.973 0l13.356-1.815 1.964 5.014z" fill="#adcbf7"/>
      </g>
    </g>
    <g>
      <g clip-path="url(#ar)">
        <g clip-path="url(#as)">
          <g mask="url(#at)">
            <path d="M492.525 167.999c.202-1.083 1.075-1.915 2.167-2.063l1.358-.185-.39 5.453-3.83.521z" fill="url(#au)"/>
          </g>
        </g>
      </g>
    </g>
    <g>
      <path d="M513.632 168.7623l-23.582 3.204c-1.943.264-3.476 1.785-3.756 3.726l-.399 2.767 33.276-4.522-.805-2.284c-.693-1.964-2.67-3.171-4.734-2.891" fill="#6292dc"/>
    </g>
    <g>
      <g clip-path="url(#av)" opacity=".5">
        <path d="M497.7918 176.8425l-11.896 1.616.398-2.766c.28-1.942 1.813-3.462 3.757-3.726l7.576-1.03z" fill="#4771bd"/>
      </g>
    </g>
    <g>
      <g clip-path="url(#aw)">
        <g clip-path="url(#ax)">
          <g mask="url(#ay)">
            <path d="M513.632 168.762l-23.582 3.204c-1.943.264-3.476 1.785-3.756 3.726l-.399 2.767 33.276-4.521-.805-2.284c-.693-1.965-2.67-3.172-4.734-2.892" fill="url(#az)"/>
          </g>
        </g>
      </g>
    </g>
    <g>
      <g clip-path="url(#aA)">
        <path d="M507.8865 169.5429l3.001-.408 2.426 5.599-4.345.59z" fill="#adcbf7"/>
      </g>
    </g>
    <g>
      <path d="M500.1632 170.5923l2.235-.304.328 5.884-2.355.32z" fill="#4771bd"/>
    </g>
  </g>
  <path d="M415.028 164.121l-12.199-91.409h38.595l-13.04 93.224z" fill="url(#aB)" transform="matrix(.35278 0 0 -.35278 -139.795953 120.131411)"/>
  <g clip-path="url(#aC)" transform="matrix(.35278 0 0 -.35278 -139.795953 120.131411)">
    <path d="M425.4244 165.5338l3.815-38.516c.305-3.082-2.116-5.754-5.213-5.754h-4.438c-3.118 0-5.545 2.707-5.207 5.806l4.093 37.52z" fill="#fcd16c"/>
    <path d="M420.0393 164.8021l-1.215-20.778c-.091-1.564 1.152-2.883 2.719-2.883h.417c1.561 0 2.803 1.31 2.719 2.87l-1.144 21.266zM421.1617 128.0443c0 1.619 1.313 2.932 2.932 2.932s2.932-1.313 2.932-2.932-1.313-2.932-2.932-2.932-2.932 1.313-2.932 2.932" fill="#ffedb2"/>
    <path d="M426.3437 115.5073c0 1.975 1.601 3.576 3.576 3.576s3.576-1.601 3.576-3.576-1.601-3.576-3.576-3.576-3.576 1.601-3.576 3.576M417.432 115.7426c0 1.296 1.051 2.347 2.347 2.347 1.297 0 2.347-1.051 2.347-2.347s-1.05-2.347-2.347-2.347c-1.296 0-2.347 1.051-2.347 2.347M429.9196 107.1736c0 1.296 1.051 2.347 2.347 2.347 1.297 0 2.347-1.051 2.347-2.347s-1.05-2.347-2.347-2.347c-1.296 0-2.347 1.051-2.347 2.347" fill="#fcd16c"/>
    <path d="M417.1242 135.6845c0 .936.759 1.696 1.696 1.696.936 0 1.695-.76 1.695-1.696 0-.936-.759-1.696-1.695-1.696-.937 0-1.696.76-1.696 1.696" fill="#ffedb2"/>
    <path d="M412.1691 120.4041c0 .475.385.86.86.86s.859-.385.859-.86-.384-.86-.859-.86-.86.385-.86.86" fill="#fcd16c"/>
  </g>
  <path d="M481.652 72.712h38.595l-12.199 91.409-13.356 1.815z" fill="url(#aD)" transform="matrix(.35278 0 0 -.35278 -139.795953 120.131411)"/>
  <g clip-path="url(#aE)" transform="matrix(.35278 0 0 -.35278 -139.99866463 120.1297714)">
    <path d="M497.6517 165.5338l-3.815-38.516c-.305-3.082 2.116-5.754 5.213-5.754h4.438c3.118 0 5.545 2.707 5.207 5.806l-4.093 37.52z" fill="#fcd16c"/>
    <path d="M503.0368 164.8021l1.215-20.778c.091-1.564-1.152-2.883-2.719-2.883h-.417c-1.561 0-2.803 1.31-2.719 2.87l1.144 21.266zM501.9144 128.0443c0 1.619-1.313 2.932-2.932 2.932s-2.932-1.313-2.932-2.932 1.313-2.932 2.932-2.932 2.932 1.313 2.932 2.932" fill="#ffedb2"/>
    <path d="M496.7324 115.5073c0 1.975-1.601 3.576-3.576 3.576s-3.576-1.601-3.576-3.576 1.601-3.576 3.576-3.576 3.576 1.601 3.576 3.576M504.5406 116.8946c0 1.209-.98 2.189-2.189 2.189-1.208 0-2.188-.98-2.188-2.189s.98-2.189 2.188-2.189c1.209 0 2.189.98 2.189 2.189M512.7886 112.4199c0 1.209-.98 2.189-2.189 2.189-1.208 0-2.188-.98-2.188-2.189s.98-2.189 2.188-2.189c1.209 0 2.189.98 2.189 2.189" fill="#fcd16c"/>
    <path d="M505.9519 135.6845c0 .936-.759 1.696-1.696 1.696-.936 0-1.695-.76-1.695-1.696 0-.936.759-1.696 1.695-1.696.937 0 1.696.76 1.696 1.696" fill="#ffedb2"/>
    <path d="M510.907 120.4041c0 .475-.385.86-.86.86s-.859-.385-.859-.86.384-.86.859-.86.86.385.86.86" fill="#fcd16c"/>
    <path d="M461.5381 171.1244c9.961 0 14.941 2.988 14.941 2.988s6.972 69.226 4.98 74.945c-1.992 5.719-13.945 33.376-19.921 33.376-5.976 0-17.929-27.657-19.921-33.376-1.992-5.719 4.98-74.945 4.98-74.945s4.98-2.988 14.941-2.988" fill="#d5eaff"/>
    <path d="M471.1194 271.3434c-3.459 6.14-7.054 11.09-9.581 11.09-2.53 0-6.129-4.959-9.592-11.108 6.464 1.155 12.856 1.188 19.173.018" fill="#19313a"/>
    <path d="M441.5257 235.5221c.04-.81.084-1.643.132-2.5 13.256 3.827 26.512 3.876 39.768.138.048.857.092 1.691.131 2.5-13.343 3.788-26.687 3.739-40.031-.138M443.8218 203.9793c.072-.834.144-1.662.215-2.483 11.671 2.97 23.342 3.011 35.012.119.072.821.144 1.649.216 2.483-11.815 2.965-23.629 2.924-35.443-.119" fill="#364971"/>
    <g clip-path="url(#aF)" opacity=".60000598">
      <path d="M473.2565 247.5928c1.186-10.257-2.855-57.215-4.548-75.895 5.171.868 7.77 2.415 7.77 2.415s6.973 69.226 4.981 74.945c-1.992 5.719-13.945 33.376-19.922 33.376 3.968-1.927 10.23-21.964 11.719-34.841" fill="#71a6ea"/>
    </g>
    <g clip-path="url(#aG)">
      <path d="M446.3518 235.6185c.68-14.911 3.724-56.566 4.201-63.062 1.39-.405 3.152-.8 5.277-1.074 0 0-1.614 24.86-3.883 57.092-1.916 27.218 6.353 48.911 9.591 53.859-8.033-7.394-15.978-29.436-15.186-46.815" fill="#fff"/>
    </g>
    <path d="M449.0805 254.4698c8.307 2.414 16.615 2.444 24.922.086l-.921 1.276c-2.005 2.777-5.078 4.652-8.487 4.983-2.048.198-4.096.19-6.144-.026-3.387-.356-6.433-2.23-8.42-4.996z" fill="#19313a"/>
    <g clip-path="url(#aH)">
      <path d="M460.9212 256.2778c1.81.032 3.62-.059 5.43-.253l3.135 3.135c-1.264.77-2.666 1.294-4.144 1.539z" fill="#adcbf7"/>
    </g>
    <g clip-path="url(#aI)">
      <path d="M457.2685 256.0508l4.893 4.893c-1.106.019-2.211-.021-3.317-.123l-5.313-5.313c1.246.234 2.491.416 3.737.543" fill="#adcbf7"/>
    </g>
    <path d="M450.7993 172.4874c2.482-.701 6.051-1.363 10.739-1.363 4.963 0 8.689.742 11.179 1.487-.497 1.847-7.045 25.909-10.942 25.909-4.052 0-10.973-26.022-10.976-26.033" fill="#71a6ea"/>
    <g>
      <g clip-path="url(#aJ)" opacity=".5">
        <path d="M472.7172 172.6111c-.497 1.847-7.045 25.91-10.942 25.91.939-2.693 3.252-16.131 4.417-27.161 2.706.278 4.888.762 6.525 1.251" fill="#4771bd"/>
      </g>
    </g>
    <g>
      <g clip-path="url(#aK)">
        <path d="M457.2389 187.6104c-.69-4.138-1.74-11.067-2.475-15.975.97-.153 2.022-.281 3.165-.37.205 2.921.514 6.954.968 12.101 1.045 11.869 2.164 14.91 2.878 15.154-1.582-.386-3.382-3.983-4.536-10.91" fill="#adcbf7"/>
      </g>
    </g>
    <g>
      <path d="M476.7092 81.776c-.19.193-.393.373-.595.554.108-.941.275-1.863.483-2.77.001.748.048 1.485.112 2.216" fill="#ad6475"/>
    </g>
  </g>
</svg>
