<svg xmlns="http://www.w3.org/2000/svg" viewBox="0 0 512.001 512.001" width="50">
  <path d="M472.141 274.782c25.449-27.347 40.818-64.995 39.813-106.396-1.884-77.583-62.1-140.871-136.317-143.24C326.186 23.568 282.253 48.659 256 87.685c-25.581-38.027-67.949-62.824-115.851-62.607C62.617 25.428-.613 92.373.004 173.407.31 213.593 16.03 249.94 41.288 276.309l194.15 201.751c11.376 11.821 29.75 11.821 41.126-.002L469.25 277.8c.821-.832 1.632-1.675 2.433-2.528l.468-.487-.01-.003z" fill="#ff69b4"/>
  <path d="M511.954 168.386c-1.652-68.04-48.17-125.08-109.649-139.682 10.857 20.198 17.289 43.294 17.885 67.824 1.005 41.401-14.364 79.048-39.813 106.396l.01.003-.468.487c-.801.853-1.612 1.696-2.433 2.528L184.8 406.2c-3.333 3.464-7.269 5.905-11.451 7.339l62.09 64.521c11.376 11.822 29.751 11.821 41.126-.001L469.25 277.801c.821-.832 1.632-1.675 2.433-2.528l.468-.487-.01-.003c25.449-27.348 40.818-64.996 39.813-106.397z" fill="#ff69b4"/>
</svg>
